<svg width="200" height="200" viewBox="0 0 200 200" fill="none" xmlns="http://www.w3.org/2000/svg">
<path d="M47.8518 5.42969C44.4533 6.25 41.7971 8.55469 41.0549 11.2109C40.8205 12.0312 40.6252 14.5703 40.6252 16.875V21.0547L29.6096 21.1719L18.5549 21.2891L16.5627 22.3438C15.469 22.9297 13.7502 24.2969 12.7736 25.3906C9.4924 29.0234 9.76583 21.5234 9.76583 107.969C9.76583 180.391 9.8049 185.078 10.4299 186.875C11.3674 189.453 13.9846 192.305 16.719 193.633L18.9455 194.727H100H181.055L182.852 193.906C185.547 192.656 187.852 190.352 189.141 187.695L190.235 185.352V108.164C190.235 21.4844 190.508 29.0234 187.227 25.3906C186.25 24.2969 184.531 22.9297 183.438 22.3438L181.446 21.2891L170.43 21.1719L159.375 21.0547V16.875C159.375 11.9531 158.946 10.1953 157.383 8.4375C155.43 6.17188 153.086 5.3125 149.024 5.3125C145 5.3125 143.477 5.82031 141.055 8.00781C139.063 9.84375 138.672 11.1719 138.672 16.6797V21.0938H124.414H110.156V16.2109C110.156 10.3125 109.61 8.82812 106.797 7.03125C101.875 3.94531 94.219 4.84375 91.094 8.86719C90.0783 10.2344 90.0393 10.5078 89.9221 15.7031L89.7658 21.0938H75.5471H61.3283V16.6797C61.3283 11.0156 60.9768 9.80469 58.7111 7.85156C56.0158 5.42969 51.719 4.49219 47.8518 5.42969ZM53.7111 11.875L55.0783 12.4609V16.7578V21.0938H50.9768H46.8752V16.7969V12.4609L48.1643 11.9141C49.8049 11.2109 52.0315 11.1719 53.7111 11.875ZM102.539 11.875L103.906 12.4609V16.7578V21.0938H100H96.094V16.7969V12.4609L97.383 11.9141C99.0236 11.2109 100.86 11.1719 102.539 11.875ZM151.758 11.875L153.125 12.4609V16.7578V21.0938H149.024H144.922V16.7969V12.4609L146.211 11.9141C147.852 11.2109 150.078 11.1719 151.758 11.875ZM40.6252 30.1562C40.6252 31.7188 40.8205 33.6719 41.0549 34.4922C41.9143 37.6172 45.2736 39.9609 49.6877 40.4688C51.5627 40.7031 51.9143 40.625 52.8518 39.8047C53.7893 38.9062 54.0627 38.2031 53.9455 36.6406C53.8674 35.5078 52.383 34.4922 50.5861 34.2578C49.6096 34.1797 48.3986 33.7891 47.8518 33.4375C46.9533 32.8516 46.8752 32.5391 46.8752 30.0781V27.3438H68.3596H89.844V30.8984C89.844 35.0781 90.5861 36.8359 93.0471 38.5156C94.5315 39.5703 97.8127 40.625 99.4924 40.625C101.524 40.625 103.125 39.0625 103.125 37.0703C103.125 35.7812 101.524 34.5312 99.4924 34.2578C96.2893 33.8281 96.094 33.5938 96.094 30.2734V27.3438H117.383H138.672V30.5469C138.711 35.4688 140 37.7344 143.789 39.4141C144.766 39.8438 146.524 40.3125 147.696 40.4688C149.492 40.6641 149.961 40.5859 150.899 39.8438C151.719 39.1797 151.953 38.6719 151.953 37.5391C151.953 35.6641 150.781 34.5312 148.516 34.2578C147.617 34.1406 146.406 33.7891 145.899 33.4375C145 32.8516 144.922 32.5391 144.922 30.0781V27.3438H162.11C178.477 27.3438 179.414 27.3828 180.821 28.125C181.68 28.5547 182.696 29.4922 183.164 30.1953C183.946 31.4844 183.985 32.0312 183.985 42.7344V53.9062H100H16.0158V42.7344C16.0158 32.0312 16.0549 31.4844 16.8361 30.1953C18.4768 27.5391 19.2971 27.3828 30.5861 27.3438H40.6252V30.1562ZM183.985 106.641V153.125H171.914C160.625 153.125 159.805 153.164 158.946 153.867L158.008 154.609L157.813 167.07L157.617 179.492H89.0627C20.6252 179.492 20.508 179.492 19.1408 178.672C18.3986 178.242 17.383 177.305 16.9143 176.562L16.0158 175.273V117.734V60.1562H100H183.985V106.641ZM179.688 159.492C179.688 159.531 176.172 163.086 171.875 167.383L164.063 175.195V167.266V159.375H171.875C176.172 159.375 179.688 159.414 179.688 159.492ZM183.242 185.703C182.813 186.367 181.758 187.344 180.938 187.812L179.375 188.672H100.235C13.0471 188.672 18.9846 188.828 17.1877 186.328C16.0158 184.688 16.2111 184.336 17.8908 185.078C19.219 185.703 24.3752 185.742 90.7033 185.742H162.11L172.93 174.883L183.789 164.062L183.906 174.258C183.985 183.828 183.946 184.531 183.242 185.703Z" fill="black"/>
<path d="M36.5234 77.4219C34.8437 78.3203 34.7656 78.7109 34.7656 87.1875C34.7656 95.3125 34.7656 95.3516 35.7422 96.2891L36.6797 97.2656H45.8594H55L56.0547 96.0547L57.0703 94.8047L56.9531 86.8359L56.8359 78.8281L55.7422 77.8906C54.6484 76.9531 54.5703 76.9531 45.9766 76.9531C40.4687 76.9531 37.0312 77.1484 36.5234 77.4219ZM50.7812 87.1094V91.0156H45.8984H41.0156V87.1094V83.2031H45.8984H50.7812V87.1094Z" fill="black"/>
<path d="M72.0312 77.8906L70.8984 78.8281V87.1094V95.3906L71.9922 96.3281C73.0859 97.2656 73.125 97.2656 82.0703 97.2656H91.0547L91.9922 96.2891C92.9688 95.3516 92.9688 95.3125 92.9688 87.1875C92.9688 79.6875 92.8906 78.9062 92.2266 78.0859C91.4844 77.1484 91.4062 77.1484 82.3047 77.0312L73.125 76.9141L72.0312 77.8906ZM86.7188 87.1094V91.0156H81.8359H76.9531V87.1094V83.2031H81.8359H86.7188V87.1094Z" fill="black"/>
<path d="M108.711 77.3438C107.188 77.9688 107.031 78.9062 107.031 87.3047C107.031 95.3125 107.031 95.3516 108.008 96.2891L108.945 97.2656H117.93C126.875 97.2656 126.914 97.2656 128.008 96.3281L129.102 95.3906V87.1094V78.8281L128.008 77.8906C126.914 76.9531 126.875 76.9531 118.242 76.9922C113.477 76.9922 109.18 77.1484 108.711 77.3438ZM123.047 87.1094V91.0156H118.164H113.281V87.1094V83.2031H118.164H123.047V87.1094Z" fill="black"/>
<path d="M161.602 78.0081C161.25 78.0862 158.946 80.5472 156.485 83.3987L152.071 88.594L150.156 86.6409C147.11 83.5159 144.961 83.0081 143.36 85.0784C141.914 86.9143 142.266 87.6956 146.524 92.0315C150.586 96.1331 151.953 96.9534 153.477 96.1331C153.906 95.8987 156.797 92.6565 159.922 88.9847C164.61 83.4768 165.625 82.0315 165.625 81.055C165.625 79.18 163.477 77.5393 161.602 78.0081Z" fill="black"/>
<path d="M35.7422 112.305C34.7656 113.242 34.7656 113.242 34.7656 121.484C34.7656 129.727 34.7656 129.727 35.7422 130.664L36.6797 131.641H45.6641C54.6094 131.641 54.6484 131.641 55.7422 130.703L56.8359 129.766V121.484V113.203L55.7422 112.266C54.6484 111.328 54.6094 111.328 45.6641 111.328H36.6797L35.7422 112.305ZM50.7812 121.484V125.391H45.8984H41.0156V121.484V117.578H45.8984H50.7812V121.484Z" fill="black"/>
<path d="M71.9922 112.266L70.8984 113.203V121.484V129.766L71.9922 130.703C73.0859 131.641 73.125 131.641 82.0703 131.641H91.0547L91.9922 130.664C92.9688 129.727 92.9688 129.727 92.9688 121.484C92.9688 113.242 92.9688 113.242 91.9922 112.305L91.0547 111.328H82.0703C73.125 111.328 73.0859 111.328 71.9922 112.266ZM86.7188 121.484V125.391H81.8359H76.9531V121.484V117.578H81.8359H86.7188V121.484Z" fill="black"/>
<path d="M108.008 112.305C107.031 113.242 107.031 113.242 107.031 121.484C107.031 129.727 107.031 129.727 108.008 130.664L108.945 131.641H117.93C126.875 131.641 126.914 131.641 128.008 130.703L129.102 129.766V121.484V113.203L128.008 112.266C126.914 111.328 126.875 111.328 117.93 111.328H108.945L108.008 112.305ZM123.047 121.484V125.391H118.164H113.281V121.484V117.578H118.164H123.047V121.484Z" fill="black"/>
<path d="M144.258 112.266L143.164 113.203V121.484V129.766L144.258 130.703C145.352 131.641 145.391 131.641 154.336 131.641H163.32L164.258 130.664C165.234 129.727 165.234 129.727 165.234 121.484C165.234 113.242 165.234 113.242 164.258 112.305L163.32 111.328H154.336C145.391 111.328 145.352 111.328 144.258 112.266ZM158.984 121.484V125.391H154.102H149.219V121.484V117.578H154.102H158.984V121.484Z" fill="black"/>
<path d="M35.7422 146.68C34.7656 147.617 34.7656 147.656 34.7656 155.625C34.7656 160 34.8828 163.906 35 164.258C35.5859 165.781 37.1094 166.016 46.0547 166.016C54.5703 166.016 54.6484 166.016 55.7422 165.078L56.8359 164.141L56.9531 156.602C57.0312 152.461 56.9922 148.672 56.875 148.164C56.7188 147.695 56.25 146.914 55.7812 146.484C54.9609 145.742 54.4141 145.703 45.8203 145.703H36.6797L35.7422 146.68ZM50.7812 155.859V159.766H45.8984H41.0156V155.859V151.953H45.8984H50.7812V155.859Z" fill="black"/>
<path d="M71.8359 146.719C70.8984 147.695 70.8984 147.773 70.8984 155.938V164.141L71.9922 165.078C73.0859 166.016 73.1641 166.016 81.6797 166.016C90.625 166.016 92.1484 165.781 92.7344 164.258C92.8516 163.906 92.9688 160 92.9688 155.625C92.9688 147.656 92.9688 147.617 91.9922 146.68L91.0547 145.703H81.9141H72.7734L71.8359 146.719ZM86.7188 155.859V159.805L81.9531 159.688L77.1484 159.57L77.0312 155.742L76.9141 151.953H81.8359H86.7188V155.859Z" fill="black"/>
<path d="M108.008 146.68C107.031 147.617 107.031 147.656 107.031 155.625C107.031 160 107.148 163.906 107.266 164.258C107.852 165.781 109.375 166.016 118.32 166.016C126.836 166.016 126.914 166.016 128.008 165.078L129.102 164.141V155.859V147.578L128.008 146.641C126.914 145.703 126.875 145.703 117.93 145.703H108.945L108.008 146.68ZM122.969 155.742L122.852 159.57L118.086 159.688L113.281 159.805V155.859V151.953H118.164H123.086L122.969 155.742Z" fill="black"/>
</svg>
