<svg width="200" height="200" viewBox="0 0 200 200" fill="none" xmlns="http://www.w3.org/2000/svg">
<path d="M36.9289 1.90155C37.3617 1.90005 37.7946 1.89855 38.2405 1.89701C38.9507 1.89751 38.9507 1.89751 39.6752 1.89803C40.1798 1.89687 40.6843 1.89571 41.2042 1.89452C42.6041 1.89137 44.004 1.89066 45.4039 1.89038C46.914 1.88965 48.424 1.8867 49.9342 1.88407C53.2359 1.87877 56.5377 1.87641 59.8395 1.87469C61.9017 1.87361 63.9639 1.87196 66.0261 1.8702C71.7371 1.86544 77.4482 1.86141 83.1592 1.86009C83.5246 1.86001 83.8901 1.85992 84.2666 1.85983C84.8161 1.85971 84.8161 1.85971 85.3766 1.85957C86.1189 1.8594 86.8612 1.85923 87.6035 1.85905C88.1558 1.85892 88.1558 1.85892 88.7192 1.85879C94.6841 1.85725 100.649 1.85043 106.614 1.84133C112.74 1.83207 118.866 1.8272 124.992 1.82675C128.431 1.82639 131.869 1.82415 135.308 1.81705C138.236 1.81103 141.165 1.80904 144.093 1.81226C145.586 1.81379 147.08 1.81343 148.573 1.80794C150.194 1.80203 151.815 1.80526 153.436 1.80934C154.14 1.80462 154.14 1.80462 154.858 1.7998C159.047 1.82443 162.519 2.51605 165.625 5.46852C168.959 9.05162 169.314 12.7401 169.255 17.494C169.253 18.0005 169.252 18.5071 169.25 19.029C169.246 20.3642 169.234 21.6991 169.221 23.0342C169.209 24.4012 169.204 25.7682 169.198 27.1352C169.185 29.8089 169.165 32.4824 169.141 35.156C169.376 35.1517 169.612 35.1473 169.854 35.1429C172.306 35.0996 174.759 35.0702 177.211 35.0487C178.126 35.0389 179.041 35.0256 179.956 35.0087C181.272 34.985 182.587 34.9739 183.904 34.9653C184.516 34.9502 184.516 34.9502 185.142 34.9347C186.983 34.934 187.975 34.95 189.531 35.998C190.367 37.3189 190.478 37.9177 190.234 39.4529C189.798 40.4768 189.798 40.4768 189.195 41.493C188.982 41.8643 188.769 42.2357 188.549 42.6183C188.093 43.3907 187.636 44.1628 187.179 44.9346C186.966 45.3055 186.753 45.6763 186.534 46.0584C186.336 46.3933 186.137 46.7282 185.933 47.0732C185.462 48.2613 185.544 48.7961 185.938 49.9998C186.324 50.8341 186.324 50.8341 186.816 51.6325C186.99 51.9311 187.163 52.2297 187.341 52.5373C187.706 53.1546 188.072 53.771 188.44 54.3867C189.499 56.2187 190.137 57.6385 190.234 59.7654C189.804 61.0928 189.484 61.3073 188.281 62.1091C187.414 62.2031 187.414 62.2031 186.391 62.1978C185.816 62.1977 185.816 62.1977 185.23 62.1977C184.611 62.1916 184.611 62.1916 183.98 62.1854C183.557 62.1843 183.133 62.1832 182.697 62.1821C181.344 62.1777 179.991 62.1679 178.638 62.158C177.721 62.1541 176.804 62.1505 175.887 62.1473C173.638 62.1387 171.39 62.1252 169.141 62.1091C169.141 64.6873 169.141 67.2654 169.141 69.9216C169.687 69.9155 170.232 69.9094 170.795 69.903C172.822 69.8818 174.85 69.8684 176.877 69.8573C177.754 69.8514 178.632 69.8434 179.509 69.8332C180.77 69.819 182.032 69.8124 183.293 69.8072C183.685 69.8012 184.076 69.7951 184.48 69.7889C187.927 69.788 187.927 69.788 189.453 71.0935C190.327 72.4049 190.317 72.9857 190.08 74.5092C189.639 76.1543 188.761 77.5524 187.891 79.0037C187.531 79.6151 187.173 80.2275 186.816 80.8408C186.657 81.1073 186.498 81.3738 186.334 81.6484C185.916 82.4634 185.645 83.0712 185.547 83.9841C185.879 84.862 185.879 84.862 186.435 85.7359C186.628 86.0692 186.822 86.4025 187.021 86.746C187.434 87.438 187.848 88.1297 188.263 88.8212C189.471 90.9048 190.208 92.4917 190.234 94.9216C189.424 96.2815 189.006 96.7634 187.5 97.2654C186.895 97.2993 186.288 97.3114 185.682 97.3097C185.314 97.3097 184.947 97.3097 184.568 97.3096C184.173 97.3076 183.777 97.3056 183.369 97.3035C182.761 97.3027 182.761 97.3027 182.14 97.3019C180.842 97.2997 179.545 97.2948 178.247 97.2898C177.368 97.2878 176.489 97.2861 175.61 97.2845C173.453 97.2802 171.297 97.2736 169.141 97.2654C169.142 97.7285 169.144 98.1916 169.145 98.6687C169.179 109.673 169.205 120.677 169.22 131.681C169.222 133.037 169.224 134.393 169.226 135.749C169.227 136.018 169.227 136.288 169.228 136.566C169.234 140.931 169.247 145.295 169.261 149.66C169.276 154.142 169.284 158.623 169.288 163.105C169.29 165.621 169.294 168.137 169.306 170.653C169.316 173.022 169.32 175.392 169.317 177.762C169.318 178.63 169.321 179.498 169.327 180.366C169.395 190.685 169.395 190.685 165.593 194.641C161.975 197.883 158.254 198.163 153.561 198.148C153.057 198.15 152.553 198.151 152.034 198.153C150.642 198.157 149.25 198.156 147.858 198.154C146.355 198.154 144.851 198.157 143.347 198.16C140.403 198.165 137.46 198.166 134.516 198.165C132.123 198.164 129.729 198.165 127.336 198.166C126.824 198.167 126.824 198.167 126.303 198.167C125.61 198.168 124.918 198.168 124.225 198.169C117.732 198.173 111.239 198.172 104.746 198.17C98.8105 198.168 92.875 198.172 86.9395 198.179C80.8404 198.187 74.7413 198.19 68.6422 198.189C65.2198 198.188 61.7975 198.189 58.3752 198.194C55.4614 198.199 52.5477 198.2 49.6339 198.195C48.1484 198.193 46.6629 198.192 45.1774 198.197C43.5643 198.202 41.9513 198.198 40.3381 198.193C39.8725 198.196 39.4068 198.199 38.9271 198.202C34.7381 198.175 31.1341 197.453 27.7344 194.922C27.2517 194.568 27.2517 194.568 26.7593 194.208C25.721 193.307 25.0714 192.445 24.3408 191.284C24.0002 190.754 24.0002 190.754 23.6526 190.214C22.4786 187.981 22.1686 185.915 22.1893 183.412C22.1904 183.147 22.1915 182.882 22.1927 182.609C22.197 181.773 22.2068 180.938 22.2168 180.102C22.2207 179.531 22.2243 178.96 22.2275 178.39C22.236 176.999 22.2495 175.609 22.2656 174.219C22.0331 174.222 21.8005 174.225 21.561 174.229C18.2659 174.257 15.5353 174.039 12.8906 171.875C10.8324 169.769 9.7484 167.613 9.59473 164.673C9.69358 161.947 10.9738 159.339 12.8906 157.422C16.0593 155.233 18.199 155.469 22.2656 155.469C22.2656 149.926 22.2656 144.383 22.2656 138.672C20.8477 138.672 19.4297 138.672 17.9687 138.672C15.1786 138.039 13.1767 136.99 11.3281 134.765C9.96872 132.449 9.31049 130.013 9.76562 127.344C10.5068 124.743 11.8754 122.695 14.0625 121.094C16.7547 119.639 19.1362 119.922 22.2656 119.922C22.2656 114.379 22.2656 108.836 22.2656 103.125C20.7187 103.125 19.1719 103.125 17.5781 103.125C14.7008 102.405 12.4404 100.903 10.7849 98.3961C9.54841 95.9361 9.3124 93.5274 10.0098 90.8643C11.0152 88.2207 12.7785 86.4085 15.2863 85.1179C17.7438 84.171 19.4706 84.3748 22.2656 84.3748C22.2656 78.8318 22.2656 73.2888 22.2656 67.5779C20.5898 67.5779 18.9141 67.5779 17.1875 67.5779C14.0238 66.6991 12.1903 65.3332 10.5469 62.4998C9.37705 59.8677 9.4253 57.3353 10.3516 54.6384C11.4119 52.2159 13.16 50.6771 15.4785 49.4627C17.2028 49.0089 18.8069 48.809 20.5872 48.8187C20.902 48.8201 21.2168 48.8214 21.5412 48.8227C21.8998 48.8253 21.8998 48.8253 22.2656 48.8279C22.2622 48.397 22.2587 47.9661 22.2551 47.5221C22.2233 43.4478 22.2 39.3735 22.1847 35.2991C22.1765 33.2047 22.1655 31.1105 22.1477 29.0162C22.1307 26.9925 22.1214 24.9689 22.1174 22.9451C22.1145 22.1756 22.1089 21.4062 22.1004 20.6367C22.0441 15.3064 22.2123 10.9194 25.7858 6.64192C28.8069 3.59708 32.6519 1.90713 36.9289 1.90155ZM28.5156 28.906C28.5156 35.4802 28.5156 42.0545 28.5156 48.8279C30.4492 49.0857 32.3828 49.3435 34.375 49.6091C36.9541 50.585 38.5114 51.7193 39.8315 54.2371C40.803 56.4994 41.0616 58.717 40.3412 61.0914C39.2648 63.7298 37.716 65.484 35.1562 66.7966C32.994 67.3372 30.7379 67.407 28.5156 67.5779C28.5156 73.1209 28.5156 78.6638 28.5156 84.3748C30.5781 84.6326 32.6406 84.8904 34.7656 85.156C37.3608 86.4017 39.0972 87.8886 40.3564 90.5271C40.9483 93.3251 40.9062 95.8058 39.6072 98.3945C38.3484 100.299 36.7622 101.604 34.668 102.49C32.6344 102.829 30.5702 102.954 28.5156 103.125C28.5156 108.668 28.5156 114.211 28.5156 119.922C30.5781 120.179 32.6406 120.437 34.7656 120.703C35.5391 121.09 36.3125 121.476 37.1094 121.875C37.3994 121.996 37.6895 122.116 37.9883 122.241C38.9014 122.795 39.0598 123.222 39.4531 124.219C39.5543 124.441 39.6555 124.663 39.7598 124.891C40.8472 127.435 41.0456 129.819 40.1855 132.47C39.0098 135.236 37.4407 136.553 34.7656 137.89C32.7031 138.148 30.6406 138.406 28.5156 138.672C28.5156 144.215 28.5156 149.758 28.5156 155.469C30.1914 155.597 31.8672 155.726 33.5937 155.859C35.8575 156.519 37.8657 157.248 39.1235 159.347C40.5146 162.06 41.1246 164.401 40.3717 167.422C39.4199 170.115 38.0361 171.826 35.4553 173.08C34.0962 173.529 32.7384 173.712 31.3232 173.877C31.0526 173.91 30.7819 173.944 30.5031 173.979C29.8409 174.061 29.1783 174.14 28.5156 174.219C28.4812 175.773 28.4607 177.327 28.4424 178.882C28.4326 179.318 28.4227 179.754 28.4126 180.204C28.3851 183.329 28.7447 185.84 30.2979 188.574C36.6918 194.476 45.8909 191.406 53.9062 191.406C53.9062 138.683 53.9062 85.9607 53.9062 31.6404C47.7188 31.5115 41.5312 31.3826 35.1562 31.2498C30.8594 30.0779 30.8594 30.0779 28.5156 28.906ZM60.5469 31.6404C60.5469 84.363 60.5469 137.086 60.5469 191.406C84.741 191.454 84.741 191.454 109.424 191.504C114.521 191.518 119.619 191.532 124.87 191.547C129.43 191.552 129.43 191.552 133.99 191.555C136.025 191.557 138.059 191.562 140.094 191.571C142.688 191.582 145.281 191.585 147.875 191.583C148.828 191.583 149.781 191.586 150.734 191.592C152.019 191.6 153.304 191.598 154.59 191.594C154.964 191.598 155.339 191.603 155.725 191.608C157.914 191.588 159.243 191.366 160.938 189.844C162.306 188.104 162.695 186.981 162.692 184.777C162.694 184.511 162.696 184.246 162.698 183.972C162.702 183.081 162.695 182.191 162.688 181.301C162.689 180.656 162.69 180.011 162.692 179.366C162.695 177.594 162.689 175.823 162.681 174.051C162.675 172.14 162.677 170.229 162.678 168.319C162.679 165.008 162.674 161.698 162.665 158.387C162.653 153.601 162.648 148.815 162.646 144.029C162.643 136.263 162.633 128.498 162.618 120.733C162.604 113.189 162.592 105.646 162.586 98.102C162.585 97.6323 162.585 97.1626 162.585 96.6787C162.581 93.0055 162.578 89.3324 162.575 85.6592C162.561 67.6529 162.529 49.6467 162.5 31.6404C128.855 31.6404 95.2109 31.6404 60.5469 31.6404Z" fill="#000"/>
<path d="M125.273 93.8584C131.368 98.4217 135.397 104.263 136.525 111.876C136.941 115.769 136.941 115.769 135.547 117.578C128.172 123.557 116.585 125.789 107.364 124.921C101.552 124.205 96.0275 122.379 90.8447 119.678C90.4252 119.46 90.4252 119.46 89.9971 119.237C87.4279 117.835 87.4279 117.835 86.7188 116.406C85.8541 110.502 88.0285 104.95 91.3193 100.162C99.1292 89.7806 114.211 86.5889 125.273 93.8584Z" fill="#000"/>
<path d="M121.631 61.0111C124.796 64.0639 126.475 67.9975 126.599 72.3835C126.405 76.5134 125.179 80.1961 122.266 83.2035C118.194 86.6583 114.263 87.5841 109.003 87.2057C105.201 86.7497 102.029 84.516 99.6095 81.641C97.0092 77.3777 95.9862 72.8349 97.1696 67.9172C98.806 63.7204 101.513 60.4752 105.626 58.5956C111.083 56.4868 117.031 57.3121 121.631 61.0111Z" fill="#000"/>
<path d="M89.55 158.738C90.082 158.736 90.6141 158.733 91.1462 158.729C92.5885 158.722 94.0305 158.727 95.4728 158.735C96.9832 158.741 98.4937 158.738 100.004 158.736C102.541 158.734 105.077 158.74 107.613 158.751C110.544 158.764 113.475 158.764 116.406 158.757C119.227 158.751 122.049 158.753 124.87 158.76C126.07 158.763 127.27 158.762 128.469 158.76C129.883 158.757 131.296 158.761 132.709 158.772C133.475 158.776 134.24 158.772 135.005 158.768C135.462 158.773 135.918 158.778 136.389 158.783C136.983 158.785 136.983 158.785 137.589 158.787C138.964 159.038 139.629 159.587 140.625 160.547C141.054 161.992 140.817 163.315 140.112 164.624C138.903 165.744 137.69 165.675 136.122 165.68C135.673 165.682 135.224 165.684 134.761 165.687C134.268 165.687 133.775 165.688 133.267 165.688C132.742 165.69 132.218 165.692 131.694 165.694C130.269 165.699 128.845 165.702 127.42 165.703C126.53 165.704 125.64 165.706 124.75 165.708C121.966 165.713 119.181 165.717 116.397 165.718C113.182 165.72 109.968 165.727 106.753 165.738C104.269 165.747 101.784 165.751 99.2992 165.751C97.8151 165.752 96.3312 165.754 94.8472 165.761C93.4511 165.767 92.0552 165.768 90.6592 165.765C89.9034 165.764 89.1476 165.77 88.3918 165.775C87.7148 165.772 87.7148 165.772 87.0242 165.769C86.4373 165.769 86.4373 165.769 85.8384 165.77C84.5749 165.599 83.8378 165.199 82.8125 164.453C82.1994 163.227 82.2843 162.29 82.4218 160.938C84.109 158.26 86.6461 158.711 89.55 158.738Z" fill="#000"/>
<path d="M99.0644 142.515C99.3663 142.513 99.6681 142.511 99.9791 142.509C100.978 142.503 101.977 142.501 102.975 142.499C103.67 142.496 104.364 142.494 105.058 142.492C106.514 142.488 107.97 142.485 109.426 142.484C111.291 142.482 113.156 142.473 115.021 142.461C116.455 142.454 117.889 142.452 119.323 142.451C120.011 142.45 120.698 142.447 121.386 142.442C122.348 142.435 123.31 142.436 124.272 142.439C124.555 142.435 124.839 142.431 125.131 142.428C126.845 142.442 127.933 142.695 129.297 143.75C129.909 144.974 130.02 146.34 129.688 147.656C128.362 149.027 127.358 149.4 125.456 149.435C125.162 149.432 124.869 149.43 124.567 149.427C124.097 149.432 124.097 149.432 123.618 149.437C122.585 149.446 121.553 149.443 120.52 149.44C119.801 149.442 119.081 149.444 118.362 149.447C116.855 149.451 115.349 149.449 113.842 149.444C111.912 149.437 109.983 149.446 108.054 149.46C106.568 149.468 105.083 149.468 103.598 149.465C102.887 149.464 102.175 149.467 101.464 149.473C100.469 149.48 99.4745 149.474 98.4795 149.465C98.1864 149.47 97.8933 149.474 97.5913 149.479C96.0625 149.451 95.3716 149.265 94.1517 148.314C93.3594 147.265 93.3594 147.265 93.1396 145.874C93.391 144.338 93.6893 143.884 94.9219 142.969C96.3242 142.501 97.6047 142.517 99.0644 142.515Z" fill="#000"/>
</svg>
