<svg width="200" height="200" viewBox="0 0 200 200" fill="none" xmlns="http://www.w3.org/2000/svg">
<path d="M62.5003 16.6667C47.5837 26.25 37.5003 43.1667 37.5003 62.5C37.5003 81.8333 47.5837 98.75 62.7503 108.333C37.167 108.333 16.667 87.8333 16.667 62.5C16.667 50.3442 21.4958 38.6864 30.0913 30.0909C38.6867 21.4955 50.3446 16.6667 62.5003 16.6667ZM158.917 29.1667L170.834 41.0833L41.0837 170.833L29.167 158.917L158.917 29.1667ZM107.417 49.4167L95.0837 41.6667L83.0837 50L86.5837 35.8333L75.0003 27L89.5837 26L94.417 12.25L100 25.8333L114.417 26.0833L103.167 35.5L107.417 49.4167ZM79.917 79.5L70.2503 73.4167L60.917 79.9167L63.7503 68.9167L54.667 62L66.0003 61.25L69.7503 50.5L74.0003 61.0833L85.3337 61.3333L76.5837 68.5833L79.917 79.5ZM158.334 112.5C158.334 124.656 153.505 136.314 144.909 144.909C136.314 153.504 124.656 158.333 112.5 158.333C102.334 158.333 92.917 155 85.3337 149.417L149.417 85.3333C155 92.9167 158.334 102.333 158.334 112.5ZM121.667 167.333L144.75 157.75L142.75 185.667L121.667 167.333ZM157.75 144.833L167.334 121.75L185.667 142.917L157.75 144.833ZM167.334 103.5L157.834 80.3333L185.667 82.3333L167.334 103.5ZM80.2503 157.75L103.334 167.333L82.2503 185.583L80.2503 157.75Z" fill="black"/>
</svg>
