<svg width="200" height="200" viewBox="0 0 200 200" fill="none" xmlns="http://www.w3.org/2000/svg">
<path d="M40.7422 0.312225C39.6094 1.01535 39.4531 3.0466 39.4531 15.82V28.8669L30.8594 28.9841C22.5391 29.1013 22.2656 29.1404 21.4062 29.9997L20.5078 30.8982L20.3906 54.8435L20.2734 78.7888L17.3828 79.0232C11.875 79.4138 7.46094 82.4216 5.19531 87.3044L4.10156 89.6482V139.258V188.867L5.3125 191.406C6.875 194.609 8.90625 196.64 12.1094 198.203L14.6484 199.414L98.8281 199.531C187.031 199.648 185.43 199.687 188.789 197.968C191.016 196.836 193.672 194.023 194.844 191.484L195.898 189.258V128.125V66.9919L194.805 64.9216C194.219 63.7888 193.086 62.1872 192.344 61.3279C190.898 59.7263 186.797 57.4216 185.391 57.4216C183.633 57.4216 183.633 57.4607 183.516 43.8279C183.398 30.9372 183.398 30.8591 182.5 29.9997C181.641 29.1404 181.367 29.1013 173.047 28.9841L164.453 28.8669V15.82C164.453 3.0466 164.297 1.01535 163.164 0.312225C162.891 0.155975 135.352 -0.000274658 101.953 -0.000274658C68.5547 -0.000274658 41.0156 0.155975 40.7422 0.312225ZM158.203 31.2497V57.031H151.758H145.352L145.234 43.945C145.117 30.9372 145.117 30.8591 144.219 29.9997L143.32 29.1013L94.5312 28.9841L45.7031 28.906V17.1872V5.46848H101.953H158.203V31.2497ZM139.375 45.9763L139.258 56.8357L122.461 57.031L105.664 57.2263L103.438 58.281C98.9062 60.3904 95.8984 64.7263 95.3125 70.0779C95.1172 71.6013 94.7656 73.3591 94.5312 74.0232C93.9062 75.6638 92.2656 77.3044 90.4297 78.1638C88.9453 78.8279 87.3828 78.906 64.9609 78.906C47.9297 78.906 40.7812 79.0232 40.0781 79.3357C38.1641 80.2341 38.0078 83.3982 39.8047 84.3747C40.3906 84.6482 48.1641 84.7654 65.7031 84.6872L90.8203 84.57L92.9688 83.5544C95.5469 82.3435 98.4375 79.57 99.6094 77.1482C100.078 76.1716 100.625 74.2185 100.859 72.7341C101.484 68.5544 101.914 67.2654 103.242 65.7419C105.859 62.7732 104.453 62.8904 133.906 62.8904C162.617 62.8904 161.719 62.8122 164.219 65.156C164.844 65.7419 165.664 66.9138 166.055 67.7732C166.758 69.2575 166.797 71.7575 166.797 128.242C166.797 192.773 166.953 188.593 164.531 191.133C162.031 193.75 168.633 193.554 89.6484 193.672C36.6016 193.75 17.6172 193.672 16.0547 193.359C13.3203 192.734 10.8984 190.429 10.2344 187.812C9.60938 185.429 9.57031 93.1247 10.1562 90.9763C10.7812 88.7888 12.1484 87.031 14.0625 85.9372C15.7422 84.9997 16.1719 84.9607 23.3203 84.8435L30.8594 84.6872L31.6406 83.7107C32.6953 82.3825 32.6172 81.0154 31.4453 79.8825C30.7031 79.1013 30.1172 78.906 28.5156 78.906H26.5625V57.031V35.156H83.0078H139.453L139.375 45.9763ZM177.344 64.0622C177.344 95.5466 177.344 95.3904 179.453 95.9372C181.172 96.3669 182.422 95.781 183.047 94.3357C183.477 93.2419 183.594 90.156 183.594 78.1247C183.594 64.1013 183.633 63.281 184.297 63.281C185.391 63.281 188.008 65.156 189.062 66.7185L190.039 68.1247L190.156 127.5C190.273 193.828 190.469 188.867 187.5 191.562C185.391 193.437 183.945 193.75 176.68 193.75H170.352L171.289 191.679C171.797 190.586 172.344 188.984 172.461 188.164L172.734 186.718H177.188C182.188 186.718 182.93 186.367 183.398 183.906C183.516 183.203 183.555 164.922 183.516 143.32C183.398 105.273 183.359 103.945 182.656 103.164C181.641 102.031 179.297 102.031 178.281 103.164C177.578 103.945 177.539 105.273 177.422 142.422L177.344 180.859H175H172.656L172.578 124.101L172.461 67.3825L171.602 65.5075C170.352 62.8513 168.633 60.781 166.367 59.3357L164.453 58.0857V46.6013V35.156H170.898H177.344V64.0622Z" fill="black"/>
<path d="M40.2736 45.1953C39.8439 45.5859 39.3361 46.4453 39.2189 47.1484C39.0236 48.164 39.1798 48.5937 39.9611 49.3749L40.9767 50.3906H77.6173C117.5 50.3906 115.625 50.5078 116.172 48.2421C116.445 47.1093 115.586 45.1562 114.649 44.7656C114.297 44.6484 97.5783 44.5312 77.5392 44.5312C43.3986 44.5312 41.0548 44.5703 40.2736 45.1953Z" fill="black"/>
<path d="M40.2736 60.0391C39.8439 60.4297 39.3361 61.2891 39.2189 61.9922C39.0236 63.0078 39.1798 63.4375 39.9611 64.2188L40.9767 65.2344H62.2658C73.9454 65.2344 83.8283 65.1172 84.1798 65C85.1954 64.6094 85.9376 62.5391 85.5079 61.3672C84.7267 59.3359 85.3126 59.4141 62.4611 59.375C42.6954 59.375 41.0548 59.4141 40.2736 60.0391Z" fill="black"/>
<path d="M92.5782 95.4297C90.7032 96.3672 90.6251 96.9922 90.7032 109.453C90.8204 120.977 90.8204 121.094 91.7188 121.953L92.6173 122.852H124.609H156.602L157.5 121.953C158.399 121.055 158.399 121.055 158.399 108.945V96.7969L157.305 95.8594L156.211 94.9219H124.883C100.547 94.9219 93.3204 95.0391 92.5782 95.4297ZM152.656 108.867L152.734 116.797H124.805H96.8751V108.789V100.781L124.727 100.859L152.539 100.977L152.656 108.867Z" fill="black"/>
</svg>
