<svg width="200" height="200" viewBox="0 0 200 200" fill="none" xmlns="http://www.w3.org/2000/svg">
<path d="M69.6721 6.57779C49.689 13.5101 32.4556 26.6679 20.5032 44.1184C8.55082 61.569 2.50946 82.3925 3.26651 103.53C4.02355 124.668 11.5391 145.006 24.7092 161.557C37.8794 178.108 56.0099 189.999 76.4377 195.484C92.999 199.757 110.35 199.945 127 196.031C142.083 192.643 156.028 185.396 167.469 175C179.376 163.849 188.02 149.663 192.469 133.968C197.305 116.901 198.166 98.9517 194.985 81.4997H101.985V120.078H155.844C154.768 126.231 152.461 132.103 149.062 137.344C145.663 142.585 141.242 147.086 136.063 150.578C129.486 154.928 122.072 157.855 114.297 159.172C106.499 160.621 98.5011 160.621 90.7033 159.172C82.8 157.538 75.3236 154.276 68.7502 149.593C58.19 142.118 50.2608 131.498 46.094 119.25C41.8567 106.771 41.8567 93.2435 46.094 80.7653C49.06 72.0187 53.9632 64.0549 60.4377 57.4684C67.847 49.7926 77.2273 44.3059 87.5495 41.6102C97.8718 38.9146 108.737 39.1142 118.953 42.1872C126.934 44.637 134.232 48.9174 140.266 54.6872C146.339 48.6455 152.401 42.5882 158.453 36.5153C161.578 33.2497 164.985 30.1403 168.063 26.7965C158.853 18.2259 148.042 11.5568 136.25 7.17154C114.777 -0.625493 91.2811 -0.835031 69.6721 6.57779Z" fill="white"/>
<path d="M69.6719 6.57855C91.2791 -0.839312 114.775 -0.63529 136.25 7.15667C148.044 11.5717 158.85 18.2729 168.047 26.8754C164.922 30.2192 161.625 33.3442 158.437 36.5942C152.375 42.6463 146.318 48.6775 140.266 54.6879C134.232 48.9182 126.934 44.6378 118.953 42.1879C108.74 39.1042 97.8753 38.893 87.5503 41.5776C77.2253 44.2623 67.8392 49.7389 60.4219 57.4067C53.9474 63.9932 49.0442 71.9569 46.0781 80.7036L13.6875 55.6254C25.2814 32.6342 45.3555 15.0477 69.6719 6.57855Z" fill="#E33629"/>
<path d="M5.09371 80.4688C6.83466 71.8405 9.72501 63.4848 13.6875 55.625L46.0781 80.7656C41.8408 93.2438 41.8408 106.772 46.0781 119.25C35.2864 127.583 24.4895 135.958 13.6875 144.375C3.76793 124.63 0.742653 102.133 5.09371 80.4688Z" fill="#F8BD00"/>
<path d="M101.984 81.4844H194.984C198.166 98.9365 197.305 116.885 192.469 133.953C188.019 149.648 179.376 163.834 167.469 174.984C157.016 166.828 146.516 158.734 136.063 150.578C141.245 147.082 145.668 142.576 149.067 137.33C152.467 132.084 154.771 126.205 155.844 120.047H101.984C101.969 107.203 101.984 94.3437 101.984 81.4844Z" fill="#587DBD"/>
<path d="M13.6719 144.375C24.474 136.042 35.2708 127.667 46.0625 119.25C50.2376 131.503 58.1782 142.123 68.75 149.594C75.3439 154.254 82.8364 157.49 90.75 159.094C98.5478 160.544 106.546 160.544 114.344 159.094C122.119 157.778 129.533 154.85 136.109 150.5C146.563 158.656 157.062 166.75 167.516 174.906C156.076 185.308 142.132 192.561 127.047 195.953C110.397 199.867 93.0457 199.68 76.4844 195.406C63.386 191.909 51.1512 185.744 40.5469 177.297C29.3228 168.386 20.1556 157.156 13.6719 144.375Z" fill="#319F43"/>
</svg>
