<svg width="200" height="200" viewBox="0 0 200 200" fill="none" xmlns="http://www.w3.org/2000/svg">
<path d="M70.8984 0.351486C62.7734 2.1093 56.7969 7.57805 54.0625 15.6249C53.5156 17.1874 53.3203 18.9062 53.3203 21.8749C53.3203 28.203 55.3125 33.0077 59.6875 37.3827C68.125 45.8202 81.875 45.7812 90.3516 37.3046C97.0703 30.5859 98.6719 20.8984 94.5312 12.2655C91.0547 5.03899 84.1016 0.507736 75.9766 0.195236C74.0625 0.117111 71.7578 0.195236 70.8984 0.351486ZM81.4062 7.7343C84.9609 9.37492 87.2266 11.6405 88.9844 15.1562C90.3516 17.9687 90.4297 18.3202 90.4297 21.8749C90.4297 25.4296 90.3516 25.7812 88.9844 28.5937C87.2266 32.1484 84.9609 34.3359 81.3281 36.0546C78.9453 37.1874 78.3594 37.3046 75 37.3046C71.6406 37.3046 71.0547 37.1874 68.6719 36.0546C65.0391 34.3359 62.7734 32.1484 61.0156 28.5937C59.6484 25.7812 59.5703 25.4296 59.5703 21.914C59.5703 18.5155 59.6875 17.9296 60.8203 15.5468C62.3828 12.2265 64.6094 9.80461 67.5391 8.28117C70.5859 6.64055 72.3047 6.24992 75.8594 6.40617C78.2422 6.52336 79.4531 6.83586 81.4062 7.7343Z" fill="black"/>
<path d="M120.898 0.351486C112.773 2.1093 106.797 7.57805 104.062 15.6249C103.516 17.1874 103.32 18.9062 103.32 21.8749C103.32 28.203 105.312 33.0077 109.688 37.3827C118.125 45.8202 131.875 45.7812 140.352 37.3046C147.07 30.5859 148.672 20.8984 144.531 12.2655C141.055 5.03899 134.102 0.507736 125.977 0.195236C124.062 0.117111 121.758 0.195236 120.898 0.351486ZM131.406 7.7343C134.961 9.37492 137.227 11.6405 138.984 15.1562C140.352 17.9687 140.43 18.3202 140.43 21.8749C140.43 25.4296 140.352 25.7812 138.984 28.5937C137.227 32.1484 134.961 34.3359 131.328 36.0546C128.945 37.1874 128.359 37.3046 125 37.3046C121.641 37.3046 121.055 37.1874 118.672 36.0546C115.039 34.3359 112.773 32.1484 111.016 28.5937C109.648 25.7812 109.57 25.4296 109.57 21.914C109.57 18.5155 109.688 17.9296 110.82 15.5468C112.383 12.2265 114.609 9.80461 117.539 8.28117C120.586 6.64055 122.305 6.24992 125.859 6.40617C128.242 6.52336 129.453 6.83586 131.406 7.7343Z" fill="black"/>
<path d="M39.6483 34.7266C31.5233 36.4844 25.5467 41.9531 22.8123 50C21.7967 53.0078 21.7967 59.5312 22.8123 62.5C23.867 65.625 24.8826 67.5 26.7967 69.9609L28.4764 72.1484L26.6795 72.4219C25.6639 72.5391 23.4373 73.3594 21.6795 74.1797C15.6248 77.1484 10.8592 83.3594 9.76546 89.8438C9.49202 91.5234 9.37483 98.9453 9.45296 112.109L9.57015 131.836L10.8201 134.453C11.4842 135.898 12.7733 137.852 13.6717 138.828C15.703 141.016 19.9217 143.203 22.8514 143.555L24.9998 143.828V167.227V190.625H28.1248H31.2498V160.938V131.25H28.1248H24.9998V134.375C24.9998 137.891 24.9998 137.891 22.1092 137.031C19.8436 136.367 16.7186 133.164 16.0545 130.859C15.703 129.531 15.6248 124.258 15.703 109.531L15.8201 90L17.2655 87.0312C19.0233 83.4766 21.2889 81.2891 24.9217 79.5703L27.5389 78.3203H43.7498H59.9608L62.4998 79.5312C63.9061 80.1953 65.742 81.3281 66.5233 81.9922L67.9686 83.2812L70.117 81.3672C71.2889 80.3516 72.2655 79.2578 72.2655 79.0234C72.2655 78.3984 68.6717 75.5469 66.4451 74.4531C64.492 73.4766 61.2889 72.3828 59.8436 72.1875C58.9451 72.0703 58.9451 72.0312 60.2733 70.5078C66.0155 63.75 67.1483 54.6875 63.2811 46.6406C59.8045 39.4141 52.8514 34.8828 44.7264 34.5703C42.8123 34.4922 40.5076 34.5703 39.6483 34.7266ZM50.1561 42.1094C53.7108 43.75 55.9764 46.0156 57.7342 49.5312C59.1014 52.3438 59.1795 52.6953 59.1795 56.25C59.1795 59.8047 59.1014 60.1562 57.7342 62.9688C55.9764 66.5234 53.7108 68.7109 50.078 70.4297C47.6951 71.5625 47.1092 71.6797 43.7498 71.6797C40.3905 71.6797 39.8045 71.5625 37.4217 70.4297C33.7889 68.7109 31.5233 66.5234 29.7655 62.9688C28.3983 60.1562 28.3201 59.8047 28.3201 56.2891C28.3201 52.8906 28.4373 52.3047 29.5701 49.9219C31.1326 46.6016 33.3592 44.1797 36.2889 42.6562C39.3358 41.0156 41.0545 40.625 44.6092 40.7812C46.992 40.8984 48.203 41.2109 50.1561 42.1094Z" fill="black"/>
<path d="M152.148 34.7266C144.023 36.4844 138.047 41.9531 135.312 50C134.297 53.0078 134.297 59.5312 135.312 62.5C136.406 65.6641 137.383 67.5 139.336 70C140.977 72.1875 141.016 72.2656 140.117 72.2656C138.984 72.2656 135.508 73.4375 133.398 74.5312C131.367 75.5469 127.734 78.4766 127.734 79.0234C127.734 79.2969 128.711 80.3516 129.883 81.3672L132.031 83.2812L133.477 81.9922C134.258 81.3281 136.094 80.1953 137.5 79.5312L140.039 78.3203H156.25H172.461L175.078 79.5703C178.711 81.2891 180.977 83.4766 182.734 87.0312L184.18 90L184.297 109.531C184.375 124.258 184.297 129.531 183.945 130.859C183.281 133.164 180.156 136.367 177.891 137.031C175 137.891 175 137.891 175 134.375V131.25H171.875H168.75V160.938V190.625H171.875H175V167.227V143.828L177.148 143.555C180.078 143.203 184.297 141.016 186.328 138.828C187.227 137.852 188.516 135.898 189.18 134.453L190.43 131.836V110.742C190.43 87.4219 190.508 88.3203 187.773 83.125C186.445 80.5078 182.695 76.6016 180.234 75.1562C178.125 73.9062 174.883 72.6562 172.93 72.3438L171.445 72.0703L172.773 70.5078C178.516 63.75 179.648 54.6875 175.781 46.6406C172.305 39.4141 165.352 34.8828 157.227 34.5703C155.312 34.4922 153.008 34.5703 152.148 34.7266ZM162.656 42.1094C166.211 43.75 168.477 46.0156 170.234 49.5312C171.602 52.3438 171.68 52.6953 171.68 56.25C171.68 59.8047 171.602 60.1562 170.234 62.9688C168.477 66.5234 166.211 68.7109 162.578 70.4297C160.195 71.5625 159.609 71.6797 156.25 71.6797C152.891 71.6797 152.305 71.5625 149.922 70.4297C146.289 68.7109 144.023 66.5234 142.266 62.9688C140.898 60.1562 140.82 59.8047 140.82 56.2891C140.82 52.8906 140.937 52.3047 142.07 49.9219C143.633 46.6016 145.859 44.1797 148.789 42.6562C151.836 41.0156 153.555 40.625 157.109 40.7812C159.492 40.8984 160.703 41.2109 162.656 42.1094Z" fill="black"/>
<path d="M95.8983 44.1016C87.7733 45.8594 81.7967 51.3281 79.0623 59.375C78.0467 62.3828 78.0467 68.9062 79.0623 71.875C80.117 75 81.1326 76.875 83.0467 79.3359L84.7264 81.5234L82.9295 81.7969C81.9139 81.9141 79.6873 82.7344 77.9295 83.5547C71.8748 86.5234 67.1092 92.7344 66.0155 99.2188C65.742 100.898 65.6248 108.32 65.703 121.484L65.8201 141.211L67.0701 143.828C67.7342 145.273 69.0233 147.227 69.9217 148.203C71.953 150.391 76.1717 152.578 79.1014 152.93L81.2498 153.203V176.602V200H84.3748H87.4998V170.312V140.625H84.3748H81.2498V143.75C81.2498 147.266 81.2498 147.266 78.3592 146.406C76.0936 145.742 72.9686 142.539 72.3045 140.234C71.953 138.906 71.8748 133.633 71.953 118.906L72.0701 99.375L73.5155 96.4062C75.2733 92.8516 77.5389 90.6641 81.1717 88.9453L83.7889 87.6953H99.9998H116.211L118.828 88.9453C122.461 90.6641 124.726 92.8516 126.484 96.4062L127.93 99.375L128.047 118.906C128.125 133.633 128.047 138.906 127.695 140.234C127.031 142.539 123.906 145.742 121.64 146.406C118.75 147.266 118.75 147.266 118.75 143.75V140.625H115.625H112.5V170.312V200H115.625H118.75V176.602V153.203L120.898 152.93C123.828 152.578 128.047 150.391 130.078 148.203C130.976 147.227 132.265 145.273 132.93 143.828L134.18 141.211V120.117C134.18 100.547 134.14 98.8672 133.437 96.875C131.094 90 126.562 85.1562 120.195 82.7344C119.101 82.3047 117.5 81.8359 116.68 81.7188L115.195 81.4453L116.523 79.8828C122.265 73.125 123.398 64.0625 119.531 56.0156C116.055 48.7891 109.101 44.2578 100.976 43.9453C99.0623 43.8672 96.7576 43.9453 95.8983 44.1016ZM106.406 51.4844C109.961 53.125 112.226 55.3906 113.984 58.9062C115.351 61.7188 115.43 62.0703 115.43 65.625C115.43 69.1797 115.351 69.5312 113.984 72.3438C112.226 75.8984 109.961 78.0859 106.328 79.8047C103.945 80.9375 103.359 81.0547 99.9998 81.0547C96.6405 81.0547 96.0545 80.9375 93.6717 79.8047C90.0389 78.0859 87.7733 75.8984 86.0155 72.3438C84.6483 69.5312 84.5701 69.1797 84.5701 65.6641C84.5701 62.2656 84.6873 61.6797 85.8201 59.2969C87.3826 55.9766 89.6092 53.5547 92.5389 52.0312C95.5858 50.3906 97.3045 50 100.859 50.1562C103.242 50.2734 104.453 50.5859 106.406 51.4844Z" fill="black"/>
<path d="M56.25 160.938V190.625H59.375H62.5V160.938V131.25H59.375H56.25V160.938Z" fill="black"/>
<path d="M137.5 160.938V190.625H140.625H143.75V160.938V131.25H140.625H137.5V160.938Z" fill="black"/>
<path d="M40.625 170.312V190.625H43.75H46.875V170.312V150H43.75H40.625V170.312Z" fill="black"/>
<path d="M153.125 170.312V190.625H156.25H159.375V170.312V150H156.25H153.125V170.312Z" fill="black"/>
<path d="M96.875 179.688V200H100H103.125V179.688V159.375H100H96.875V179.688Z" fill="black"/>
</svg>
