<svg width="200" height="200" viewBox="0 0 200 200" fill="none" xmlns="http://www.w3.org/2000/svg">
<path d="M129.167 116.667H122.583L120.25 114.417C128.7 104.617 133.343 92.1059 133.333 79.1667C133.333 68.4535 130.157 57.981 124.205 49.0733C118.253 40.1656 109.793 33.223 99.8954 29.1232C89.9977 25.0235 79.1066 23.9508 68.5993 26.0408C58.092 28.1309 48.4404 33.2897 40.8651 40.8651C33.2897 48.4404 28.1309 58.092 26.0408 68.5993C23.9508 79.1066 25.0235 89.9977 29.1232 99.8954C33.223 109.793 40.1656 118.253 49.0733 124.205C57.981 130.157 68.4535 133.333 79.1667 133.333C92.5834 133.333 104.917 128.417 114.417 120.25L116.667 122.583V129.167L158.333 170.75L170.75 158.333L129.167 116.667ZM79.1667 116.667C58.4167 116.667 41.6667 99.9167 41.6667 79.1667C41.6667 58.4167 58.4167 41.6667 79.1667 41.6667C99.9167 41.6667 116.667 58.4167 116.667 79.1667C116.667 99.9167 99.9167 116.667 79.1667 116.667Z" fill="black"/>
</svg>
