<svg width="200" height="200" viewBox="0 0 200 200" fill="none" xmlns="http://www.w3.org/2000/svg">
<path d="M99.9997 27.083C101.657 27.083 103.247 27.7415 104.419 28.9136C105.591 30.0857 106.25 31.6754 106.25 33.333C106.25 34.9906 105.591 36.5803 104.419 37.7524C103.247 38.9245 101.657 39.583 99.9997 39.583C83.9762 39.583 68.609 45.9483 57.2786 57.2786C45.9483 68.609 39.583 83.9762 39.583 99.9997C39.583 116.023 45.9483 131.39 57.2786 142.721C68.609 154.051 83.9762 160.416 99.9997 160.416C101.657 160.416 103.247 161.075 104.419 162.247C105.591 163.419 106.25 165.009 106.25 166.666C106.25 168.324 105.591 169.914 104.419 171.086C103.247 172.258 101.657 172.916 99.9997 172.916C80.661 172.916 62.1143 165.234 48.4398 151.56C34.7653 137.885 27.083 119.338 27.083 99.9997C27.083 80.661 34.7653 62.1143 48.4398 48.4398C62.1143 34.7653 80.661 27.083 99.9997 27.083Z" fill="black"/>
<path d="M137.25 79.417C136.146 78.2322 135.545 76.6652 135.573 75.046C135.602 73.4268 136.258 71.8819 137.403 70.7368C138.548 69.5917 140.093 68.9358 141.712 68.9072C143.331 68.8787 144.898 69.4797 146.083 70.5837L171.083 95.5837C172.253 96.7556 172.911 98.3441 172.911 100C172.911 101.657 172.253 103.245 171.083 104.417L146.083 129.417C145.511 130.031 144.821 130.524 144.054 130.865C143.288 131.207 142.46 131.39 141.621 131.405C140.781 131.42 139.948 131.266 139.17 130.951C138.391 130.637 137.685 130.169 137.091 129.576C136.498 128.982 136.03 128.275 135.715 127.497C135.401 126.719 135.247 125.885 135.261 125.046C135.276 124.207 135.46 123.379 135.801 122.613C136.143 121.846 136.636 121.156 137.25 120.584L151.583 106.25H83.333C81.6754 106.25 80.0857 105.592 78.9136 104.42C77.7415 103.248 77.083 101.658 77.083 100C77.083 98.3427 77.7415 96.753 78.9136 95.5809C80.0857 94.4088 81.6754 93.7504 83.333 93.7504H151.583L137.25 79.417Z" fill="black"/>
</svg>
