<svg width="85" height="77" viewBox="0 0 85 77" fill="none" xmlns="http://www.w3.org/2000/svg">
<path fill-rule="evenodd" clip-rule="evenodd" d="M39.751 56.6039C39.5525 56.4711 39.426 56.3864 39.2248 56.2517C39.236 56.4256 39.2427 56.5324 39.2494 56.6389C39.3937 56.6287 39.5376 56.619 39.751 56.6039M46.8821 57.1495C46.9505 57.4042 47.0044 57.6066 47.0528 57.7868C47.3254 57.7244 47.5894 57.6634 47.8865 57.5949C47.7921 57.3192 48.2985 57.0377 47.8728 56.7066C47.6533 57.099 47.3228 57.2225 46.8821 57.1495M40.6592 55.7679C40.6804 56.1464 40.4561 56.4165 40.059 56.5742C40.4955 56.7826 40.6763 57.458 41.301 57.1702C41.301 56.8985 41.3862 56.5715 41.2772 56.3364C41.1664 56.096 40.8648 55.9462 40.6592 55.7679M32.8372 56.3338C32.285 56.9862 31.8175 57.0287 31.1351 56.5497C30.8257 56.3326 30.4014 56.289 30.2188 55.8759C30.1943 55.8213 29.9864 55.8499 29.8046 55.8352C30.2196 56.1189 30.4156 56.4305 30.3892 56.9184C30.3773 57.1393 30.6175 57.3737 30.754 57.6205C31.4456 57.718 31.7286 57.9283 31.7491 58.3794C31.7647 58.7271 31.5063 59.0691 31.1749 59.1387C30.7168 59.2354 30.4397 59.0284 30.1883 58.3832C29.6621 58.4468 29.2869 58.2556 29.1728 57.6807C29.162 57.6265 29.1125 57.5735 29.0686 57.5336C28.4774 56.9978 28.4346 56.6769 28.8886 56.0064C28.6231 55.9011 28.4048 55.7874 28.101 55.9823C27.6239 56.2879 27.1483 56.0787 26.8363 55.5478C26.6035 55.7957 26.3551 56.0595 26.1026 56.3277C26.354 56.6005 26.3967 56.8176 26.1736 57.0343C25.981 57.2213 25.7631 57.224 25.5641 57.0456C25.3484 56.8526 25.3927 56.5945 25.6887 56.2506C25.1733 56.1095 24.965 55.7303 24.9434 55.284C24.6199 55.284 24.2994 55.3612 24.0469 55.2622C23.794 55.1633 23.6084 54.8882 23.3782 54.676C22.9357 54.9759 22.4898 54.9477 22.2258 54.5511C22.0068 54.223 22.0849 53.7568 22.3976 53.5232C22.7929 53.2282 23.1904 53.3407 23.5965 53.8836C23.6542 53.82 23.7602 53.7542 23.7542 53.7015C23.7118 53.3343 23.9621 53.0047 23.7996 52.5987C23.6311 52.1785 23.9796 51.7518 24.4251 51.6909C24.8345 51.6344 25.2298 51.996 25.2726 52.4317C25.2867 52.5747 25.3771 52.715 25.4518 52.8456C25.5332 52.9874 25.6366 53.1161 25.7288 53.2482C26.3845 53.0619 27.0557 52.8719 27.7433 52.6766C27.728 52.6394 27.6838 52.5291 27.6239 52.3798C27.5235 52.4577 27.4543 52.522 27.3759 52.5702C27.1371 52.7161 26.9043 52.6951 26.7374 52.4686C26.5618 52.2296 26.6091 51.9979 26.8266 51.7883C26.946 51.6732 27.0244 51.5155 27.1386 51.3936C27.3231 51.1984 27.5216 51.017 27.7024 50.8417C27.6511 50.6133 27.5283 50.3416 27.5425 50.0775C27.5811 49.3382 28.3312 48.9002 29.0062 49.1881C29.1218 49.2373 29.2326 49.2975 29.3457 49.3525C29.3613 49.3709 29.3762 49.3901 29.3907 49.4093C29.4643 49.7231 29.6194 50.0436 29.5933 50.3488C29.5483 50.8669 29.2724 51.0543 28.484 51.2864C28.5763 51.6675 28.6689 52.049 28.7659 52.4509C29.101 52.3241 29.3646 52.3553 29.5457 52.6292C29.7317 52.9095 29.6287 53.1428 29.436 53.3904C29.3457 53.5066 29.3672 53.7117 29.3379 53.8765C29.3829 53.896 29.4282 53.9152 29.4732 53.9348C29.5483 53.8042 29.6246 53.6737 29.6986 53.5428C29.7659 53.4239 29.8035 53.2376 29.9016 53.1966C30.2181 53.0642 30.3929 52.7963 30.6186 52.5686C30.9358 52.2481 31.4185 52.2169 31.8108 52.4392C32.1857 52.6514 32.3928 53.0721 32.3337 53.5014C32.2697 53.9634 31.97 54.3001 31.5219 54.3938C31.3761 54.4243 31.224 54.4228 31.0727 54.436C31.0202 54.907 31.0991 54.9759 31.5215 54.8201C31.5925 54.7942 31.6766 54.7419 31.7372 54.7603C32.2095 54.9033 32.3575 54.4457 32.6442 54.2557C32.7015 54.2177 32.6832 54.033 32.6695 53.9198C32.5918 53.2929 33.019 52.6288 33.6319 52.4396C34.263 52.2443 34.9576 52.5322 35.2432 53.1071C35.5255 53.6752 35.5597 53.6842 36.1041 53.3298C36.042 53.2237 35.9706 53.121 35.9185 53.0092C35.7519 52.651 35.8735 52.2157 36.1956 51.9926C36.5236 51.765 36.9654 51.7985 37.232 52.0886C37.3937 52.2643 37.544 52.4535 37.6782 52.6514C37.8679 52.9306 37.8017 53.3339 37.5488 53.5969C37.4811 53.6673 37.4265 53.7508 37.3655 53.8279C37.403 53.8547 37.4406 53.8818 37.4778 53.9088C37.596 53.7042 37.7388 53.51 37.827 53.2929C37.9954 52.8768 38.3368 52.5984 38.7355 52.5991C39.1349 52.5999 39.5201 52.8986 39.6358 53.2978C39.7503 53.6921 39.5956 54.0879 39.2226 54.3622C39.1568 54.4104 39.0973 54.4664 39.0475 54.5515C39.3554 54.3728 39.6938 54.2034 39.9861 54.454C40.2151 54.6504 40.3438 54.9657 40.5298 55.2475C40.5298 55.1482 40.5335 55.024 40.529 54.8999C40.5138 54.4544 40.6409 54.033 40.9741 53.7632C41.4174 53.4039 41.8979 53.0642 42.4125 52.8283C43.028 52.5464 43.7 53.1086 43.6832 53.8046C43.6784 53.9999 43.7037 54.2031 43.7554 54.3916C43.9376 55.0583 43.7781 55.6249 43.3028 56.1095C43.0451 56.3718 43.0592 56.494 43.3984 56.6084C43.8729 56.7687 44.0971 57.1092 44.1488 57.6036C44.495 56.5098 45.3422 56.149 46.4083 56.6524C46.3797 56.2423 46.4753 55.9003 46.8769 55.7235C47.2346 55.5662 47.5109 55.7129 47.7467 55.9462C47.9791 55.7758 48.2045 55.6106 48.4179 55.4541C48.1751 55.2931 47.9356 55.0425 48.1264 54.6982C48.2301 54.5112 48.4878 54.3329 48.6972 54.3035C48.9754 54.2648 49.1914 54.4815 49.2483 54.7799C49.3171 55.1407 49.1163 55.354 48.7749 55.5117C49.1364 55.772 49.3584 56.0757 49.2383 56.5463C49.2208 56.6137 49.4302 56.7405 49.5347 56.8402C49.5722 56.8812 49.6098 56.9222 49.6473 56.9632C49.8515 57.4501 49.8608 57.9065 49.416 58.285C49.7277 58.5374 49.9541 58.7971 49.8355 59.2124C49.75 59.5115 49.5622 59.7012 49.2617 59.7527C48.8433 59.8242 48.5611 59.6214 48.3867 59.2497C47.5875 59.7136 47.1926 59.6229 46.7002 58.8584C46.3109 59.2102 45.8773 59.434 45.3303 59.3569C45.2548 59.3464 45.1674 59.5104 45.0725 59.5307C44.8557 59.577 44.5869 59.6692 44.4221 59.5823C44.2775 59.5055 44.1239 59.1462 44.1867 59.0236C44.3946 58.6183 44.1555 58.2981 44.1098 57.8839C43.8461 58.3516 43.4891 58.6721 43.0176 58.51C42.645 58.3817 42.3389 58.0543 42.0269 57.8324C42.1243 58.6575 41.9726 59.068 41.455 59.3163C40.9611 59.5537 40.545 59.4419 40.0389 58.9366C40.0307 58.9731 40.0225 59.01 40.0143 59.0465C39.7432 58.9923 39.4257 59.0104 39.2126 58.8678C38.8667 58.6356 39.0296 58.2658 39.181 57.9012C39.0467 57.9332 38.9668 57.9528 38.8864 57.9712C38.4142 58.0777 38.0839 57.9012 37.8686 57.4606C37.8036 57.3263 37.6749 57.224 37.5291 57.0531C37.3078 58.1627 36.7348 58.2564 35.9914 57.7928C36.0093 57.9716 35.9966 58.0946 36.0364 58.1966C36.158 58.507 36.1409 58.7835 35.9438 59.0627C35.865 59.1741 35.8743 59.3449 35.8077 59.469C35.7006 59.6677 35.6021 59.9348 35.4288 60.0146C35.2711 60.0868 34.9461 60.0146 34.8278 59.8837C34.6999 59.7418 34.7178 59.4589 34.6884 59.235C34.6716 59.1082 34.6992 58.9761 34.688 58.8478C34.6441 58.3286 34.6713 57.8041 34.6847 57.2902C34.6977 56.8146 35.1971 56.6536 35.9011 56.8534C35.9981 56.4259 36.0937 56.0057 36.1558 55.7336C35.9862 55.3243 35.8706 55.0451 35.7586 54.7738C35.3447 54.8687 34.8914 54.9593 34.4478 55.0846C34.3537 55.1113 34.2514 55.2547 34.2265 55.3615C34.1373 55.7442 33.8684 55.9395 33.5118 55.8439C32.9804 55.7017 32.9804 55.7017 32.8904 56.2299C32.8725 56.2645 32.855 56.2988 32.8372 56.3338" fill="#EE4136"/>
<path fill-rule="evenodd" clip-rule="evenodd" d="M25.6571 37.7708C25.6731 37.7534 25.6895 37.7358 25.7054 37.7181C25.6326 37.6631 25.553 37.6154 25.4875 37.5522C25.3276 37.3983 25.0937 37.2617 25.0364 37.0728C24.9472 36.779 24.8018 36.6988 24.5433 36.7131C24.611 36.9705 24.6746 37.2128 24.723 37.3975C25.0599 37.5322 25.3585 37.6515 25.6571 37.7708M27.007 39.2803C26.6418 39.0921 26.2722 38.9018 25.891 38.7054C25.8743 38.8043 25.8557 38.9138 25.8371 39.0233C25.8668 39.0094 25.8966 38.9958 25.9263 38.9823C26.1305 39.313 26.335 39.6441 26.5351 39.9673C26.6943 39.7359 26.8623 39.491 27.007 39.2803M29.2111 42.1792C28.9184 42.1533 28.5421 42.2357 28.3859 42.0848C27.956 41.6679 27.319 41.8335 26.9587 41.4147C26.7694 41.7168 26.6095 41.9723 26.4589 42.212C26.6738 42.472 26.8969 42.7421 27.1401 43.0367C27.2074 43.0164 27.309 42.9863 27.4116 42.9558C27.3469 42.6003 27.4395 42.329 27.7809 42.2462C28.197 42.1454 28.3606 42.4468 28.4636 42.7858C29.2341 42.4121 29.2341 42.4121 29.2111 42.1792M27.969 31.2319C28.2256 31.4351 28.4253 31.5977 28.6302 31.7527C28.683 31.7926 28.7507 31.823 28.8158 31.8351C29.0326 31.8749 29.2516 31.9047 29.5082 31.9438C30.0947 31.3802 30.7878 31.3 31.307 32.0206C31.6703 32.5247 31.4821 33.2321 30.9466 33.5444C30.3431 33.8958 29.7124 33.635 29.3885 32.9484C29.0746 32.8946 28.7998 32.8088 28.5257 32.8122C28.3037 32.8148 28.0382 32.8652 27.8701 32.9969C27.3346 33.4146 27.21 33.4507 26.6939 33.1531C26.531 33.4424 26.3685 33.7314 26.2484 33.9447C26.5143 34.0135 26.8426 34.047 27.1145 34.19C27.2532 34.2634 27.3469 34.5275 27.364 34.7145C27.4071 35.1957 26.9996 35.4926 26.3722 35.479C26.1372 36.347 26.2845 36.4945 27.271 36.3779C26.898 35.5513 27.1018 35.1577 27.9891 34.9892C27.9597 34.3793 28.2197 33.9974 28.6882 33.9616C29.0735 33.9323 29.4536 34.2747 29.4855 34.6795C29.522 35.1385 29.1802 35.444 28.5588 35.5072C28.6261 36.1281 28.4848 36.3414 27.8686 36.5841C28.0337 36.8392 28.1944 37.1052 28.3759 37.3561C28.4231 37.4216 28.5321 37.4611 28.6183 37.4746C28.9623 37.53 29.2546 37.697 29.2814 38.0507C29.3 38.2967 29.2085 38.6053 29.0571 38.7975C28.8519 39.0568 28.5257 39.0308 28.2189 38.904C28.1189 38.8626 27.9951 38.8792 27.8701 38.9255C28.4175 39.0097 28.9251 39.2208 29.0943 39.7509C29.2933 40.3759 29.3409 41.0505 29.4413 41.6292C29.7827 41.6713 30.0991 41.7138 30.4171 41.7458C30.4855 41.7526 30.561 41.7289 30.6279 41.7044C31.0679 41.5434 31.3914 41.6115 31.6048 41.9302C31.8027 42.2267 31.7978 42.5325 31.5881 42.8211C31.3594 43.1357 31.0362 43.1921 30.6041 43.0108C30.5625 42.9934 30.5186 42.9833 30.4137 42.9502C30.8444 43.6587 30.8641 44.3013 30.3111 44.8784C29.873 45.3352 29.3 45.3841 28.5744 45.0504C28.5432 45.0922 28.5079 45.1388 28.4729 45.1862C28.2044 45.5516 27.8727 45.6595 27.5228 45.4962C27.1584 45.3262 27.0189 44.968 27.123 44.5334C27.1483 44.4277 27.1011 44.3039 27.0747 44.0812C26.8661 44.302 26.7642 44.4311 26.6422 44.5364C26.1402 44.9703 25.4883 44.977 24.9267 44.5936C24.8037 44.5093 24.6147 44.4683 24.4656 44.4871C23.9978 44.5458 23.6903 44.34 23.4783 43.9431C22.8733 44.4412 22.4672 44.5172 22.0042 44.2272C21.6052 43.9773 21.4122 43.4972 21.523 43.0303C21.6223 42.6127 22.0165 42.2684 22.44 42.2304C22.9978 42.18 23.356 42.4317 23.6471 43.095C23.7397 43.0258 23.8275 42.96 23.926 42.8862C23.7077 42.4532 23.7408 42.0848 24.0514 41.6845C24.18 41.5182 24.0726 41.1645 24.0726 40.9753C23.6955 40.9256 23.3429 40.8793 22.9197 40.824C22.5973 41.1592 22.2251 41.2544 21.8778 41.0253C21.5438 40.8048 21.4728 40.4605 21.6539 39.9394C20.9392 39.7844 20.6231 39.3943 20.767 38.8461C20.8793 38.4175 21.3642 38.147 21.7811 38.2802C22.3166 38.4506 22.4761 38.9127 22.2396 39.5752C22.4557 39.6704 22.671 39.7656 22.8915 39.8631C23.5259 39.2652 23.9893 39.3295 24.3738 40.1095C24.5285 39.9865 24.6783 39.8668 24.8892 39.699C24.1625 39.5794 23.7632 39.1888 23.7412 38.4819C22.8472 38.2832 22.5055 37.9081 22.5672 37.2098C22.6204 36.6074 23.0644 36.2789 23.7728 36.2451C23.7323 35.8316 23.6218 35.4064 23.6694 35.0001C23.7223 34.5489 24.0696 34.2626 24.4749 34.05C24.6107 33.9786 24.7337 33.7765 24.7512 33.6211C24.762 33.5278 24.5757 33.3574 24.447 33.3111C23.6092 33.0093 23.3348 32.1289 23.903 31.4423C24.1637 31.1273 23.8911 30.9042 23.8264 30.6499C23.7628 30.4012 23.6419 30.1672 23.5192 29.859C23.514 29.8579 23.3928 29.8695 23.3303 29.8139C23.1626 29.6637 22.9569 29.5091 22.8833 29.3112C22.7866 29.0512 22.9268 28.7897 23.1912 28.6881C23.4776 28.5786 23.4567 28.3664 23.4727 28.2253C23.0863 28.2253 22.7137 28.278 22.3664 28.2054C22.1622 28.1629 21.9588 27.9507 21.8253 27.7633C21.539 27.3626 21.6015 26.7854 21.922 26.4145C22.2441 26.0416 22.7941 25.922 23.2358 26.1293C23.7539 26.372 23.9625 26.8618 23.8513 27.5744C25.1313 27.1478 25.8999 27.7355 25.6671 29.0151C26.2212 28.7758 26.6117 29.0497 26.8858 29.3872C27.158 29.1193 27.3714 28.8499 27.6425 28.6697C27.7612 28.5911 28.0181 28.652 28.1777 28.7254C28.5741 28.909 28.657 29.3183 28.4361 29.8571C28.522 29.9546 28.6131 30.0577 28.6801 30.1337C28.8961 30.0343 29.094 29.9068 29.3085 29.8616C29.4089 29.8406 29.5699 29.9546 29.6551 30.0509C29.8537 30.2759 29.8254 30.5223 29.6242 30.7372C29.3725 31.0054 29.1159 30.9562 28.7001 30.5513C28.631 30.9776 27.908 30.7394 27.969 31.2319" fill="#EE4136"/>
<path fill-rule="evenodd" clip-rule="evenodd" d="M29.2016 25.1762C29.1856 25.151 29.1696 25.1254 29.1536 25.1002C28.9788 25.1909 28.804 25.2812 28.6181 25.3775C28.7215 25.5431 28.7977 25.665 28.8773 25.7925C28.9963 25.5664 29.0989 25.3715 29.2016 25.1762M26.9543 20.8475C27.144 20.8475 27.3359 20.8215 27.517 20.8554C27.6806 20.8855 27.8323 20.9807 28.0331 20.9833C27.9562 20.9197 27.8773 20.8584 27.8029 20.7922C27.5222 20.5424 27.4515 20.1763 27.6207 19.8568C27.7884 19.5397 28.1618 19.3786 28.4898 19.4821C28.8375 19.592 29.055 19.9366 29.0301 20.3102C29.0234 20.408 29.0309 20.5427 29.0896 20.6033C29.5002 21.0258 29.5809 21.2723 29.3934 21.632C29.209 21.986 28.8777 22.0914 28.3094 21.9582C28.2611 22.0756 28.2105 22.1982 28.1596 22.3224C28.3013 22.3818 28.4206 22.4236 28.5318 22.4815C28.6207 22.5282 28.6992 22.5952 28.7929 22.6606C28.9513 22.5756 29.1071 22.4646 29.28 22.4044C29.7642 22.2362 30.28 22.4992 30.4886 22.9925C30.5355 23.1035 30.5879 23.2322 30.6768 23.3025C31.4756 23.9384 31.4324 24.6551 30.5388 25.1766C30.6481 25.3677 30.7582 25.5596 30.8839 25.7794C31.1037 25.6898 31.3551 25.6326 31.5511 25.4949C31.7597 25.3486 31.9162 25.1258 32.1156 24.9147C32.0181 24.3989 32.1074 24.0972 32.4554 23.9519C32.7667 23.8221 33.053 23.8808 33.2687 24.1585C33.4933 24.4478 33.4428 24.7447 33.1356 25.1503C33.2587 25.4362 33.3729 25.7011 33.4997 25.9946C33.6882 25.946 33.8321 25.8734 33.9217 25.6052C34.0374 25.2586 34.275 24.9539 34.4855 24.5874C34.4308 24.394 34.3524 24.1175 34.2984 23.9282C33.9203 23.8947 33.5186 23.9515 33.2137 23.8041C32.9571 23.6795 32.8463 23.2784 32.6098 23.0715C32.3844 22.8743 32.0349 22.8164 31.8248 22.6091C31.6771 22.4635 31.5563 22.1237 31.6239 21.9518C31.8322 21.4254 31.567 21.0277 31.3952 20.5939C30.8054 20.7139 30.4763 20.5932 30.3086 20.1955C30.1394 19.794 30.2845 19.4783 30.8378 19.1074C30.7374 19.0099 30.6139 18.9369 30.5593 18.8278C30.4403 18.5915 30.2792 18.3376 30.2774 18.0892C30.2748 17.7796 30.5225 17.5659 30.8304 17.4869C31.1461 17.4052 31.3975 17.5328 31.599 17.7766C31.6552 17.845 31.6972 17.9274 31.7615 17.9858C32.393 18.5569 32.3558 19.0223 31.6277 19.4535C31.6712 19.5656 31.715 19.6804 31.7679 19.8185C31.8835 19.7669 31.9828 19.7184 32.0847 19.6774C32.4644 19.5246 32.8117 19.6029 33.1029 19.8734C33.3822 20.1334 33.4867 20.4622 33.3799 20.8475C33.2687 21.2497 33.5852 21.8028 33.9827 21.9364C34.526 22.1185 34.7306 22.5421 34.7443 23.0948C35.0084 23.1024 34.9805 22.9714 34.9448 22.781C34.8775 22.4232 35.1195 22.1064 35.4568 22.0613C35.7889 22.0169 36.1162 22.2321 36.1441 22.5673C36.1597 22.7551 36.0689 22.9519 36.0172 23.1836C36.0701 23.2401 36.1545 23.3311 36.2552 23.4391C36.7528 23.0279 37.2649 23.0237 37.7491 23.3736C37.9447 23.1343 38.1258 22.9127 38.2849 22.7178C38.3024 22.3077 38.3203 21.9002 38.3407 21.4262C38.1239 21.3035 37.9049 21.0796 37.9532 20.6895C37.9607 20.6278 37.8874 20.5281 37.8253 20.4897C37.5516 20.3219 37.3872 20.0739 37.562 19.794C37.6661 19.6273 37.9476 19.4663 38.1332 19.4832C38.4846 19.5152 38.6055 19.817 38.572 20.1898C38.9792 20.2662 39.1942 20.5318 39.2064 20.9551C39.45 20.9878 39.6664 21.0168 39.8829 21.0458C39.8899 21.0285 39.8966 21.0108 39.9037 20.9935C39.8126 20.9386 39.7166 20.8904 39.6311 20.8276C39.3009 20.5849 39.2157 20.1454 39.4281 19.8068C39.6426 19.4652 40.0844 19.3324 40.4198 19.56C40.6218 19.6969 40.782 19.6947 41.0044 19.6397C41.9843 19.3986 42.856 20.3309 42.6094 21.3521C42.5626 21.5469 42.6451 21.708 42.6548 21.8675C42.6834 22.3457 42.975 22.7118 43.0672 23.146C43.1553 23.5602 42.9337 23.9463 42.5708 24.1329C42.1993 24.3233 41.8404 24.2947 41.5091 24.0294C41.4406 23.9745 41.377 23.9139 41.3112 23.8556C41.2919 23.8816 41.2722 23.9068 41.2528 23.9327C41.3856 24.0332 41.5087 24.1528 41.6537 24.2311C41.9825 24.4094 42.3056 24.5727 42.3238 25.0265C42.3276 25.1168 42.432 25.2127 42.5075 25.2887C42.8459 25.6304 42.8619 26.095 42.5384 26.4088C42.2249 26.7128 41.7842 26.6869 41.4563 26.3614C41.3551 26.2613 41.2186 26.1962 41.0948 26.1206C41.0528 26.095 40.9899 26.0988 40.9542 26.0679C40.7947 25.9287 40.5831 25.8102 40.4972 25.6319C40.2778 25.1744 39.9732 24.6894 39.9725 24.2149C39.9721 23.8029 40.3079 23.3672 40.5649 22.9906C40.6578 22.8544 40.9535 22.8597 41.1747 22.8661C41.3294 22.7017 41.4841 22.5372 41.6136 22.3995C41.3068 22.3649 40.9624 22.3258 40.5645 22.2806C40.4656 22.7528 40.1752 23.1411 39.646 23.2871C39.7401 24.2834 38.9506 24.8376 38.1139 24.3334C37.7829 25.148 37.404 25.358 36.5739 25.1691C36.3746 25.5679 35.8945 25.7109 35.7209 26.1823C35.6097 26.4841 35.249 26.5687 34.9068 26.5589C34.8053 26.5559 34.6335 26.6173 34.6093 26.6891C34.4859 27.0518 34.2557 27.2576 33.8797 27.2257C33.5004 27.1937 33.3201 26.9201 33.2394 26.5401C32.7745 26.9867 32.2896 27.0597 31.7705 26.6669C31.7269 26.6338 31.6522 26.6237 31.5953 26.6304C31.1055 26.6865 31.1059 26.6884 30.7835 26.4205C30.685 26.5315 30.5857 26.6432 30.5548 26.6778C30.6838 27.0706 30.8635 27.4014 30.8791 27.74C30.8899 27.9661 30.7136 28.2502 30.5396 28.4251C30.1595 28.8074 29.5563 28.757 29.1796 28.3664C28.7501 27.921 28.788 27.398 29.2927 26.805C29.161 26.5951 29.029 26.3851 28.9096 26.1955C28.8598 26.3148 28.8066 26.4784 28.7256 26.6263C28.64 26.7824 28.5285 26.9235 28.4258 27.0748C28.7237 27.3984 28.7654 27.6764 28.4931 27.9341C28.241 28.173 27.9677 28.1234 27.6226 27.7769C27.1559 28.3352 26.6914 28.4654 26.2162 28.1719C25.6944 27.8502 25.6286 27.3784 26.0128 26.5322C25.9079 26.5954 25.8391 26.6421 25.7662 26.6808C25.4799 26.8306 25.2047 26.8088 24.9507 26.6082C24.6937 26.4054 24.6405 26.1334 24.6896 25.8185C24.7317 25.5483 24.7476 25.2737 24.7737 25.0141C24.0872 24.8399 24.0894 24.8395 24.0032 24.2104C23.9935 24.1393 23.944 24.0731 23.9094 24.0069C23.6755 23.5618 23.7343 23.0899 24.0641 22.7792C24.3869 22.4748 24.8811 22.4251 25.2556 22.6603C25.6576 22.912 25.8019 23.3635 25.6405 23.8616C25.6286 23.8981 25.6178 23.935 25.6007 23.9907C25.8171 24.043 26.0321 24.0953 26.2712 24.1536C26.3887 23.774 26.6059 23.5068 27.0581 23.6107C27.0923 23.3439 27.125 23.0884 27.1585 22.8262C26.3266 22.4146 26.1727 22.0714 26.446 21.2919C26.2243 21.15 26.0284 20.9747 25.7997 20.8949C25.6342 20.8373 25.365 20.8355 25.2493 20.9355C25.0373 21.1192 24.8254 21.2742 24.5814 21.1395C24.4211 21.0511 24.2742 20.8343 24.2341 20.65C24.172 20.3644 24.3795 20.1936 24.629 20.0713C24.722 20.0258 24.8031 19.9152 24.8477 19.8151C24.9775 19.5216 25.1898 19.2842 25.4981 19.3211C25.7431 19.3504 25.9733 19.5389 26.1998 19.6751C26.2872 19.7278 26.33 19.8655 26.4188 19.9054C26.9413 20.1405 27.0324 20.285 26.9543 20.8475" fill="#EE4136"/>
<path fill-rule="evenodd" clip-rule="evenodd" d="M50.9003 22.3147C50.7021 22.4166 50.5433 22.4983 50.3842 22.5799C50.3976 22.6032 50.411 22.6266 50.424 22.6499C50.6441 22.6747 50.8639 22.6988 51.1145 22.727C51.0454 22.5938 50.984 22.4757 50.9003 22.3147M50.3604 24.8137C50.1774 24.5466 49.8773 24.5737 49.5757 24.6391C49.5043 24.6549 49.3861 24.7497 49.3935 24.7847C49.4166 24.8897 49.4913 24.9834 49.5456 25.0812L49.5739 24.9582C49.8372 24.9096 50.1008 24.8615 50.3604 24.8137M53.7452 23.2542C53.1665 23.5932 52.669 23.2843 52.1227 23.0224C52.2365 23.3926 52.1792 23.6925 51.8408 23.8791C51.9948 24.0477 52.1372 24.2034 52.2796 24.3596C52.753 23.5044 53.1937 23.3828 54.0073 23.8753C54.0501 23.9013 54.1263 23.8704 54.2111 23.8644C54.0482 23.6511 53.9129 23.4735 53.7452 23.2542M48.7145 22.0588C49.1276 22.0013 49.337 21.7755 49.3779 21.3428C49.4114 20.9906 49.6401 20.7514 49.961 20.596C50.1004 20.5282 50.2012 20.374 50.3425 20.3183C50.8449 20.12 51.347 19.8973 51.8706 19.7931C52.0446 19.7584 52.2826 20.0519 52.5206 20.2156C52.9813 19.9718 53.155 19.9921 53.5834 20.3977C53.8664 20.2182 54.2003 20.0782 54.4216 20.4443C54.5142 20.5975 54.5042 20.9135 54.4052 21.0655C54.1966 21.3868 53.8835 21.28 53.602 21.0994C53.4692 21.2021 53.3413 21.3014 53.2669 21.3586C53.5577 21.5524 53.872 21.7616 54.2636 22.0223C54.5198 21.9606 54.9028 21.8613 55.2892 21.7763C55.6666 21.6931 55.9816 22.0788 55.8793 22.487C55.844 22.6285 55.815 22.7718 55.77 22.972C56.2642 22.9328 56.625 23.0634 56.7949 23.513C57.0645 23.4701 57.2612 23.4193 57.3791 23.1101C57.4624 22.8918 57.6483 22.7406 57.6011 22.4475C57.5412 22.0754 57.7268 21.7394 58.06 21.5983C58.378 21.4636 58.5643 21.2721 58.6673 20.9568C58.6974 20.865 58.7747 20.789 58.8681 20.6498C58.0336 20.7092 57.4263 20.453 57.2954 19.5782C57.2144 19.0342 57.5383 18.5225 58.0284 18.3204C58.5278 18.1146 59.0868 18.2655 59.4237 18.6967C59.8019 19.1801 59.7606 19.6979 59.2887 20.4045C60.1042 20.295 60.6375 20.5862 60.8412 21.2521C61.0558 21.9535 60.5516 22.7319 59.8283 22.782C59.5999 22.7978 59.4084 22.8136 59.3054 23.0499C59.2905 23.083 59.2612 23.1206 59.2296 23.1334C58.9566 23.2432 58.5996 23.2756 58.4289 23.4735C58.2326 23.7011 58.102 23.899 57.7726 23.9638C57.5833 24.001 57.4308 24.2546 57.2765 24.4247C57.2475 24.457 57.2891 24.5548 57.2925 24.5789C57.6153 24.4021 57.9109 24.1538 58.2433 24.0838C58.5661 24.0157 58.9265 24.1308 59.2381 24.162C59.2783 23.9194 59.2771 23.5879 59.3939 23.3065C59.5274 22.9855 59.8312 22.8275 60.1934 22.8234C60.81 22.8158 61.1532 23.2071 61.2105 24.0149C61.4876 24.0717 61.7267 24.1143 61.9639 23.8302C62.2361 23.5044 62.7244 23.501 63.0714 23.744C63.4202 23.9882 63.5444 24.4183 63.3908 24.8276C63.348 24.9424 63.2904 25.065 63.2934 25.1824C63.3105 25.8315 63.0416 26.2382 62.5277 26.3104C62.0335 26.38 61.6415 26.0561 61.5009 25.4631C60.9093 25.2471 60.8632 25.2024 60.7338 24.7381H59.7301C59.7572 25.1079 59.906 25.319 60.3864 25.2942C60.8888 25.2678 61.2934 25.7321 61.376 26.2811C61.4519 26.7856 61.1417 27.3097 60.6538 27.5001C60.1548 27.6954 59.5817 27.5125 59.285 27.0584C59.2165 26.9538 59.1634 26.8383 59.1541 26.8214C58.6115 26.7661 58.1388 26.7179 57.6394 26.6667C57.6205 26.7901 57.5885 26.9971 57.5517 27.2375C57.941 27.245 58.2549 27.353 58.3307 27.7947C58.3374 27.8323 58.4754 27.8557 58.555 27.8696C58.8722 27.9249 59.0522 28.1115 59.0693 28.4351C59.0871 28.7643 58.906 28.9724 58.6067 29.0487C58.2909 29.1296 58.0808 28.9569 57.9261 28.6894C57.8767 28.6044 57.8042 28.4814 57.7298 28.4712C57.3784 28.4234 57.1988 28.209 57.1058 27.8903C55.7581 28.4456 54.9441 27.958 54.8437 26.5155C54.6529 26.5697 54.4692 26.649 54.2788 26.6709C53.8274 26.7224 53.377 26.3868 53.2762 25.915C53.2312 25.7043 53.1446 25.608 52.9453 25.5143C52.7069 25.4025 52.5187 25.1824 52.2595 24.9687C52.2595 25.1847 52.2845 25.4097 52.2517 25.626C52.2276 25.7856 52.1666 25.985 52.0517 26.0715C51.9531 26.146 51.7333 26.1332 51.6054 26.0741C51.3429 25.9526 51.1034 25.7792 50.8602 25.6181C50.7449 25.5421 50.6426 25.4462 50.5735 25.3905C50.3247 25.5237 50.0912 25.6486 49.7672 25.822C49.5821 26.3996 49.2187 26.7262 48.7137 26.6727C48.1351 26.6114 47.8677 26.2619 47.7841 25.465C47.7376 25.6719 47.7457 25.9312 47.6253 26.0922C47.4962 26.2653 47.2593 26.4071 47.0463 26.4538C46.7075 26.5283 46.384 26.2566 46.2884 25.9048C46.1761 25.4925 46.3486 25.2027 46.8027 24.9646C46.5 24.8931 46.1486 24.8054 45.7942 24.7309C45.7451 24.7208 45.6815 24.7723 45.6268 24.7994C45.1623 25.0304 44.7633 24.9405 44.545 24.5556C44.3301 24.1756 44.4662 23.7591 44.8931 23.4882C44.934 23.4626 44.9734 23.4348 45.1081 23.3437C44.9273 23.3132 44.8344 23.2756 44.7477 23.2865C44.0958 23.3682 43.5176 22.9787 43.4164 22.3798C43.3056 21.7225 43.6994 21.1193 44.3182 20.9986C44.9563 20.874 45.5193 21.2901 45.6651 21.9783C45.6845 22.0686 45.7618 22.1864 45.8403 22.2165C46.2378 22.3692 46.3962 22.6725 46.4208 23.0969C46.8101 23.1695 47.1191 23.3527 47.2657 23.758C47.2895 23.8238 47.4137 23.8878 47.494 23.8915C47.838 23.9081 48.1939 24.083 48.5248 23.8272C48.5657 23.7956 48.6446 23.814 48.7234 23.8084C48.5866 23.624 48.4605 23.4547 48.3348 23.2854C47.5784 23.4792 46.9075 23.3208 46.7506 22.911C46.6071 22.5348 46.8983 21.7992 47.2798 21.5757C47.7837 21.28 48.2519 21.4388 48.7145 22.0588" fill="#EE4136"/>
<path fill-rule="evenodd" clip-rule="evenodd" d="M58.8499 35.1762C59.1213 35.2021 59.356 35.216 59.588 35.2492C59.8699 35.2898 59.9439 35.1449 59.9279 34.897C59.9063 34.5606 59.8885 34.2243 59.8666 33.8416C59.4694 33.7336 59.2734 33.3886 59.237 32.9604C58.9729 32.9924 58.7331 33.0214 58.4917 33.0511C58.4181 33.7246 58.3039 33.8345 57.581 33.95C57.5323 33.9575 57.4951 34.0399 57.4133 34.1325C58.3378 34.0805 58.6301 34.3108 58.8499 35.1762M60.3098 40.073C59.8468 40.4105 59.5538 40.3247 59.3761 39.7841C59.3761 39.9526 59.3787 40.0866 59.3757 40.2201C59.3645 40.6916 59.025 41.017 58.562 40.9629C58.2764 40.9297 57.9875 40.8665 57.7186 40.7657C57.1396 40.5482 56.8589 39.906 57.024 39.2863C57.0545 39.1727 57.0522 39.0105 56.9924 38.9195C56.8042 38.6316 56.7514 38.3517 56.9719 38.0725C57.1865 37.8005 57.4672 37.7407 57.7852 37.8859C57.8291 37.9058 57.877 37.9179 57.9023 37.9265C58.1031 37.7403 58.2868 37.5698 58.4006 37.4641C58.2411 36.9995 58.0938 36.5698 57.9321 36.0983C57.1604 35.9753 56.9961 35.8451 56.7875 35.1193C56.2107 35.2243 55.6934 35.14 55.4156 34.5392C55.1772 34.0245 55.3662 33.5986 55.7046 33.2833C55.6224 32.9221 55.442 32.5755 55.5052 32.2828C55.5722 31.9709 55.9039 31.7271 56.0563 31.4216C56.2036 31.1274 56.1965 30.7334 56.3877 30.487C56.7637 30.002 57.5141 30.0434 57.928 30.4998C58.3292 30.9426 58.2865 31.5958 57.8391 32.0055C57.7473 32.0898 57.6855 32.2083 57.61 32.311C57.7339 32.3746 57.8573 32.4386 57.9882 32.5059C58.1541 31.6737 58.4003 31.46 59.1012 31.5536C59.0469 31.1571 59.1626 30.8523 59.5984 30.7884C59.6721 30.7774 59.749 30.7624 59.8212 30.7726C60.337 30.8474 61.0458 31.6835 61.0387 32.1571C61.289 32.2508 61.588 32.2783 61.7401 32.4439C61.8936 32.6102 61.8698 32.93 61.9825 33.1519C62.0554 33.2953 62.2201 33.456 62.3674 33.4846C63.0412 33.6162 63.1595 33.6708 63.5712 34.231C64.1799 33.9011 64.531 33.9082 64.8054 34.2562C65.0412 34.5557 65.0263 34.9508 64.7682 35.2364C64.48 35.5554 64.1044 35.5532 63.6128 35.227C63.4652 35.394 63.3361 35.5863 63.164 35.7236C62.7991 36.0141 62.3849 36.0603 61.9509 35.8831C61.5232 35.7089 61.3195 35.7609 61.0275 36.11C60.9714 36.1774 60.9041 36.2669 60.8297 36.2812C60.4363 36.3561 60.3786 36.6578 60.3537 36.8557C60.5664 37.1582 60.7892 37.3644 60.8691 37.6165C60.9662 37.9258 60.7873 38.2144 60.4831 38.3156C60.2578 38.3904 60.205 38.5041 60.1737 38.7136C60.1447 38.9089 60.0484 39.0944 59.9815 39.2837L60.0558 39.3604C60.1179 39.2916 60.1934 39.2302 60.2403 39.152C60.5798 38.5865 61.3068 38.5481 61.6493 39.0809C61.8564 39.4026 61.8297 39.7867 61.5801 40.073C61.3269 40.3635 60.919 40.4414 60.5817 40.2578C60.4932 40.2096 60.4143 40.1449 60.3098 40.073" fill="#EE4136"/>
<path fill-rule="evenodd" clip-rule="evenodd" d="M49.6472 56.9633C49.6097 56.9223 49.5721 56.8812 49.5345 56.8402C49.3014 56.172 49.5334 55.7442 50.1965 55.6607C50.5334 55.6182 50.4676 55.5034 50.3103 55.3025C49.78 54.6268 50.05 53.7663 50.8506 53.5548C51.3738 53.4171 51.9235 53.746 52.0923 54.2912C52.1284 54.4074 52.1644 54.5455 52.247 54.6223C52.7308 55.0707 52.7029 55.3582 52.1046 55.6946C52.122 55.8214 52.1406 55.9564 52.1548 56.0591C52.4582 56.1419 52.7334 56.2172 53.0279 56.2973C53.1644 55.9444 53.3931 55.6393 53.8393 55.6645C54.2231 55.6863 54.4492 55.9354 54.5518 56.3011C54.8493 56.2198 55.1402 56.1404 55.486 56.046C54.9453 55.836 54.5489 55.5474 54.762 54.9135C54.8709 54.5888 55.2208 54.3894 55.5421 54.4281C55.9404 54.4766 56.1583 54.7551 56.2242 55.2987C56.4402 55.4515 56.6053 55.4188 56.8106 55.231C57.1423 54.9274 57.4603 54.988 57.9195 55.368L57.9084 55.3563C58.0672 55.7179 57.9128 56.2168 58.374 56.4459L58.3632 56.4297C58.5956 57.2526 58.3918 57.6958 57.673 57.9314C58.1702 58.1379 58.3546 58.4694 58.1839 58.8524C58.0039 59.2576 57.6202 59.3299 57.1271 59.0511C56.6689 59.4454 56.268 59.4826 55.9653 59.159C55.7169 58.8934 55.7047 58.4984 55.9363 58.2173C56.219 57.8749 56.586 57.8715 57.0527 58.2184C57.1557 58.1424 57.2632 58.0627 57.4034 57.9588C56.8147 57.8125 56.531 57.4403 56.5079 56.8726C56.2364 56.8064 56.2015 56.9422 56.1918 57.1593C56.1699 57.6552 55.8337 58.0751 55.3871 58.0574C54.9427 58.0393 54.5719 58.121 54.2532 58.4506C54.3678 59.0213 54.235 59.3679 53.8349 59.5011C53.4972 59.6132 53.1317 59.4567 52.9718 59.1312C52.7855 58.7504 52.9212 58.4434 53.3715 58.1232C53.3923 57.7553 53.4098 57.4407 53.4277 57.1258C53.2406 57.8324 52.8026 58.1985 52.0599 58.0649C51.7401 58.7565 51.491 58.9389 51.0388 58.8295C50.7275 58.7542 50.4739 58.4227 50.4769 58.0954C50.4806 57.6796 50.771 57.4148 51.3671 57.3004C51.3738 57.171 51.3805 57.0351 51.3872 56.8989C51.0886 56.8331 50.8476 56.8037 50.5821 57.0355C50.2976 57.2846 49.9432 57.2097 49.6472 56.9633" fill="#EE4136"/>
<path fill-rule="evenodd" clip-rule="evenodd" d="M59.2214 50.9543C58.4981 50.8305 58.1853 50.5292 58.1954 49.981C58.2032 49.5246 58.5308 49.1615 58.9863 49.1032C59.4846 49.0396 59.8327 49.3376 60.0268 50.0013C60.5724 49.9825 60.9733 50.195 61.1711 50.7421C61.1982 50.8181 61.2953 50.8926 61.376 50.9212C62.3391 51.2598 62.518 51.8968 61.8739 52.7385C61.9591 52.9439 62.0461 53.1531 62.1023 53.2878C62.4492 53.2878 62.7794 53.2442 63.09 53.3051C63.2588 53.3382 63.4291 53.5252 63.5366 53.6855C63.7805 54.0478 63.7188 54.4933 63.425 54.8109C63.0974 55.1649 62.6686 55.1867 62.1179 54.8974C61.9022 55.0678 61.6995 55.2285 61.5006 55.3854C61.5541 55.6623 61.6136 55.9723 61.678 56.3068C62.1365 56.1902 62.569 56.3143 62.827 56.811C63.081 57.2994 62.8408 57.9345 62.3157 58.091C62.0372 58.1738 61.7776 58.2441 61.5575 58.4488C61.4738 58.5267 61.328 58.5361 61.2105 58.5771C61.1588 59.2916 60.9654 59.5764 60.5103 59.608C60.1284 59.6351 59.7918 59.3943 59.7193 59.0429C59.6241 58.5812 59.8535 58.2701 60.4504 58.0586C60.4668 57.8494 60.4839 57.6365 60.5013 57.4096C60.1856 57.2166 60.0425 56.9619 60.266 56.5913C60.2968 56.5397 60.2916 56.4487 60.2715 56.3858C60.0584 55.7157 60.1481 55.5005 60.7598 55.189C60.6932 54.8831 60.6282 54.5851 60.556 54.2563C60.4374 54.3296 60.3273 54.406 60.2102 54.4677C59.8156 54.6758 59.327 54.5825 59.0369 54.2491C58.755 53.9252 58.7156 53.4391 58.9413 53.0745C59.1808 52.6869 59.6256 52.5259 60.0581 52.6546C60.2061 52.6986 60.4608 52.9059 60.4872 52.6508C60.5088 52.4454 60.3147 52.0921 60.1287 52.0123C59.4973 51.7403 59.3344 51.6112 59.2214 50.9543" fill="#EE4136"/>
<path fill-rule="evenodd" clip-rule="evenodd" d="M58.531 46.2036C58.7526 46.0783 58.9486 45.9681 59.1691 45.8435C59.1423 45.6739 59.1111 45.4786 59.0955 45.3815C58.7151 45.231 58.3882 45.0974 58.058 44.9733C57.9828 44.9454 57.8951 44.9368 57.8151 44.9428C57.338 44.9786 57.0096 44.7355 56.9847 44.3209C56.9591 43.8927 57.2253 43.6357 57.7251 43.6049C57.7731 43.6019 57.8203 43.5898 57.8932 43.5778C57.8542 43.4675 57.8185 43.3757 57.788 43.2824C57.6597 42.8892 57.7616 42.4968 58.0922 42.259C58.2588 42.139 58.3912 42.0333 58.3502 41.8064C58.3458 41.7827 58.3469 41.7515 58.3592 41.7315C58.4436 41.5931 58.502 41.4147 58.6239 41.3271C59.0126 41.0471 59.3993 40.7318 59.8374 40.5652C60.1605 40.4421 60.5198 40.8063 60.58 41.1675C60.6406 41.5291 60.4324 41.8813 60.0787 42.0156C59.7377 42.1447 59.5752 42.5284 59.5053 42.8467C59.387 43.3874 59.8433 43.7208 59.8474 44.1888C60.8972 44.3096 61.2988 44.6023 61.3423 45.2637C61.3825 45.8785 61.0218 46.3041 60.2672 46.5091C60.3401 47.0957 60.2215 47.6044 59.5849 47.8106C59.0319 47.9897 58.6738 47.6868 58.4112 47.3034C58.1007 47.341 57.8226 47.3745 57.486 47.4151C57.348 47.7094 57.1056 48.0141 56.6828 48.0928C55.8583 48.2455 55.2362 47.5581 55.4065 46.7131C55.4322 46.5863 55.3838 46.3981 55.299 46.3018C54.8974 45.8469 54.836 45.3364 55.1614 44.8736C55.4634 44.4439 55.9952 44.2885 56.4675 44.4917C56.9591 44.7035 57.2004 45.219 57.0903 45.7912C57.0654 45.9218 57.0866 46.0618 57.0866 46.2668C57.846 45.7852 58.0066 45.7852 58.531 46.2036" fill="#EE4136"/>
<path fill-rule="evenodd" clip-rule="evenodd" d="M29.3905 49.4095C29.376 49.3899 29.3612 49.3707 29.3455 49.3527C29.2102 49.0314 29.0745 48.71 28.9175 48.3372C28.7089 48.2491 28.5051 48.2766 28.2991 48.5584C28.0284 48.9294 27.613 48.9998 27.176 48.8854C27.044 49.0513 26.9191 49.2082 26.7945 49.3643C27.1418 49.9005 27.1548 50.2158 26.8447 50.5326C26.5863 50.7971 26.2174 50.8381 25.9113 50.6368C25.5558 50.4035 25.4967 50.0563 25.722 49.4644C25.6354 49.4031 25.545 49.3395 25.5171 49.3199C25.1876 49.4366 24.9165 49.5916 24.6328 49.6202C24.1044 49.6736 23.6314 49.2556 23.5581 48.7469C23.4767 48.1758 23.7715 47.6949 24.2929 47.5177C24.4372 47.4688 24.6005 47.3992 24.6945 47.2871C25.0352 46.8815 25.3911 46.8777 25.719 47.3089C25.7626 47.3657 25.7867 47.4372 25.8771 47.4812C25.7904 46.7479 25.9054 46.1534 26.6558 45.9273C27.1935 45.7652 27.5977 46.0108 27.9261 46.5827C28.2392 46.4537 28.5323 46.2667 28.8465 46.2185C29.305 46.1482 29.6721 46.3957 29.8308 46.8299C29.9338 47.1114 30.0711 47.1467 30.3284 47.1302C31.0383 47.0839 31.6251 47.5437 31.7657 48.2217C31.904 48.8903 31.5221 49.5848 30.8654 49.7997C30.3039 49.9829 29.7959 49.873 29.3905 49.4095" fill="#EE4136"/>
<path fill-rule="evenodd" clip-rule="evenodd" d="M61.606 42.0624C61.1121 41.4916 61.0597 40.9893 61.4342 40.5446C61.77 40.1458 62.3363 40.0645 62.7651 40.3542C63.2456 40.6782 63.3304 41.2181 63.0039 41.872C63.6174 42.6828 63.5327 43.2077 62.7015 43.7491C63.3095 43.7826 63.694 44.1001 63.7602 44.6246C63.816 45.0626 63.5319 45.5039 63.0927 45.6623C62.6535 45.8203 62.1564 45.6239 61.9295 45.2022C61.6818 44.742 61.8258 44.2683 62.3523 43.8104C61.371 43.4327 61.1527 42.9349 61.606 42.0624" fill="#EE4136"/>
<path fill-rule="evenodd" clip-rule="evenodd" d="M62.4307 48.2668C62.5218 48.6171 62.6382 48.9102 62.662 49.2108C62.678 49.4139 62.6237 49.6946 62.4898 49.8184C62.3578 49.9407 62.0852 49.9452 61.8774 49.9351C61.6751 49.9253 61.4798 49.8143 61.2764 49.7778C60.7789 49.6882 60.3884 49.2213 60.4126 48.7217C60.4382 48.1934 60.8811 47.7141 61.3939 47.6727C61.5791 47.6576 61.7666 47.6704 61.9525 47.6704C61.9056 46.758 62.3192 46.2083 63.0581 46.2151C63.64 46.2207 64.0963 46.717 64.0413 47.2855C63.9695 48.026 63.3753 48.4173 62.4307 48.2668" fill="#EE4136"/>
<path fill-rule="evenodd" clip-rule="evenodd" d="M46.3258 54.0834C46.4411 54.1199 46.5489 54.1477 46.652 54.188C47.0562 54.3464 47.2458 54.7535 47.1012 55.1448C46.9476 55.5605 46.5188 55.772 46.1183 55.5827C45.9134 55.486 45.7714 55.489 45.5676 55.5835C45.2753 55.7189 44.9726 55.6599 44.7227 55.4356C44.4583 55.1982 44.4181 54.8983 44.4798 54.5612C44.5044 54.4273 44.5252 54.2614 44.4702 54.1492C44.2065 53.6146 44.256 53.1074 44.6383 52.7477C44.9882 52.4192 45.4876 52.3605 45.8985 52.6002C46.3489 52.8628 46.5214 53.3553 46.3645 53.9284C46.3511 53.9762 46.3403 54.0247 46.3258 54.0834" fill="#EE4136"/>
<path fill-rule="evenodd" clip-rule="evenodd" d="M57.7685 51.8702C57.8436 52.1449 57.963 52.4165 57.9831 52.6949C58.0155 53.143 58.0274 53.6024 57.9623 54.0445C57.9035 54.44 57.509 54.7037 57.1051 54.7346C56.7336 54.7628 56.3487 54.5423 56.1784 54.1898C55.994 53.8082 56.0181 53.4177 56.3093 53.1242C56.5867 52.8443 56.5689 52.6765 56.2944 52.412C55.9999 52.129 55.9835 51.5477 56.1944 51.2396C56.4 50.939 56.7909 50.8336 57.2089 50.9661C57.6257 51.0981 57.8615 51.4146 57.8608 51.8408L57.7685 51.8702Z" fill="#EE4136"/>
<path fill-rule="evenodd" clip-rule="evenodd" d="M24.4991 58.843C24.0592 59.3427 23.626 59.4413 23.2653 59.132C22.9012 58.8197 22.9343 58.3611 23.3568 57.8686C22.9752 57.1036 23.1448 56.6822 23.9272 56.4155C24.0224 56.3831 24.086 56.2642 24.1801 56.218C24.2742 56.1721 24.4095 56.1198 24.4872 56.1566C24.585 56.2022 24.691 56.3278 24.7081 56.4332C24.7546 56.7187 24.7565 57.0115 24.7769 57.3177C25.308 57.3279 25.7449 57.475 25.82 58.0006C25.855 58.2486 25.7349 58.5864 25.5683 58.7821C25.2704 59.1324 24.8651 59.0327 24.4991 58.843" fill="#EE4136"/>
<path fill-rule="evenodd" clip-rule="evenodd" d="M33.0964 60.376C32.5932 60.3711 32.1894 60.0321 32.076 59.5212C31.9785 59.0817 32.2098 58.5813 32.6483 58.3822C32.8543 58.2886 32.9491 58.1821 32.996 57.9545C33.07 57.5978 33.3251 57.3795 33.6891 57.3483C34.0357 57.319 34.3083 57.4762 34.4504 57.8013C34.5961 58.1339 34.5326 58.4345 34.2912 58.7194C34.1968 58.8311 34.1399 59.02 34.1492 59.169C34.1919 59.8744 33.7617 60.3828 33.0964 60.376" fill="#EE4136"/>
<path fill-rule="evenodd" clip-rule="evenodd" d="M54.3491 54.3966C54.3628 54.5222 54.3822 54.6231 54.3833 54.7235C54.387 55.0475 54.2323 55.2589 53.9169 55.3221C53.583 55.3891 53.3361 55.239 53.2409 54.9226C53.1788 54.7164 53.1085 54.5903 52.9021 54.4869C52.5083 54.289 52.4968 53.8036 52.8318 53.4962C52.9367 53.4006 53.039 53.2829 53.094 53.1538C53.2862 52.7016 53.654 52.4228 54.0664 52.4472C54.4692 52.4713 54.8589 52.7806 54.9623 53.1576C55.0872 53.6132 54.9203 54.0245 54.4963 54.304C54.4543 54.3315 54.4115 54.3574 54.3491 54.3966" fill="#EE4136"/>
<path fill-rule="evenodd" clip-rule="evenodd" d="M35.5128 20.0557C35.2633 20.286 34.9896 20.4399 34.6839 20.1742C34.4582 19.9782 34.3968 19.7179 34.546 19.4515C34.7326 19.1177 35.0223 19.0681 35.3734 19.2573C35.6054 18.4292 36.2796 18.43 36.9033 18.4059C37.0546 18.3999 37.3179 18.6256 37.3514 18.7836C37.4198 19.1102 37.4343 19.4801 37.3532 19.8014C37.1866 20.4609 36.3276 20.7085 35.778 20.2943C35.6883 20.2265 35.6095 20.1434 35.5128 20.0557" fill="#EE4136"/>
<path fill-rule="evenodd" clip-rule="evenodd" d="M62.4367 29.8618C61.928 29.8633 61.5171 29.5326 61.3817 29.0416C61.3453 28.9114 61.2646 28.7707 61.1623 28.6868C60.9206 28.4881 60.8407 28.2549 60.9835 27.9828C61.1318 27.6995 61.3825 27.6811 61.6696 27.7639C61.796 27.8004 61.947 27.7842 62.0794 27.7563C62.5152 27.6642 62.9075 27.7135 63.2229 28.0641C63.5081 28.3813 63.5817 28.8539 63.3977 29.2403C63.205 29.6444 62.8845 29.8566 62.4367 29.8618" fill="#EE4136"/>
<path fill-rule="evenodd" clip-rule="evenodd" d="M62.1912 20.3443C61.5498 20.3496 61.0671 19.8639 61.0674 19.2145C61.0678 18.5929 61.549 18.0895 62.1559 18.0752C62.7695 18.0609 63.3009 18.5771 63.3117 19.1979C63.3225 19.8259 62.8205 20.3394 62.1912 20.3443" fill="#EE4136"/>
<path fill-rule="evenodd" clip-rule="evenodd" d="M21.1999 32.9336C21.198 32.3245 21.6781 31.8244 22.269 31.8203C22.8477 31.8158 23.3601 32.3305 23.3642 32.9201C23.3687 33.5134 22.87 34.024 22.282 34.0289C21.6867 34.0341 21.2018 33.5431 21.1999 32.9336" fill="#EE4136"/>
<path fill-rule="evenodd" clip-rule="evenodd" d="M49.7533 53.0864C49.1535 53.0894 48.6559 52.5938 48.6637 52.0016C48.6715 51.4297 49.1676 50.9282 49.7347 50.9199C50.3186 50.9109 50.8139 51.4177 50.8105 52.0204C50.8072 52.6168 50.3446 53.0833 49.7533 53.0864" fill="#EE4136"/>
<path fill-rule="evenodd" clip-rule="evenodd" d="M61.9614 32.1526C61.3667 32.1481 60.9171 31.6883 60.9157 31.0829C60.9145 30.4742 61.4035 29.9768 61.9911 29.9896C62.5679 30.0024 63.0443 30.4919 63.0469 31.075C63.0498 31.6823 62.5716 32.1575 61.9614 32.1526" fill="#EE4136"/>
<path fill-rule="evenodd" clip-rule="evenodd" d="M62.7125 38.9861C62.1068 38.9823 61.6668 38.5334 61.6713 37.9232C61.6754 37.3264 62.1492 36.8535 62.7304 36.8663C63.2837 36.8779 63.759 37.3633 63.7661 37.9235C63.7735 38.5109 63.2986 38.9898 62.7125 38.9861" fill="#EE4136"/>
<path fill-rule="evenodd" clip-rule="evenodd" d="M57.9196 55.3679C57.917 55.1907 57.8824 55.0063 57.9181 54.8374C57.9914 54.4897 58.3874 54.2365 58.7239 54.2884C59.1062 54.3471 59.3911 54.6628 59.368 55.0575C59.355 55.2772 59.3937 55.4138 59.577 55.5594C59.9184 55.8307 59.9188 56.3326 59.6194 56.6426C59.3375 56.9342 58.8649 56.9402 58.5652 56.6532C58.493 56.5835 58.4305 56.5045 58.3632 56.4297L58.374 56.4462C58.4127 55.9981 58.2974 55.6173 57.9084 55.3566L57.9196 55.3679Z" fill="#EE4136"/>
<path fill-rule="evenodd" clip-rule="evenodd" d="M28.6194 58.2484C29.0411 58.6013 29.1311 58.8575 28.9447 59.1645C28.7755 59.4437 28.5193 59.5182 28.2241 59.426C27.9187 59.3308 27.8001 59.0385 27.8652 58.6062C27.2724 58.2359 27.1021 57.8898 27.3055 57.4665C27.4732 57.1177 27.8775 56.9526 28.2296 57.0888C28.6781 57.263 28.809 57.6388 28.6194 58.2484" fill="#EE4136"/>
<path fill-rule="evenodd" clip-rule="evenodd" d="M23.9238 46.3119C23.6006 46.9206 23.1771 47.0956 22.752 46.8262C22.3946 46.6001 22.2924 46.0989 22.5337 45.7531C22.8111 45.3555 23.2652 45.337 23.7687 45.7136C23.9811 45.4582 24.2566 45.2975 24.5311 45.5643C24.6467 45.6771 24.6995 45.9736 24.6385 46.1298C24.5158 46.4451 24.2265 46.4594 23.9238 46.3119" fill="#EE4136"/>
<path fill-rule="evenodd" clip-rule="evenodd" d="M57.4123 21.752C57.3985 22.1508 57.2364 22.3698 56.946 22.4582C56.6418 22.5511 56.3766 22.4582 56.1836 22.188C56.0553 22.0082 55.9293 21.8257 55.7887 21.656C55.5466 21.3629 55.5671 20.9483 55.8475 20.6962C56.126 20.446 56.5525 20.4663 56.792 20.7564C56.972 20.9743 57.1427 21.2015 57.2967 21.4386C57.3684 21.5495 57.3915 21.6929 57.4123 21.752" fill="#EE4136"/>
<path fill-rule="evenodd" clip-rule="evenodd" d="M34.0372 20.17C34.4957 20.378 34.8862 20.5045 35.2182 20.7216C35.4886 20.8984 35.4681 21.2859 35.2517 21.5361C35.036 21.7852 34.6593 21.8134 34.3998 21.6114C34.2168 21.4695 33.9885 21.3721 33.8438 21.2005C33.7133 21.0455 33.5723 20.7927 33.6125 20.6264C33.6571 20.4416 33.9011 20.3058 34.0372 20.17" fill="#EE4136"/>
<path fill-rule="evenodd" clip-rule="evenodd" d="M42.927 60.0817C42.9296 60.5072 42.6195 60.8281 42.1974 60.8364C41.7434 60.8454 41.4288 60.5411 41.4265 60.0911C41.4247 59.6599 41.7307 59.3386 42.1513 59.3299C42.5883 59.3205 42.9244 59.6463 42.927 60.0817" fill="#EE4136"/>
<path fill-rule="evenodd" clip-rule="evenodd" d="M68.5852 41.7357C68.1724 41.7289 67.8318 41.3801 67.8433 40.9749C67.8548 40.5663 68.2074 40.2281 68.6134 40.236C69.0206 40.2439 69.362 40.5983 69.3535 41.0043C69.3449 41.4181 69.0039 41.7425 68.5852 41.7357" fill="#EE4136"/>
<path fill-rule="evenodd" clip-rule="evenodd" d="M57.8604 49.071C57.8671 49.4943 57.5484 49.8393 57.1397 49.8514C56.7407 49.863 56.3867 49.5169 56.3781 49.1064C56.3692 48.688 56.6938 48.3422 57.1044 48.3317C57.5175 48.3216 57.8541 48.6504 57.8604 49.071" fill="#EE4136"/>
<path fill-rule="evenodd" clip-rule="evenodd" d="M19.9915 49.5302C19.9974 49.1095 20.3355 48.7777 20.746 48.7882C21.1558 48.7991 21.4823 49.1471 21.4738 49.564C21.4652 49.9738 21.1105 50.3218 20.7125 50.3105C20.3039 50.2988 19.9852 49.9538 19.9915 49.5302" fill="#EE4136"/>
<path fill-rule="evenodd" clip-rule="evenodd" d="M30.7014 37.1546C30.289 37.1564 29.9428 36.8186 29.939 36.4107C29.9357 36.0142 30.2938 35.6466 30.6884 35.6424C31.0833 35.6383 31.444 35.9965 31.4485 36.3979C31.4529 36.8099 31.1149 37.1527 30.7014 37.1546" fill="#EE4136"/>
<path fill-rule="evenodd" clip-rule="evenodd" d="M47.6229 21.1082C47.2034 21.1142 46.8635 20.7903 46.8546 20.376C46.846 19.9738 47.1926 19.6141 47.5957 19.607C47.9981 19.5998 48.3551 19.9437 48.3659 20.3486C48.3763 20.7538 48.0353 21.1022 47.6229 21.1082" fill="#EE4136"/>
<path fill-rule="evenodd" clip-rule="evenodd" d="M22.3856 23.7245C22.3856 24.1662 22.0609 24.4856 21.6188 24.48C21.19 24.474 20.8944 24.167 20.8936 23.7268C20.8932 23.282 21.1826 22.9814 21.6162 22.9761C22.065 22.9709 22.3856 23.2824 22.3856 23.7245" fill="#EE4136"/>
<path fill-rule="evenodd" clip-rule="evenodd" d="M30.2388 40.3597C29.8227 40.3578 29.4825 40.0188 29.4858 39.6102C29.4888 39.2076 29.8435 38.8562 30.2455 38.8573C30.6479 38.8588 30.9997 39.214 30.9978 39.6169C30.996 40.0289 30.6561 40.3615 30.2388 40.3597" fill="#EE4136"/>
<path fill-rule="evenodd" clip-rule="evenodd" d="M53.9347 61.9236C53.934 62.351 53.6138 62.6734 53.1921 62.6716C52.7804 62.6701 52.4409 62.3295 52.4424 61.9194C52.4439 61.509 52.7849 61.1707 53.1965 61.1711C53.6179 61.1718 53.9355 61.4958 53.9347 61.9236" fill="#EE4136"/>
<path fill-rule="evenodd" clip-rule="evenodd" d="M30.5285 45.1344C30.9505 45.1269 31.2878 45.4471 31.2979 45.8643C31.3079 46.2654 30.9609 46.6292 30.5597 46.6379C30.1611 46.6462 29.8003 46.2996 29.7881 45.8956C29.7754 45.49 30.1138 45.1419 30.5285 45.1344" fill="#EE4136"/>
<path fill-rule="evenodd" clip-rule="evenodd" d="M21.8049 51.6886C21.8031 51.2653 22.1296 50.9233 22.5386 50.9207C22.9354 50.918 23.2887 51.2758 23.2906 51.6814C23.2924 52.087 22.944 52.4467 22.5457 52.4505C22.1419 52.4543 21.8068 52.11 21.8049 51.6886" fill="#EE4136"/>
<path fill-rule="evenodd" clip-rule="evenodd" d="M44.1489 13.6573C44.1411 13.2412 44.4702 12.8864 44.8748 12.8755C45.2634 12.8649 45.6341 13.225 45.6449 13.6231C45.6557 14.0185 45.3032 14.3925 44.9082 14.4045C44.5059 14.4166 44.1571 14.0731 44.1489 13.6573" fill="#EE4136"/>
<path fill-rule="evenodd" clip-rule="evenodd" d="M43.2479 25.3919C43.2531 24.963 43.5729 24.6522 44.0009 24.6597C44.4148 24.6673 44.7491 25.0119 44.7383 25.4209C44.7279 25.8284 44.375 26.1696 43.9723 26.1621C43.5602 26.1549 43.2427 25.8171 43.2479 25.3919" fill="#EE4136"/>
<path fill-rule="evenodd" clip-rule="evenodd" d="M59.4062 28.6196C59.4036 28.1899 59.7197 27.8637 60.1395 27.863C60.556 27.8622 60.8874 28.1929 60.8892 28.611C60.8911 29.0214 60.5512 29.3725 60.1473 29.3774C59.742 29.3819 59.4088 29.0414 59.4062 28.6196" fill="#EE4136"/>
<path fill-rule="evenodd" clip-rule="evenodd" d="M64.3722 21.7196C63.9497 21.7196 63.6269 21.3957 63.6281 20.9724C63.6288 20.554 63.9616 20.2188 64.3744 20.2195C64.7805 20.2207 65.1274 20.5687 65.1271 20.9751C65.1267 21.3855 64.7883 21.7193 64.3722 21.7196" fill="#EE4136"/>
<path fill-rule="evenodd" clip-rule="evenodd" d="M25.0979 18.8164C24.6754 18.8123 24.3604 18.4849 24.3682 18.0575C24.3757 17.6406 24.7182 17.3013 25.122 17.3099C25.5196 17.3186 25.8684 17.682 25.8624 18.082C25.8561 18.4936 25.5158 18.8202 25.0979 18.8164" fill="#EE4136"/>
<path fill-rule="evenodd" clip-rule="evenodd" d="M51.5315 18.5099C51.1161 18.5076 50.7773 18.1702 50.7796 17.7612C50.7814 17.3623 51.1399 17.0034 51.5363 17.0038C51.9383 17.0042 52.2827 17.3563 52.2819 17.7661C52.2808 18.1893 51.955 18.5125 51.5315 18.5099" fill="#EE4136"/>
<path fill-rule="evenodd" clip-rule="evenodd" d="M62.1246 16.2306C62.1283 15.8126 62.4664 15.4683 62.8684 15.4732C63.2637 15.4781 63.6154 15.8412 63.6132 16.2419C63.6117 16.6509 63.2666 16.9917 62.8568 16.9898C62.4366 16.988 62.1209 16.6606 62.1246 16.2306" fill="#EE4136"/>
<path fill-rule="evenodd" clip-rule="evenodd" d="M60.2834 17.7488C59.8613 17.7439 59.5516 17.4192 59.5571 16.9877C59.5623 16.5701 59.903 16.2295 60.3068 16.2386C60.7107 16.2472 61.0461 16.6009 61.0409 17.0118C61.035 17.4302 60.7025 17.7537 60.2834 17.7488" fill="#EE4136"/>
<path fill-rule="evenodd" clip-rule="evenodd" d="M39.1377 19.2744C38.7153 19.268 38.4044 18.9418 38.4114 18.5125C38.4181 18.096 38.7595 17.7604 39.1671 17.769C39.5747 17.7781 39.9012 18.1246 39.8945 18.5422C39.8878 18.9662 39.5628 19.2808 39.1377 19.2744" fill="#EE4136"/>
<path fill-rule="evenodd" clip-rule="evenodd" d="M38.5314 59.0093C38.5355 59.4431 38.2268 59.761 37.7999 59.7633C37.376 59.7655 37.0521 59.4472 37.0487 59.0247C37.0454 58.6078 37.376 58.2651 37.785 58.2605C38.196 58.256 38.5277 58.5883 38.5314 59.0093" fill="#EE4136"/>
<path fill-rule="evenodd" clip-rule="evenodd" d="M19.5174 60.2228C19.0927 60.2216 18.7774 59.9011 18.7792 59.4722C18.7807 59.053 19.1121 58.7182 19.5241 58.72C19.935 58.7219 20.2638 59.0598 20.2626 59.4789C20.2612 59.906 19.9425 60.2239 19.5174 60.2228" fill="#EE4136"/>
<path fill-rule="evenodd" clip-rule="evenodd" d="M56.6651 41.7675C57.0861 41.766 57.4062 42.0876 57.4077 42.5139C57.4089 42.9406 57.0905 43.2668 56.6714 43.2683C56.256 43.2694 55.9255 42.9387 55.9236 42.5203C55.9217 42.1012 56.249 41.769 56.6651 41.7675" fill="#EE4136"/>
<path fill-rule="evenodd" clip-rule="evenodd" d="M62.8529 59.1919C62.8585 59.6671 62.7098 59.8958 62.3754 59.9128C62.0828 59.9278 61.892 59.7863 61.8336 59.4947C61.7659 59.1561 61.9471 58.9567 62.403 58.845C62.4558 58.3314 62.6049 58.1214 62.9266 58.1094C63.1835 58.1 63.4353 58.334 63.4591 58.6045C63.4847 58.8988 63.2869 59.0903 62.8529 59.1919" fill="#EE4136"/>
<path fill-rule="evenodd" clip-rule="evenodd" d="M63.8503 61.4491C63.4546 61.4498 63.133 61.1454 63.1348 60.7718C63.1371 60.4061 63.4706 60.0931 63.8555 60.0961C64.2464 60.0999 64.523 60.3711 64.5312 60.759C64.5394 61.1695 64.2646 61.4483 63.8503 61.4491" fill="#EE4136"/>
<path fill-rule="evenodd" clip-rule="evenodd" d="M39.0792 25.4235C39.4607 25.4246 39.7445 25.7124 39.743 26.0966C39.7415 26.4709 39.4407 26.7765 39.0744 26.7749C38.7073 26.7738 38.4106 26.4676 38.4117 26.0913C38.4128 25.7057 38.6958 25.4223 39.0792 25.4235" fill="#EE4136"/>
<path fill-rule="evenodd" clip-rule="evenodd" d="M55.8958 18.7605C55.895 19.1499 55.6161 19.4295 55.2294 19.4272C54.853 19.4257 54.5578 19.1281 54.5615 18.7534C54.5648 18.388 54.8772 18.075 55.2372 18.0754C55.6053 18.0761 55.8961 18.3786 55.8958 18.7605" fill="#EE4136"/>
<path fill-rule="evenodd" clip-rule="evenodd" d="M63.2541 62.5508C63.6244 62.5572 63.9242 62.8668 63.916 63.2348C63.9082 63.5986 63.5887 63.9049 63.2269 63.8962C62.8472 63.8872 62.5713 63.5941 62.5776 63.2069C62.5843 62.8194 62.8677 62.5444 63.2541 62.5508" fill="#EE4136"/>
<path fill-rule="evenodd" clip-rule="evenodd" d="M37.6758 21.7475C37.6758 22.0692 37.3932 22.3518 37.0652 22.3567C36.729 22.3619 36.4531 22.1001 36.4438 21.7671C36.4345 21.4176 36.7137 21.135 37.0648 21.1391C37.3932 21.1433 37.6754 21.4243 37.6758 21.7475" fill="#EE4136"/>
<path fill-rule="evenodd" clip-rule="evenodd" d="M24.6408 50.1609C24.9592 50.1515 25.2533 50.4382 25.257 50.7617C25.2604 51.0812 24.9692 51.3799 24.6546 51.3795C24.3482 51.3792 24.0808 51.1124 24.0689 50.7948C24.0559 50.4536 24.311 50.1707 24.6408 50.1609" fill="#EE4136"/>
<path fill-rule="evenodd" clip-rule="evenodd" d="M25.8658 50.9222C26.1826 50.9233 26.4734 51.2239 26.4667 51.5426C26.46 51.8624 26.158 52.154 25.8453 52.1427C25.5389 52.1318 25.276 51.856 25.2711 51.5411C25.2659 51.2096 25.5437 50.9211 25.8658 50.9222" fill="#EE4136"/>
<path fill-rule="evenodd" clip-rule="evenodd" d="M25.5516 45.1348C25.8867 45.1299 26.1645 45.3974 26.1645 45.7259C26.1648 46.0483 25.8774 46.3339 25.5557 46.3312C25.2422 46.3286 24.9827 46.0697 24.9708 45.7484C24.9577 45.4027 25.2069 45.14 25.5516 45.1348" fill="#EE4136"/>
<path fill-rule="evenodd" clip-rule="evenodd" d="M61.5138 20.5262C61.8425 20.5334 62.1099 20.8159 62.0995 21.1455C62.0891 21.4792 61.8135 21.7325 61.4751 21.7193C61.1516 21.7069 60.9158 21.4567 60.9166 21.1256C60.9169 20.7836 61.1806 20.5191 61.5138 20.5262" fill="#EE4136"/>
<path fill-rule="evenodd" clip-rule="evenodd" d="M35.8821 55.7864C35.8743 56.1077 35.6386 56.3301 35.3162 56.3195C35.0049 56.3101 34.7665 56.0562 34.7792 55.7476C34.7914 55.4485 35.0629 55.1897 35.3541 55.2002C35.6508 55.2111 35.89 55.476 35.8821 55.7864" fill="#EE4136"/>
<path fill-rule="evenodd" clip-rule="evenodd" d="M32.8371 56.3337C32.8549 56.2991 32.8728 56.2644 32.8903 56.2298C33.0866 56.1455 33.2885 55.9819 33.4786 55.9947C33.7638 56.0139 33.9296 56.2464 33.9163 56.5579C33.904 56.8491 33.7519 57.0327 33.4652 57.076C33.1465 57.1238 32.9301 56.9737 32.8367 56.6689C32.8055 56.5669 32.8352 56.4458 32.8371 56.3337" fill="#EE4136"/>
<path fill-rule="evenodd" clip-rule="evenodd" d="M58.1565 60.6006C57.8468 60.6097 57.5987 60.3753 57.5902 60.0645C57.5816 59.759 57.823 59.4967 58.122 59.487C58.418 59.4775 58.6816 59.7285 58.6913 60.0287C58.7013 60.3339 58.46 60.5916 58.1565 60.6006" fill="#EE4136"/>
<path fill-rule="evenodd" clip-rule="evenodd" d="M51.8318 61.3781C51.8359 61.6475 51.6046 61.8932 51.3353 61.9045C51.0468 61.9173 50.7861 61.6776 50.7813 61.3958C50.7764 61.1196 51.0393 60.8604 51.3186 60.8661C51.5897 60.8713 51.8277 61.1087 51.8318 61.3781" fill="#EE4136"/>
<path fill-rule="evenodd" clip-rule="evenodd" d="M66.0489 61.1742C66.3095 61.1644 66.5416 61.3823 66.5479 61.643C66.5539 61.8989 66.3252 62.1385 66.0675 62.131C65.7848 62.1227 65.6246 61.9598 65.5959 61.6825C65.5688 61.4173 65.7867 61.184 66.0489 61.1742" fill="#EE4136"/>
<path fill-rule="evenodd" clip-rule="evenodd" d="M39.7511 56.6039C39.5376 56.619 39.3937 56.6288 39.2494 56.6389C39.2427 56.5324 39.236 56.4256 39.2249 56.2518C39.426 56.3865 39.5525 56.4711 39.7511 56.6039" fill="#EE4136"/>
</svg>
