<svg width="200" height="200" viewBox="0 0 200 200" fill="none" xmlns="http://www.w3.org/2000/svg">
<path d="M177.083 62.5499V117.608C177.085 121.947 176.233 126.244 174.573 130.253C172.914 134.263 170.481 137.906 167.413 140.974C164.346 144.043 160.703 146.477 156.694 148.137C152.686 149.797 148.389 150.651 144.05 150.65H122.025L103.858 168.817C103.363 169.341 102.765 169.76 102.103 170.045C101.44 170.331 100.726 170.479 100.004 170.479C99.2823 170.479 98.5682 170.331 97.9054 170.045C97.2427 169.76 96.6453 169.341 96.1499 168.817L77.9832 150.65H55.9415C51.6028 150.65 47.3066 149.795 43.2983 148.135C39.29 146.474 35.648 144.04 32.5805 140.972C29.513 137.903 27.0799 134.261 25.4203 130.252C23.7607 126.243 22.9071 121.947 22.9082 117.608V62.5499C22.9082 53.7889 26.3885 45.3868 32.5834 39.1918C38.7784 32.9969 47.1806 29.5166 55.9415 29.5166H144.042C152.803 29.5166 161.205 32.9969 167.4 39.1918C173.595 45.3868 177.083 53.7889 177.083 62.5499Z" stroke="black" stroke-width="8" stroke-linecap="round" stroke-linejoin="round"/>
</svg>
