<svg width="200" height="200" viewBox="0 0 200 200" fill="none" xmlns="http://www.w3.org/2000/svg">
<path d="M182.334 126.225C175.106 146.724 160.32 163.689 141 173.65C121.68 183.61 99.285 185.815 78.3936 179.812C57.5021 173.81 39.6926 160.054 28.6063 141.357C17.52 122.66 13.9945 100.435 18.7504 79.2245C22.0357 65.1599 28.8236 52.1542 38.4832 41.4164C48.1428 30.6787 60.3605 22.5575 74.0004 17.8079C76.664 16.8145 79.5578 16.6119 82.3338 17.2245C85.1098 17.7511 87.6808 19.051 89.7504 20.9746C91.774 22.9077 93.2199 25.3657 93.9263 28.0736C94.6327 30.7815 94.5718 33.6326 93.7504 36.3079C89.9328 47.6567 89.7 59.9055 93.0838 71.3912C95.5139 79.9288 100.079 87.7066 106.349 93.9907C112.618 100.275 120.385 104.858 128.917 107.308C140.369 110.729 152.603 110.496 163.917 106.641C166.641 105.868 169.527 105.868 172.25 106.641C174.958 107.367 177.408 108.837 179.323 110.884C181.238 112.931 182.541 115.474 183.084 118.225C183.566 120.91 183.307 123.676 182.334 126.225Z" fill="black"/>
</svg>
