<svg width="200" height="200" viewBox="0 0 200 200" fill="none" xmlns="http://www.w3.org/2000/svg">
<g clip-path="url(#clip0_309_251)">
<path d="M14.8828 80.7038C6.44531 82.9694 0 91.2897 0 100.001C0 106.915 4.41406 114.298 10.5078 117.54C18.3203 121.68 27.7344 120.313 33.9062 114.141C37.9688 110.079 39.8438 105.587 39.8438 100.001C39.8438 94.4147 37.9688 89.9225 33.9062 85.86C29.0234 80.9772 21.4844 78.9069 14.8828 80.7038Z" fill="black"/>
<path d="M95.0392 80.6644C88.0471 82.5394 82.5002 88.2034 80.6642 95.1956C77.9689 105.586 84.5705 116.563 95.1955 119.336C105.586 122.032 116.563 115.43 119.336 104.805C122.031 94.4144 115.43 83.4378 104.805 80.6644C102.031 79.9222 97.7346 79.9612 95.0392 80.6644Z" fill="black"/>
<path d="M175.196 80.6258C168.516 82.3054 162.461 88.2429 160.742 94.8054C158.946 101.759 160.938 108.985 166.094 114.141C175.625 123.673 191.758 120.977 197.735 108.907C200.781 102.774 200.781 97.2273 197.735 91.0945C193.672 82.8523 184.102 78.3992 175.196 80.6258Z" fill="black"/>
</g>
<defs>
<clipPath id="clip0_309_251">
<rect width="200" height="200" fill="black"/>
</clipPath>
</defs>
</svg>
