<svg width="200" height="200" viewBox="0 0 200 200" fill="none" xmlns="http://www.w3.org/2000/svg">
<g clip-path="url(#clip0_309_248)">
<path d="M13.281 0.429779C8.63259 1.32822 3.71072 5.23447 1.71853 9.5704C-2.53928 18.7892 1.95291 29.1017 11.6795 32.5001C13.3592 33.086 14.6482 33.2423 17.3045 33.1251L20.781 33.0079L25.2342 42.3438C27.6951 47.5001 29.6873 51.836 29.6873 51.9923C29.6873 52.1876 28.6326 53.0079 27.3826 53.9063C16.6795 61.172 10.1951 73.3595 10.156 86.3282C10.156 99.297 15.2732 109.727 26.0545 118.75L27.6951 120.117L24.6873 125.469C22.4607 129.492 21.5232 130.781 21.0935 130.625C20.781 130.469 19.2576 130.274 17.7732 130.195C9.17947 129.57 1.75759 135.547 0.312282 144.258C-0.781468 150.938 2.92947 158.242 8.98416 161.328C18.242 166.016 29.1795 161.524 32.4217 151.719C33.1248 149.609 33.281 148.516 33.1248 145.742C32.9295 141.797 31.8357 139.063 29.2576 136.094C28.4373 135.117 27.7342 134.18 27.7342 133.945C27.7342 133.32 33.5545 123.242 33.867 123.32C34.0232 123.359 35.4685 123.867 37.031 124.375C44.0623 126.836 52.8123 127.227 59.7654 125.43C63.3592 124.492 69.2185 121.875 71.992 119.961C72.9295 119.336 73.867 118.75 74.0623 118.672C74.492 118.516 87.1092 132.188 87.1092 132.774C87.1092 133.008 86.6013 133.75 85.9763 134.453C79.8435 141.524 76.0154 153.32 76.7967 162.891L77.0701 165.938L75.5467 166.367C73.1248 166.992 62.2654 169.531 61.992 169.531C61.8748 169.531 61.1326 168.555 60.3123 167.383C57.4217 162.969 53.0467 160.508 47.7342 160.234C41.5623 159.922 36.9138 162.07 33.3201 166.953C25.9763 176.914 31.8748 190.977 44.2576 193.047C53.0857 194.492 61.5623 188.203 63.0076 179.063C63.4373 176.211 63.4763 176.133 64.8435 175.781C68.0857 174.922 77.8513 172.656 78.3201 172.656C78.5935 172.656 79.0623 173.32 79.2967 174.141C79.5701 174.922 80.4685 176.914 81.3279 178.516C91.0935 196.875 112.617 204.727 131.797 196.914C143.554 192.109 152.422 181.797 155.586 169.141C156.211 166.563 156.406 164.609 156.406 160.352C156.406 153.438 155.312 148.164 152.851 143.203C152.304 142.149 152.031 141.172 152.226 141.016C152.617 140.625 169.726 129.453 170.742 128.867C171.328 128.555 171.836 128.75 173.281 129.844C175.937 131.875 178.945 132.93 182.695 133.125C187.656 133.359 191.64 131.758 195.234 128.125C204.57 118.633 199.101 102.5 185.781 100.313C177.773 98.9845 170.078 103.906 167.383 112.031C166.719 114.063 166.719 115.117 167.265 121.797C167.383 123.047 167.265 123.125 157.812 129.297L148.242 135.508L146.289 133.32C143.867 130.586 139.453 127.031 136.133 125.195C134.726 124.414 133.594 123.594 133.594 123.359C133.594 122.852 149.258 79.1798 149.609 78.8282C149.726 78.672 150.429 78.711 151.172 78.9063C151.914 79.1407 154.297 79.4923 156.445 79.7267C168.164 80.9376 180.429 76.3673 188.75 67.6563C203.554 52.1095 203.711 28.3204 189.062 12.7345C173.906 -3.43741 148.984 -4.21866 132.656 10.9376C130.351 13.047 126.758 17.7345 125 20.8204C124.062 22.461 123.554 23.0079 123.086 22.8517C122.734 22.7345 120.429 21.9142 117.969 20.9767L113.476 19.297L113.398 17.5782C113.203 14.3751 112.422 11.172 111.328 8.98447C108.203 2.89072 100.82 -0.859283 94.1404 0.312592C87.4607 1.52353 82.2654 6.17197 80.6248 12.5001C78.5545 20.4688 82.8513 28.9845 90.5467 32.1095C92.3826 32.8517 93.5154 33.0079 96.8748 33.0079C100.742 33.0079 101.172 32.9298 103.554 31.7579C106.054 30.5079 108.984 28.086 110.234 26.2501L110.82 25.3907L116.054 27.3438C118.906 28.4376 121.289 29.3751 121.367 29.4532C121.445 29.5313 121.211 30.7813 120.82 32.2657C119.804 36.3673 119.922 44.4923 121.054 48.9454C121.562 50.8595 121.875 52.461 121.797 52.5392C121.523 52.7735 85.4295 68.0079 85.3513 67.8907C85.3123 67.8126 84.4529 66.4845 83.4373 64.961C75.9763 53.5548 63.5935 46.836 49.9998 46.836C45.5467 46.836 41.1326 47.5001 37.8123 48.672C36.9138 48.9845 36.0545 49.1017 35.8982 48.9454C35.5467 48.5938 26.9529 30.586 26.9529 30.2345C26.9529 30.0782 27.7732 29.1017 28.7888 27.9688C31.5623 24.8829 32.9295 21.6407 33.1248 17.5392C33.242 15.0001 33.1248 13.6329 32.617 12.0704C29.8045 3.55478 21.8748 -1.24991 13.281 0.429779ZM20.9763 7.77353C24.3748 9.49228 26.2107 12.3438 26.4842 16.2501C26.7576 20.3126 24.6873 23.7501 20.8982 25.6251C16.0935 27.9298 10.2732 25.8985 7.77322 21.0157C4.37478 14.3751 9.80447 6.25009 17.2263 6.79697C18.3982 6.87509 20.117 7.30478 20.9763 7.77353ZM101.015 7.73447C107.109 10.8595 108.437 18.8673 103.633 23.672C101.445 25.8595 100.156 26.3673 96.6795 26.3673C93.9842 26.3673 93.3201 26.211 91.7576 25.3126C84.1013 20.8204 85.5076 9.80478 94.1404 6.99228C95.7029 6.48447 99.3357 6.87509 101.015 7.73447ZM168.281 7.77353C178.047 10.3517 185.937 16.9923 190.195 26.2501C192.5 31.2501 193.164 34.4532 193.125 40.4298C193.086 44.7657 192.929 46.0157 192.031 49.0235C190.859 52.9298 188.554 57.5782 186.562 60.0782L185.195 61.7579L184.023 59.4923C181.914 55.2735 177.773 51.172 173.554 49.1017L171.914 48.3204L173.008 46.9142C182.226 35.1954 172.187 18.0079 157.539 20.3126C148.906 21.6798 142.695 29.5704 143.476 38.086C143.789 41.172 144.609 43.3595 146.445 46.0548L147.969 48.2813L145.898 49.3751C141.992 51.4063 138.125 55.3126 136.015 59.2579C135.429 60.3907 134.804 61.2892 134.57 61.211C133.828 60.9767 130.508 55.7032 129.297 52.8126C127.578 48.711 126.875 45.0001 126.875 40.0392C126.836 34.961 127.578 31.211 129.375 27.0313C133.984 16.3673 143.203 9.14072 154.961 7.03134C157.812 6.48447 165.039 6.91415 168.281 7.77353ZM164.062 27.5782C170.078 30.1173 171.797 38.672 167.265 43.5157C163.437 47.6173 155.898 47.3829 152.344 43.047C148.476 38.3595 149.492 32.1485 154.804 28.1251C156.836 26.6017 161.094 26.3673 164.062 27.5782ZM56.7967 54.1017C68.5935 56.5235 78.0467 65.1563 81.8748 76.9532C82.8513 79.961 82.9685 80.8204 82.9685 86.3282C83.0076 91.5235 82.8904 92.8126 82.1092 95.4688C81.0545 99.1407 78.242 104.766 76.406 106.875L75.117 108.399L73.8279 105.859C72.2263 102.617 67.1092 97.461 64.1795 96.1329C63.0467 95.586 62.1092 95.0392 62.1092 94.8829C62.1092 94.7267 62.5388 94.0626 63.0857 93.4376C63.6326 92.7735 64.5701 91.211 65.156 89.961C66.0935 87.9298 66.2107 87.2657 66.2107 83.3985C66.2107 79.1798 66.1717 78.9845 64.7654 76.1329C60.4685 67.461 50.0388 64.2188 41.7576 68.9063C35.8982 72.2657 32.4607 79.3751 33.5935 85.8985C34.1404 89.0235 34.7654 90.586 36.5232 93.0079C38.0467 95.1563 38.1248 95.3126 37.3435 95.3126C36.2888 95.3126 30.8592 99.2579 29.0623 101.367C28.0857 102.539 26.7185 104.57 26.0154 105.859L24.7263 108.281L23.4763 106.758C21.6795 104.57 18.906 99.0235 17.8904 95.4688C17.1092 92.8126 16.992 91.5235 17.031 86.3282C17.031 80.8204 17.1482 79.961 18.1248 76.9532C21.9138 65.2735 31.3279 56.6407 42.9685 54.1407C46.367 53.3985 53.281 53.3595 56.7967 54.1017ZM169.687 54.6485C171.328 55.3126 172.734 56.3282 174.609 58.1642C177.265 60.7813 178.476 62.6563 179.219 65.3517C179.609 66.797 179.609 66.797 177.89 68.0079C172.969 71.3673 166.719 73.2032 159.961 73.1642C153.554 73.1642 148.515 71.836 143.281 68.711C140.156 66.8751 140.078 66.5626 141.758 63.0079C143.75 58.7892 147.109 55.8595 151.758 54.2188C153.398 53.6329 154.844 53.5157 160.547 53.6329C166.679 53.711 167.617 53.8282 169.687 54.6485ZM126.758 62.1095C130.078 67.1876 136.836 73.2032 141.992 75.6642C142.969 76.1329 143.32 76.5235 143.125 76.9142C143.008 77.2657 139.492 86.9532 135.351 98.4376C131.211 109.922 127.617 119.805 127.422 120.352L126.992 121.406L124.531 120.899C114.453 118.828 103.906 120.781 95.3904 126.289C93.8279 127.305 92.4607 128.125 92.3826 128.125C92.3045 128.125 89.2967 124.922 85.742 121.055L79.2967 113.945L80.2732 112.734C82.3435 110.234 85.5076 105.156 86.6795 102.422C88.7888 97.6563 89.531 94.1407 89.7263 88.086C89.9217 82.9688 89.531 79.5313 88.242 74.6876C88.1248 74.297 93.7888 71.7188 106.25 66.4063C116.25 62.1876 124.531 58.7892 124.648 58.9454C124.765 59.0626 125.742 60.5079 126.758 62.1095ZM53.906 74.2579C56.2498 75.3126 57.7342 76.7579 58.8279 79.1017C61.4842 84.6485 58.3201 91.4454 52.4607 92.9298C50.2732 93.5157 49.3357 93.4767 46.9138 92.7345C41.6795 91.211 38.7888 85.2735 40.5857 79.922C42.3045 74.8438 48.9842 72.0313 53.906 74.2579ZM57.1482 100.586C60.4685 101.445 62.3826 102.578 64.9217 105.117C67.2263 107.383 68.9842 110.508 69.2185 112.656C69.3357 113.672 69.1013 113.906 66.1326 115.625C60.3904 118.906 54.9607 120.195 48.0467 119.805C43.1638 119.492 40.3513 118.828 36.0154 116.797C32.031 114.922 30.4685 113.828 30.4685 112.93C30.4685 112.539 31.0935 110.977 31.8357 109.492C34.0623 105.039 38.1248 101.68 42.7732 100.547C45.6248 99.8438 54.4138 99.8829 57.1482 100.586ZM186.875 107.422C192.265 109.453 194.804 115.938 192.226 121.016C190.508 124.375 187.656 126.211 183.75 126.484C179.726 126.758 176.289 124.727 174.453 121.016C171.758 115.625 174.453 109.297 180.351 107.188C182.461 106.445 184.414 106.524 186.875 107.422ZM125 127.774C134.648 130.234 142.578 136.914 146.836 146.172C149.14 151.133 149.804 154.375 149.765 160.352C149.765 166.172 148.945 169.766 146.64 174.336C145.429 176.719 142.304 181.641 141.953 181.641C141.914 181.641 141.25 180.547 140.586 179.219C138.867 175.977 133.789 170.899 130.742 169.414L128.515 168.32L129.844 166.563C132.148 163.555 132.969 160.899 132.969 156.641C132.969 152.188 132.031 149.414 129.531 146.367C124.023 139.531 114.492 138.164 107.148 143.086C104.726 144.727 102.265 147.813 101.133 150.664C100.39 152.461 100.234 153.672 100.234 156.641C100.234 160.899 101.054 163.555 103.359 166.563L104.687 168.32L102.461 169.414C99.492 170.859 94.2967 175.977 92.7342 178.984C92.1092 180.234 91.4451 181.211 91.2107 181.133C90.4295 180.899 87.1092 175.625 85.9373 172.813C82.617 164.844 82.617 155.274 85.9373 147.227C89.2185 139.297 96.406 132.188 104.258 129.102C106.64 128.203 110.976 127.109 113.672 126.797C116.172 126.524 122.031 127.031 125 127.774ZM19.8826 137.305C22.1873 138.086 24.1013 139.688 25.3123 141.758C26.2107 143.32 26.367 143.984 26.367 146.68C26.367 150.156 25.8592 151.445 23.6717 153.633C18.867 158.438 10.9373 157.149 7.69509 151.016C6.52322 148.789 6.52322 144.57 7.69509 142.383C10.0779 137.813 15.2732 135.664 19.8826 137.305ZM121.367 148.008C124.726 149.727 126.367 152.539 126.367 156.641C126.367 160.078 125.508 161.992 123.203 164.063C121.172 165.82 119.336 166.484 116.601 166.484C113.789 166.484 111.953 165.781 109.844 163.906C104.804 159.336 105.976 150.938 112.031 147.852C114.883 146.445 118.398 146.484 121.367 148.008ZM51.0935 167.813C59.0232 171.758 58.0467 183.594 49.5701 186.094C46.992 186.875 46.367 186.875 43.7888 186.094C39.9217 184.961 36.7185 180.82 36.7185 176.914C36.7185 169.375 44.4138 164.492 51.0935 167.813ZM126.562 174.844C131.094 176.992 134.648 181.094 135.859 185.586L136.25 187.031L133.437 188.594C127.148 192.188 123.554 193.164 116.406 193.125C111.836 193.086 110.664 192.93 107.695 192.031C102.109 190.352 97.2654 187.617 97.2654 186.172C97.2654 184.766 99.492 180.586 101.211 178.711C103.086 176.68 105.469 175.156 108.398 174.141C110.039 173.555 111.445 173.438 117.187 173.516C123.945 173.633 124.062 173.633 126.562 174.844Z" fill="black"/>
</g>
<defs>
<clipPath id="clip0_309_248">
<rect width="200" height="200" fill="black"/>
</clipPath>
</defs>
</svg>
