<svg width="200" height="200" viewBox="0 0 200 200" fill="none" xmlns="http://www.w3.org/2000/svg">
<path d="M74.9997 175C81.6331 180.184 90.3997 183.334 99.9997 183.334C109.6 183.334 118.366 180.184 125 175M21.0831 119.95C19.3081 131.225 27.2331 139.05 36.9331 142.95C74.1247 157.909 125.875 157.909 163.066 142.95C172.766 139.05 180.691 131.225 178.916 119.95C177.833 113.017 172.441 107.25 168.45 101.617C163.225 94.142 162.708 86.0003 162.7 77.3253C162.708 43.8337 134.641 16.667 99.9997 16.667C65.3581 16.667 37.2914 43.8337 37.2914 77.3337C37.2914 86.0003 36.7747 94.1503 31.5414 101.617C27.5581 107.25 22.1747 113.017 21.0831 119.95Z" stroke="black" stroke-width="8" stroke-linecap="round" stroke-linejoin="round"/>
</svg>
