<svg width="200" height="200" viewBox="0 0 200 200" fill="none" xmlns="http://www.w3.org/2000/svg">
<path d="M101.367 12.1094C70.5076 15.3125 43.867 33.8672 30.3904 61.6016C26.4061 69.8047 23.3201 79.8438 22.4217 87.6172C22.2654 88.8281 22.0701 89.8438 21.9529 89.8438C21.8358 89.8438 20.117 88.2812 18.1639 86.3281C16.1717 84.4141 13.9451 82.5391 13.1639 82.2266C9.99982 80.8984 6.36701 81.8359 3.98419 84.5312C2.26544 86.4844 1.75763 88.6719 2.34357 91.4062C2.81232 93.5156 2.92951 93.6719 14.5701 105.312C25.9373 116.68 26.4451 117.109 28.3983 117.578C30.0779 117.969 30.7811 117.93 32.4998 117.422C34.4529 116.875 35.2733 116.133 46.1326 105.195C58.7498 92.5 58.9061 92.3047 58.4373 88.5156C57.8514 83.3984 52.2654 80.1953 47.4608 82.2266C46.7186 82.5 44.3358 84.4922 42.1873 86.5625C39.6483 89.0234 38.2811 90.1172 38.2811 89.6875C38.2811 89.2969 38.6326 87.3047 39.0623 85.2344C44.1014 60.5078 62.617 39.6484 86.6795 31.6016C92.8514 29.5703 97.4608 28.6328 104.219 28.0469C116.914 26.9531 130.234 29.5703 141.797 35.3516C146.64 37.7734 148.008 38.5938 152.344 41.7578C172.265 56.1328 183.828 81.25 181.68 105.391C180.781 115.625 178.633 123.32 174.219 132.227C168.515 143.672 160.39 152.891 149.805 159.961C137.07 168.477 121.719 172.812 106.836 172.109C88.8279 171.289 73.9061 165 60.2342 152.617C56.6404 149.336 55.1561 148.672 52.1483 148.906C47.3045 149.297 44.0233 154.18 45.3123 159.023C45.7029 160.391 46.4451 161.406 49.1795 164.062C59.492 174.141 74.0623 182.109 88.7108 185.703C96.1326 187.5 101.094 188.047 109.765 188.047C118.828 188.047 123.555 187.461 131.875 185.352C143.164 182.461 153.164 177.617 162.812 170.312C189.375 150.352 202.422 116.953 196.484 84.1016C195.039 76.1328 192.656 68.9062 188.828 61.0938C176.211 35.2344 151.328 17.0312 122.656 12.6953C117.656 11.9531 106.133 11.6406 101.367 12.1094Z" fill="#000"/>
<path d="M105.976 52.93C104.726 53.555 103.594 54.5315 102.89 55.5471L101.758 57.1487L101.64 85.5081C101.562 110.117 101.601 114.063 102.148 115.43C102.578 116.602 105.625 119.883 114.336 128.594C124.687 138.867 126.172 140.235 127.734 140.625C132.695 141.953 137.383 138.75 137.812 133.828C138.125 129.961 137.89 129.571 127.305 118.946L117.578 109.141V84.4534C117.578 67.0315 117.461 59.18 117.109 57.93C116.562 55.6253 114.062 52.969 111.914 52.3831C109.531 51.719 108.164 51.8753 105.976 52.93Z" fill="#000"/>
</svg>
