<?xml version="1.0" encoding="UTF-8"?>
<svg version="1.1" xmlns="http://www.w3.org/2000/svg" width="512" height="512">
<path d="M0 0 C5.85442685 3.48798228 10.36870349 8.53596279 12.4140625 15.08984375 C12.59127302 17.8545729 12.66731111 20.51444619 12.64111328 23.27661133 C12.64140533 24.08688782 12.64169739 24.89716431 12.64199829 25.73199463 C12.6406094 28.3995652 12.62506902 31.06685346 12.609375 33.734375 C12.6056433 35.58810778 12.60279707 37.44184254 12.60079956 39.295578 C12.59317545 44.16671221 12.57353744 49.03772653 12.5513916 53.90881348 C12.53090685 58.88255186 12.52179222 63.85630968 12.51171875 68.83007812 C12.49029041 78.58338591 12.4561692 88.33660485 12.4140625 98.08984375 C13.0204808 98.08318192 13.62689911 98.07652008 14.25169373 98.06965637 C20.59506906 98.0029988 26.93834397 97.95791742 33.28198242 97.92504883 C35.64563034 97.91001434 38.00925061 97.88958133 40.37280273 97.86352539 C43.78115691 97.8269073 47.18914042 97.81006344 50.59765625 97.796875 C51.64489365 97.78139114 52.69213104 97.76590729 53.77110291 97.74995422 C63.34127872 97.74778646 70.7389233 99.49090531 77.75 106.22265625 C82.81118314 111.9016364 82.9427606 117.56022629 82.7734375 124.92578125 C82.18163739 130.13619524 80.25712311 134.00672892 76.80497742 137.9085083 C75.21415269 139.96636733 75.21415269 139.96636733 75.43293762 142.27923584 C75.61724838 143.06977356 75.80155914 143.86031128 75.99145508 144.67480469 C76.19188919 145.5754364 76.3923233 146.47606812 76.59883118 147.4039917 C76.83305283 148.36766663 77.06727448 149.33134155 77.30859375 150.32421875 C77.53479904 151.31738098 77.76100433 152.31054321 77.99406433 153.33380127 C78.72094537 156.5067633 79.47337167 159.67303504 80.2265625 162.83984375 C80.72369846 164.98919239 81.21916223 167.13892855 81.71289062 169.2890625 C82.92416826 174.56168281 84.16979126 179.8244779 85.4140625 185.08984375 C102.2440625 185.58484375 102.2440625 185.58484375 119.4140625 186.08984375 C119.4140625 182.78984375 119.4140625 179.48984375 119.4140625 176.08984375 C120.76922342 169.42994106 123.91552265 164.92998181 129.0234375 160.5625 C140.36931817 153.57328919 147.79090208 156.08984375 162.4140625 156.08984375 C162.4140625 128.03984375 162.4140625 99.98984375 162.4140625 71.08984375 C155.90300781 71.12464844 149.39195312 71.15945313 142.68359375 71.1953125 C138.55923583 71.21064072 134.43491301 71.22508257 130.31054688 71.23632812 C123.76384184 71.25426302 117.21726266 71.27548249 110.6706543 71.31616211 C105.39275928 71.34875298 100.11499922 71.36669629 94.83701134 71.37447548 C92.82316653 71.38001945 90.80932913 71.39084542 88.79554176 71.40703392 C85.97526703 71.4288044 83.1555503 71.43181081 80.33520508 71.43041992 C79.50226425 71.44120575 78.66932343 71.45199158 77.81114197 71.46310425 C72.33171178 71.43385462 68.92323011 70.52297597 64.8671875 66.58984375 C60.07642891 60.61694993 60.20398939 56.12888233 60.1640625 48.77734375 C60.1434375 47.83955078 60.1228125 46.90175781 60.1015625 45.93554688 C60.06202084 38.92184549 61.14176653 34.64617671 65.9140625 29.27734375 C69.43957226 26.19252271 71.99768185 25.96454151 76.51692009 25.95841599 C78.10968295 25.95265427 78.10968295 25.95265427 79.73462284 25.94677615 C81.49067157 25.94807588 81.49067157 25.94807588 83.28219604 25.94940186 C84.52263141 25.94643073 85.76306677 25.94345961 87.04109108 25.94039845 C90.49075368 25.93320966 93.94036648 25.93053848 97.39003301 25.92980099 C101.10790774 25.92795173 104.82577165 25.92040509 108.54364014 25.91366577 C116.67576877 25.90007728 124.80789248 25.89405708 132.94003057 25.88965511 C138.01579868 25.88689387 143.09156488 25.88265676 148.1673317 25.87815094 C162.21536324 25.86595817 176.26339325 25.8556585 190.31142998 25.85227585 C191.66036595 25.8519465 191.66036595 25.8519465 193.03655315 25.8516105 C193.93801574 25.85139222 194.83947834 25.85117394 195.76825798 25.85094905 C197.59501704 25.85050558 199.4217761 25.85005902 201.24853516 25.84960938 C202.60774341 25.84927723 202.60774341 25.84927723 203.99441041 25.84893838 C218.68281287 25.84498889 233.37116577 25.82753033 248.05954908 25.80424985 C263.13290559 25.78055163 278.20623721 25.76807472 293.27961266 25.76690793 C301.74561838 25.76599037 310.2115595 25.7602176 318.67754745 25.74208832 C325.88529264 25.72670802 333.09295327 25.72155462 340.30071174 25.72982642 C343.97929978 25.73374015 347.65771743 25.73276828 351.33628464 25.71876907 C355.32158443 25.70374098 359.30664282 25.71187517 363.29196167 25.72235107 C364.45819939 25.71429467 365.6244371 25.70623827 366.82601535 25.69793773 C367.89307275 25.70452757 368.96013016 25.71111742 370.05952263 25.71790695 C371.43945516 25.71701132 371.43945516 25.71701132 372.84726512 25.71609759 C378.83756662 26.58833324 381.98598607 30.51907517 385.4140625 35.08984375 C386.88239953 39.49485484 386.63899958 43.78763313 386.6640625 48.40234375 C386.695 49.8090332 386.695 49.8090332 386.7265625 51.24414062 C386.76610416 58.25784201 385.68635847 62.53351079 380.9140625 67.90234375 C376.54213679 71.72777875 372.2369232 71.2269785 366.7199707 71.20336914 C365.8319577 71.20351517 364.9439447 71.20366119 364.02902222 71.20381165 C361.09093796 71.20311443 358.15291694 71.19533093 355.21484375 71.1875 C353.17888931 71.18563514 351.14293442 71.18421156 349.10697937 71.18321228 C343.74594893 71.17939244 338.38494553 71.16956667 333.02392578 71.1585083 C326.59286813 71.14648518 320.16180145 71.1418894 313.73073578 71.13605499 C303.95849253 71.12635467 294.18630865 71.10719435 284.4140625 71.08984375 C284.4140625 99.13984375 284.4140625 127.18984375 284.4140625 156.08984375 C292.0040625 156.08984375 299.5940625 156.08984375 307.4140625 156.08984375 C317.14282796 159.98134993 322.21953001 162.51473242 326.3515625 171.96484375 C327.4140625 176.08984375 327.4140625 176.08984375 327.4140625 186.08984375 C338.6340625 185.75984375 349.8540625 185.42984375 361.4140625 185.08984375 C362.95816929 178.65308785 364.48269029 172.2174488 365.96118164 165.76611328 C366.46953494 163.57346471 366.98867236 161.38328719 367.51879883 159.19580078 C368.27938508 156.0491876 369.00063185 152.89569925 369.71484375 149.73828125 C369.95938797 148.76305511 370.20393219 147.78782898 370.45588684 146.78305054 C371.6636617 141.88285673 371.6636617 141.88285673 370.44726562 137.18370056 C368.96444597 135.34898651 368.96444597 135.34898651 366.4140625 133.08984375 C363.23735196 126.97708255 363.28904072 119.25309802 365.06640625 112.67578125 C367.59081551 107.06357526 371.76609789 102.81073122 377.33970642 100.18144226 C383.6963305 97.90967949 389.52406928 97.69771799 396.23046875 97.796875 C397.32753647 97.80111984 398.42460419 97.80536469 399.55491638 97.80973816 C403.02905728 97.82641448 406.50259949 97.86404658 409.9765625 97.90234375 C412.34439261 97.91740484 414.7122319 97.93109074 417.08007812 97.94335938 C422.85827419 97.97628173 428.63612555 98.02636997 434.4140625 98.08984375 C434.40518005 97.06777832 434.39629761 96.04571289 434.387146 94.99267578 C434.30591533 85.34143974 434.24602769 75.69027343 434.20681381 66.03877258 C434.18597547 61.07729804 434.15772655 56.11610038 434.11230469 51.15478516 C434.06871287 46.36315199 434.04489718 41.57178448 434.03455353 36.77996826 C434.02718605 34.95558493 434.01279911 33.13121546 433.99114227 31.3069458 C433.96193049 28.74337816 433.95811383 26.18089588 433.95996094 23.6171875 C433.94557983 22.86983841 433.93119873 22.12248932 433.91638184 21.35249329 C433.96553699 15.01107355 435.98660535 9.8473499 440.1953125 5.06640625 C440.7625 4.62039063 441.3296875 4.174375 441.9140625 3.71484375 C442.48125 3.25335938 443.0484375 2.791875 443.6328125 2.31640625 C450.03238914 -2.09031977 456.91415145 -1.67593664 464.4140625 -0.91015625 C470.75696169 1.32231431 475.38810893 6.3152468 478.52871704 12.1665802 C479.81191729 16.40349414 479.70892845 20.45779951 479.70458984 24.86206055 C479.71466568 26.33135765 479.71466568 26.33135765 479.72494507 27.83033752 C479.74393201 31.06663091 479.74785002 34.30271688 479.75 37.5390625 C479.75642878 39.7948261 479.76315721 42.05058886 479.77017212 44.30635071 C479.7821476 49.03652884 479.78585279 53.76663395 479.78466797 58.49682617 C479.78446508 64.54146025 479.8117356 70.58562261 479.84621239 76.63014507 C479.86851571 81.29118475 479.8725044 85.95211167 479.87144852 90.61319923 C479.87380051 92.8406111 479.88260127 95.06802627 479.89811325 97.29538536 C479.91783668 100.42080462 479.91190923 103.5452168 479.89990234 106.6706543 C479.91114136 107.58062164 479.92238037 108.49058899 479.93395996 109.4281311 C479.83237364 119.8999983 475.93743791 127.39227204 468.80078125 134.8828125 C461.00698285 142.08984375 461.00698285 142.08984375 456.4140625 142.08984375 C457.4793974 148.16937012 458.59731016 154.23590875 459.76489258 160.29663086 C460.15448078 162.35903268 460.52961366 164.42422014 460.88989258 166.49194336 C461.41081567 169.46670722 461.98316531 172.4275324 462.56640625 175.390625 C462.79202492 176.77825798 462.79202492 176.77825798 463.02220154 178.19392395 C463.56426053 180.7928846 464.05856758 182.80402569 465.4140625 185.08984375 C467.70635274 186.39397027 469.72749022 187.0225789 472.30128479 187.57316589 C475.21561568 188.28586285 476.60732242 189.75613781 478.4140625 192.08984375 C480.55145573 196.36463021 479.64104079 202.03721594 479.65429688 206.78344727 C479.66397811 208.88403286 479.69498934 210.9836295 479.7265625 213.08398438 C479.73309536 214.42577545 479.73834472 215.76757352 479.7421875 217.109375 C479.7515332 218.32729736 479.76087891 219.54521973 479.77050781 220.80004883 C479.37132955 224.48424548 478.76430859 226.23681332 476.4140625 229.08984375 C471.85177508 231.86217182 468.44556578 232.46480385 463.14327049 232.46457386 C462.43011724 232.46863459 461.71696398 232.47269531 460.98220003 232.47687909 C458.59213044 232.48682621 456.20264798 232.47539686 453.81259155 232.46406555 C452.08197015 232.46680609 450.35135041 232.47085812 448.62073481 232.47610921 C443.86468868 232.48670556 439.10883024 232.4785609 434.35279226 232.46735871 C429.2239306 232.45852464 424.0950937 232.46695787 418.9662323 232.47322083 C408.91918887 232.48271508 398.8722172 232.4761037 388.82517909 232.46395788 C377.13138731 232.45034701 365.4376127 232.4519749 353.74381502 232.45409121 C332.88420828 232.45728194 312.02463568 232.44560801 291.16503906 232.42602539 C270.91079672 232.40701599 250.65659438 232.39993902 230.40234375 232.40551758 C208.35862371 232.41157103 186.31492126 232.41140664 164.27120268 232.40003175 C161.92220219 232.39882442 159.5732017 232.39761844 157.2242012 232.3964138 C155.49045706 232.3955085 155.49045706 232.3955085 153.72168779 232.3945849 C145.56468411 232.39070074 137.40768698 232.39110128 129.25068283 232.39299965 C119.31572233 232.3951185 109.38079691 232.38992092 99.4458463 232.3753861 C94.37402609 232.36812693 89.30225707 232.36407805 84.23043251 232.36862946 C79.59202853 232.37269078 74.95373048 232.3675836 70.31534262 232.35500338 C68.63309562 232.35206333 66.95083871 232.35252596 65.26859419 232.35664646 C62.98999225 232.36172299 60.71174891 232.35460621 58.43317223 232.34431934 C56.53109538 232.34301918 56.53109538 232.34301918 54.59059274 232.34169275 C51.57886671 232.10291014 49.88602409 231.77824835 47.4140625 230.08984375 C45.82635778 226.91443431 46.00305948 223.54793816 46.4140625 220.08984375 C47.95744341 217.91507974 49.05071523 217.27151738 51.4140625 216.08984375 C53.64441324 215.9942111 55.87773226 215.96611985 58.11013222 215.96679592 C58.80973824 215.96564208 59.50934426 215.96448823 60.23015046 215.96329942 C62.59800654 215.96063142 64.96579599 215.96515643 67.33364868 215.96958923 C69.03891751 215.96915357 70.74418627 215.96827875 72.44945467 215.96700007 C77.15379443 215.96475417 81.85811162 215.9687777 86.5624485 215.97377813 C91.62858202 215.97808108 96.69471417 215.97663632 101.760849 215.97587585 C110.54438201 215.97535052 119.32790761 215.97849831 128.11143875 215.98411369 C140.8110813 215.99222742 153.51072025 215.99484378 166.2103651 215.99610168 C186.81277148 215.9982924 207.4151739 216.00495303 228.01757812 216.0144043 C248.03548157 216.0235779 268.05338394 216.03065898 288.07128906 216.03491211 C289.92094465 216.03530619 289.92094465 216.03530619 291.80796702 216.03570824 C297.99384717 216.03701324 304.17972733 216.03827696 310.3656075 216.03952014 C361.71509526 216.04989338 413.06457863 216.06758638 464.4140625 216.08984375 C464.4140625 211.46984375 464.4140625 206.84984375 464.4140625 202.08984375 C305.3540625 202.08984375 146.2940625 202.08984375 -17.5859375 202.08984375 C-17.5859375 206.70984375 -17.5859375 211.32984375 -17.5859375 216.08984375 C-16.40040283 216.06889648 -15.21486816 216.04794922 -13.9934082 216.02636719 C-9.58597946 215.95385044 -5.17860324 215.9080016 -0.77075195 215.87011719 C1.1352628 215.85002829 3.04121612 215.82275181 4.94702148 215.78808594 C7.69009576 215.73944733 10.43235375 215.71684796 13.17578125 215.69921875 C14.02492599 215.67857361 14.87407074 215.65792847 15.74894714 215.63665771 C19.84693751 215.63511096 21.89446863 215.76475808 25.44995117 217.98925781 C27.55453004 220.24007156 28.09824595 221.05965124 28.0390625 224.08984375 C28.05195312 224.74984375 28.06484375 225.40984375 28.078125 226.08984375 C26.99385725 229.35540309 25.33380765 230.29406722 22.4140625 232.08984375 C18.97940505 232.68360805 15.58815481 232.65048293 12.109375 232.62109375 C11.11203339 232.62492065 10.11469177 232.62874756 9.08712769 232.63269043 C6.98076364 232.63540803 4.87436577 232.62805755 2.76806641 232.61132812 C-0.4431559 232.58996206 -3.65212939 232.61111226 -6.86328125 232.63671875 C-8.91406741 232.63407456 -10.96485218 232.62894771 -13.015625 232.62109375 C-13.97000458 232.62919067 -14.92438416 232.6372876 -15.90768433 232.64562988 C-21.96521513 232.56116864 -25.68891931 231.75191962 -30.5859375 228.08984375 C-34.12816654 223.5296277 -32.91904403 216.72762401 -32.90161133 211.24536133 C-32.89845273 209.16239012 -32.92192269 207.08084255 -32.94726562 204.99804688 C-32.94791016 203.67869141 -32.94855469 202.35933594 -32.94921875 201 C-32.95219971 199.79480713 -32.95518066 198.58961426 -32.95825195 197.34790039 C-32.55055321 193.78020218 -31.74695456 191.929701 -29.5859375 189.08984375 C-25.785237 186.77637388 -23.02133725 185.9769237 -18.5859375 185.08984375 C-15.6159375 170.89984375 -12.6459375 156.70984375 -9.5859375 142.08984375 C-11.5659375 141.42984375 -13.5459375 140.76984375 -15.5859375 140.08984375 C-23.86574713 134.08853812 -29.86589331 126.99309531 -32.5859375 117.08984375 C-32.88124666 113.78367618 -32.87973476 110.49013097 -32.87646484 107.17236328 C-32.88318207 106.18947327 -32.88989929 105.20658325 -32.89682007 104.19390869 C-32.91577591 100.95343941 -32.91972296 97.71317748 -32.921875 94.47265625 C-32.9283042 92.21353064 -32.93503266 89.95440586 -32.94204712 87.69528198 C-32.95401357 82.96268788 -32.95772855 78.23016675 -32.95654297 73.49755859 C-32.95633973 67.44266814 -32.98365031 61.38824678 -33.01808739 55.33346748 C-33.04035756 50.66822167 -33.04438048 46.00308878 -33.04332352 41.33779526 C-33.04567896 39.1059393 -33.05449926 36.87408021 -33.06998825 34.64227676 C-33.08965153 31.51655739 -33.08380849 28.39185002 -33.07177734 25.26611328 C-33.08301636 24.35052643 -33.09425537 23.43493958 -33.10583496 22.49160767 C-33.03876037 15.61086626 -31.40171401 10.28846707 -26.8046875 5.06640625 C-26.2375 4.62039063 -25.6703125 4.174375 -25.0859375 3.71484375 C-24.51875 3.25335938 -23.9515625 2.791875 -23.3671875 2.31640625 C-16.77848938 -2.22054816 -7.53995764 -2.65379174 0 0 Z M-15.5859375 17.08984375 C-17.9321572 21.38308907 -17.86974294 25.63852003 -17.84472656 30.40917969 C-17.8482312 31.23426025 -17.85173584 32.05934082 -17.85534668 32.90942383 C-17.86413263 35.63110832 -17.85832375 38.3525317 -17.8515625 41.07421875 C-17.85291057 42.97365366 -17.85485228 44.87308824 -17.85736084 46.77252197 C-17.86030829 50.75365483 -17.85602853 54.7346979 -17.84667969 58.71582031 C-17.83531649 63.80085322 -17.84182715 68.88567426 -17.85382462 73.97069931 C-17.86107999 77.89481172 -17.85873791 81.81887462 -17.85356903 85.74298859 C-17.85224108 87.61674271 -17.85385011 89.49050143 -17.85852814 91.36425018 C-17.86365051 93.99392955 -17.85580228 96.62327495 -17.84472656 99.25292969 C-17.84877502 100.01688049 -17.85282349 100.7808313 -17.85699463 101.56793213 C-17.80263468 108.59240282 -17.33295277 116.13019232 -12.3359375 121.46484375 C-11.77390625 122.09132813 -11.211875 122.7178125 -10.6328125 123.36328125 C-6.02307856 127.25164461 -1.85693181 128.46565229 4.10620117 128.47802734 C6.07305122 128.49221207 6.07305122 128.49221207 8.07963562 128.50668335 C9.49710394 128.50131487 10.91456947 128.49516222 12.33203125 128.48828125 C13.79600672 128.49030387 15.25998121 128.49321688 16.72395325 128.49697876 C19.78278251 128.5013891 22.841348 128.49501019 25.90014648 128.48095703 C29.82115879 128.46382001 33.74155704 128.47374245 37.66254711 128.49167442 C40.68142843 128.5025086 43.70016377 128.49906847 46.71904945 128.49129105 C48.16514471 128.48929036 49.61125323 128.49174372 51.05733299 128.49872971 C53.07492191 128.50634224 55.09255738 128.49268341 57.11010742 128.47802734 C58.25783127 128.47564056 59.40555511 128.47325378 60.58805847 128.47079468 C63.40110738 128.31105531 63.40110738 128.31105531 65.28462219 126.78433228 C67.18875869 123.92757444 66.76896585 121.40227499 66.4140625 118.08984375 C64.58291043 115.47391222 63.50437884 115.1199492 60.4140625 114.08984375 C58.54897754 113.98831978 56.68055173 113.944122 54.81274414 113.93212891 C53.09064476 113.91673569 53.09064476 113.91673569 51.33375549 113.90103149 C49.47278481 113.8900795 49.47278481 113.8900795 47.57421875 113.87890625 C44.95897804 113.85084486 42.34374374 113.82218045 39.72851562 113.79296875 C35.59614414 113.75049571 31.4638131 113.71370975 27.33129883 113.68847656 C23.34955626 113.66351157 19.3682438 113.61507288 15.38671875 113.56640625 C13.52878441 113.56152695 13.52878441 113.56152695 11.63331604 113.55654907 C10.48209763 113.5399826 9.33087921 113.52341614 8.14477539 113.50634766 C7.13234268 113.4982608 6.11990997 113.49017395 5.07679749 113.48184204 C1.83098381 113.004005 0.53834597 112.62175032 -1.5859375 110.08984375 C-1.98610447 107.18634433 -2.12962679 104.65635182 -2.10009766 101.75048828 C-2.10722275 100.89976746 -2.11434784 100.04904663 -2.12168884 99.17254639 C-2.14101327 96.35568203 -2.13268133 93.53956519 -2.125 90.72265625 C-2.13490286 88.76592915 -2.14684253 86.80921138 -2.16073608 84.85250854 C-2.19315703 79.6955775 -2.20349497 74.53885887 -2.20758057 69.38183594 C-2.21632279 61.13426115 -2.25183737 52.88686151 -2.2997551 44.639431 C-2.31234406 41.75834396 -2.31158151 38.8774774 -2.30947876 35.99636841 C-2.31606041 34.22690664 -2.32306693 32.45744639 -2.33056641 30.68798828 C-2.32438042 29.48772507 -2.32438042 29.48772507 -2.31806946 28.26321411 C-2.34807949 24.12098811 -2.56617297 20.75427292 -4.5859375 17.08984375 C-9.52655012 13.59526409 -10.64532488 13.59526409 -15.5859375 17.08984375 Z M451.4140625 17.08984375 C449.01030424 21.4509471 449.13369168 25.83730858 449.15869141 30.68798828 C449.15507095 31.54221375 449.1514505 32.39643921 449.14772034 33.27655029 C449.14084227 35.1257025 449.13831791 36.97487495 449.13966751 38.82403946 C449.14063371 41.74903339 449.12768122 44.67366085 449.11068726 47.59860229 C449.06442992 55.91254894 449.03978986 64.22645639 449.03320312 72.54052734 C449.02819917 77.62981961 449.00401199 82.71872621 448.96787643 87.80788803 C448.95805776 89.7479814 448.95575771 91.68812767 448.96104813 93.62823868 C448.96808894 96.33607764 448.95090086 99.04275887 448.92822266 101.75048828 C448.94048134 102.95682419 448.94048134 102.95682419 448.95298767 104.18753052 C448.87292873 109.54303112 448.87292873 109.54303112 446.7381134 112.08700562 C443.90334687 113.31021978 441.80468546 113.46830234 438.71508789 113.47460938 C437.57032486 113.48472046 436.42556183 113.49483154 435.24610901 113.50524902 C433.39758583 113.50071716 433.39758583 113.50071716 431.51171875 113.49609375 C430.2418663 113.50692993 428.97201385 113.51776611 427.66368103 113.52893066 C423.6012492 113.56324504 419.53910581 113.57941068 415.4765625 113.58984375 C410.13385331 113.60357741 404.79177869 113.63803778 399.44921875 113.68359375 C398.2188942 113.68057251 396.98856964 113.67755127 395.72096252 113.67443848 C394.57304733 113.68454956 393.42513214 113.69466064 392.24243164 113.70507812 C391.23523575 113.70713257 390.22803986 113.70918701 389.19032288 113.71130371 C385.65305014 114.19360695 382.95579726 115.54810899 380.4140625 118.08984375 C379.93496935 122.66155281 379.93496935 122.66155281 381.53668213 126.79115295 C384.2697486 128.6817705 386.39773945 128.47829978 389.70214844 128.49389648 C391.00069763 128.50658066 392.29924683 128.51926483 393.637146 128.53233337 C395.05757811 128.53028122 396.47800913 128.5272926 397.8984375 128.5234375 C399.35711917 128.52799958 400.8157987 128.53330523 402.2744751 128.5393219 C405.33443926 128.54826138 408.39414261 128.54582286 411.45410156 128.53588867 C415.36260515 128.52443243 419.27020076 128.54455345 423.17858505 128.57380581 C426.19335597 128.5922214 429.20791182 128.5918642 432.22272491 128.58616829 C433.66273517 128.58601554 435.10276044 128.59202143 436.54271698 128.60445976 C445.66554785 128.67212468 451.2488866 128.39590318 458.33984375 122.484375 C458.79746094 121.96230469 459.25507813 121.44023437 459.7265625 120.90234375 C460.19707031 120.39316406 460.66757812 119.88398438 461.15234375 119.359375 C464.53170465 113.28071034 464.70891522 106.05819559 464.67285156 99.25292969 C464.6763562 98.42083984 464.67986084 97.58875 464.68347168 96.73144531 C464.69219318 94.01228209 464.68647621 91.29338409 464.6796875 88.57421875 C464.68103639 86.67091828 464.6829788 84.76761815 464.68548584 82.86431885 C464.68842367 78.89030655 464.68418084 74.91638457 464.67480469 70.94238281 C464.66337978 65.85258724 464.66999731 60.76300192 464.68194962 55.67321396 C464.68917795 51.74927181 464.68687634 47.82537951 464.68169403 43.90143585 C464.68036184 42.02437566 464.68199014 40.14731091 464.68665314 38.27025604 C464.69173778 35.64977515 464.68398229 33.02963521 464.67285156 30.40917969 C464.67690002 29.63713196 464.68094849 28.86508423 464.68511963 28.06964111 C464.65304224 23.98871001 464.38856752 20.70290456 462.4140625 17.08984375 C457.47344988 13.59526409 456.35467512 13.59526409 451.4140625 17.08984375 Z M76.4140625 42.08984375 C76.3151331 44.25465172 76.2843515 46.4227816 76.2890625 48.58984375 C76.28648438 49.77578125 76.28390625 50.96171875 76.28125 52.18359375 C76.08196031 54.98243797 76.08196031 54.98243797 77.4140625 56.08984375 C78.97173131 56.18769699 80.53384989 56.21539893 82.09458923 56.21568489 C83.62237802 56.21959651 83.62237802 56.21959651 85.18103123 56.22358716 C86.87987414 56.22024107 86.87987414 56.22024107 88.61303711 56.21682739 C89.80558326 56.21838738 90.99812941 56.21994737 92.22681332 56.22155464 C95.55190267 56.22486794 98.87693605 56.22365544 102.20202208 56.22056842 C105.78215452 56.21831619 109.36228188 56.22179304 112.94241333 56.22454834 C119.96179517 56.22900694 126.98116634 56.22802917 134.0005486 56.2251357 C139.70274903 56.22288202 145.40494647 56.22256899 151.10714722 56.22365952 C152.32211912 56.22388936 152.32211912 56.22388936 153.56163591 56.22412386 C155.20683265 56.22444357 156.85202938 56.22476778 158.49722612 56.22509645 C173.94287375 56.22795151 189.38851546 56.22466382 204.83416212 56.21929608 C218.10200948 56.21482802 231.3698481 56.21560395 244.63769531 56.22021484 C260.02613882 56.22556016 275.41457713 56.22767681 290.80302143 56.22460258 C292.44234021 56.22428401 294.081659 56.22396964 295.72097778 56.22365952 C296.93100453 56.2234281 296.93100453 56.2234281 298.16547626 56.22319201 C303.86421485 56.22232673 309.56295015 56.22378998 315.26168823 56.22613907 C322.20168081 56.22893679 329.14166208 56.2281994 336.08165336 56.22285832 C339.6260069 56.22022093 343.17034155 56.21921688 346.71469498 56.22250748 C350.54817009 56.2260128 354.3816139 56.22184203 358.21508789 56.21682739 C359.34764983 56.21905811 360.48021177 56.22128884 361.64709377 56.22358716 C362.66561963 56.22097941 363.68414549 56.21837166 364.73353577 56.21568489 C365.61964067 56.21552254 366.50574556 56.21536019 367.41870213 56.21519291 C369.41368202 56.31068502 369.41368202 56.31068502 370.4140625 55.08984375 C370.5129919 52.92503578 370.5437735 50.7569059 370.5390625 48.58984375 C370.54292969 46.8109375 370.54292969 46.8109375 370.546875 44.99609375 C370.74616469 42.19724953 370.74616469 42.19724953 369.4140625 41.08984375 C367.85639369 40.99199051 366.29427511 40.96428857 364.73353577 40.96400261 C363.20574698 40.96009099 363.20574698 40.96009099 361.64709377 40.95610034 C359.94825086 40.95944643 359.94825086 40.95944643 358.21508789 40.96286011 C357.02254174 40.96130012 355.82999559 40.95974013 354.60131168 40.95813286 C351.27622233 40.95481956 347.95118895 40.95603206 344.62610292 40.95911908 C341.04597048 40.96137131 337.46584312 40.95789446 333.88571167 40.95513916 C326.86632983 40.95068056 319.84695866 40.95165833 312.8275764 40.9545518 C307.12537597 40.95680548 301.42317853 40.95711851 295.72097778 40.95602798 C294.91099651 40.95587475 294.10101524 40.95572152 293.26648909 40.95556364 C291.62129235 40.95524393 289.97609562 40.95491972 288.33089888 40.95459105 C272.88525125 40.95173599 257.43960954 40.95502368 241.99396288 40.96039142 C228.72611552 40.96485948 215.4582769 40.96408355 202.19042969 40.95947266 C186.80198618 40.95412734 171.41354787 40.95201069 156.02510357 40.95508492 C154.38578479 40.95540349 152.746466 40.95571786 151.10714722 40.95602798 C149.89712047 40.9562594 149.89712047 40.9562594 148.66264874 40.95649549 C142.96391015 40.95736077 137.26517485 40.95589752 131.56643677 40.95354843 C124.62644419 40.95075071 117.68646292 40.9514881 110.74647164 40.95682918 C107.2021181 40.95946657 103.65778345 40.96047062 100.11343002 40.95718002 C96.27995491 40.9536747 92.4465111 40.95784547 88.61303711 40.96286011 C87.48047517 40.96062939 86.34791323 40.95839866 85.18103123 40.95610034 C84.16250537 40.95870809 83.14397951 40.96131584 82.09458923 40.96400261 C81.20848433 40.96416496 80.32237944 40.96432731 79.40942287 40.96449459 C77.41444298 40.86900248 77.41444298 40.86900248 76.4140625 42.08984375 Z M178.4140625 71.08984375 C178.4140625 99.13984375 178.4140625 127.18984375 178.4140625 156.08984375 C208.1140625 156.08984375 237.8140625 156.08984375 268.4140625 156.08984375 C268.4140625 128.03984375 268.4140625 99.98984375 268.4140625 71.08984375 C238.7140625 71.08984375 209.0140625 71.08984375 178.4140625 71.08984375 Z M6.4140625 144.08984375 C5.0940625 150.46296875 3.7740625 156.83609375 2.4140625 163.40234375 C1.99640625 165.41110596 1.57875 167.41986816 1.1484375 169.48950195 C0.82007768 171.08149455 0.49193764 172.67353251 0.1640625 174.265625 C-0.00867187 175.09235718 -0.18140625 175.91908936 -0.359375 176.77087402 C-1.00685425 179.92589009 -1.5859375 182.85975992 -1.5859375 186.08984375 C21.5140625 186.08984375 44.6140625 186.08984375 68.4140625 186.08984375 C66.76961581 176.15091895 66.76961581 176.15091895 64.6875 166.35546875 C64.40825684 165.16727539 64.12901367 163.97908203 63.84130859 162.75488281 C63.32044678 160.56943848 63.32044678 160.56943848 62.7890625 158.33984375 C61.6753125 153.63734375 60.5615625 148.93484375 59.4140625 144.08984375 C41.9240625 144.08984375 24.4340625 144.08984375 6.4140625 144.08984375 Z M387.4140625 144.08984375 C386.3003125 148.79234375 385.1865625 153.49484375 384.0390625 158.33984375 C383.69182129 159.79680664 383.34458008 161.25376953 382.98681641 162.75488281 C382.70757324 163.94307617 382.42833008 165.13126953 382.140625 166.35546875 C381.85783691 167.54946289 381.57504883 168.74345703 381.28369141 169.97363281 C380.15578376 175.31235347 379.31111645 180.70752008 378.4140625 186.08984375 C401.5140625 186.08984375 424.6140625 186.08984375 448.4140625 186.08984375 C446.84468772 175.72944307 446.84468772 175.72944307 444.90625 165.4765625 C444.6676123 164.33147217 444.42897461 163.18638184 444.18310547 162.0065918 C443.88807129 160.61093994 443.59303711 159.21528809 443.2890625 157.77734375 C442.3403125 153.26046875 441.3915625 148.74359375 440.4140625 144.08984375 C422.9240625 144.08984375 405.4340625 144.08984375 387.4140625 144.08984375 Z M136.4140625 176.08984375 C134.81777771 178.90973534 134.81777771 178.90973534 135.4140625 186.08984375 C193.4940625 186.08984375 251.5740625 186.08984375 311.4140625 186.08984375 C311.62951135 179.19877824 311.62951135 179.19877824 308.4140625 174.08984375 C304.80156226 171.68151026 303.15958936 171.83442352 298.86087036 171.82241821 C298.19213233 171.8178871 297.5233943 171.81335599 296.83439147 171.80868757 C294.588906 171.7960063 292.3436619 171.7976663 290.09814453 171.79931641 C288.49006843 171.79333346 286.88199521 171.78652845 285.27392578 171.77896118 C280.901991 171.76126986 276.53013447 171.75660448 272.15816736 171.75532961 C268.51001782 171.75343192 264.86188656 171.74607587 261.21374404 171.73898542 C252.60716762 171.72269186 244.00063304 171.71781734 235.39404297 171.71923828 C226.51271626 171.7204399 217.6316325 171.69933639 208.75036728 171.66775095 C201.12819941 171.64160829 193.50611098 171.63087014 185.88389862 171.6321491 C181.33022838 171.63265934 176.77677397 171.62694216 172.22314835 171.605793 C167.94014885 171.58644442 163.65757179 171.58626277 159.3745575 171.60082626 C157.80279296 171.6029197 156.23100222 171.59818162 154.65928268 171.58610535 C152.51276459 171.57068119 150.36770825 171.57994004 148.22122192 171.59536743 C147.02033495 171.5942779 145.81944798 171.59318836 144.58217049 171.59206581 C140.78406239 172.18883032 139.13316976 173.42539379 136.4140625 176.08984375 Z " fill="#000000" transform="translate(32.5859375,268.91015625)"/>
<path d="M0 0 C1.03122999 -0.00467997 1.03122999 -0.00467997 2.0832929 -0.00945449 C4.38019645 -0.01741318 6.67683424 -0.01111929 8.97373962 -0.00482178 C10.62314 -0.00753256 12.27253916 -0.01109399 13.92193604 -0.01544189 C18.39700263 -0.02455704 22.87197698 -0.02102543 27.34704518 -0.01468372 C32.02969566 -0.00962007 36.71233823 -0.01431612 41.39498901 -0.01745605 C49.25751667 -0.02109427 57.12000674 -0.01630001 64.98252869 -0.0067749 C74.07515601 0.00411315 83.16769366 0.00058094 92.26031882 -0.01042771 C100.06594551 -0.01950019 107.8715452 -0.02078617 115.67717546 -0.01555037 C120.33970036 -0.01243095 125.00218308 -0.01202068 129.66470528 -0.01862335 C134.04694892 -0.02439573 138.42907679 -0.0204019 142.81130791 -0.00883484 C144.42057477 -0.00618784 146.02985137 -0.00695403 147.63911438 -0.01136017 C149.83367901 -0.01681542 152.02787128 -0.00998201 154.22241211 0 C156.06547487 0.00113108 156.06547487 0.00113108 157.94577122 0.002285 C160.91925702 0.24354465 162.59947002 0.59409628 165.04771423 2.25396729 C166.63541895 5.42937672 166.45871726 8.79587288 166.04771423 12.25396729 C164.50433332 14.4287313 163.4110615 15.07229365 161.04771423 16.25396729 C158.88369643 16.35822672 156.71640459 16.39625633 154.54989624 16.40545654 C153.87510682 16.40968895 153.20031739 16.41392137 152.50507981 16.41828203 C150.23340045 16.43134692 147.96175623 16.43734162 145.69004822 16.44342041 C144.06577844 16.45135962 142.4415108 16.45974732 140.81724548 16.46855164 C137.31466731 16.48663094 133.81209392 16.50163843 130.30949211 16.514328 C124.77681321 16.53450917 119.24418748 16.56216595 113.71154785 16.59100342 C100.96949575 16.656267 88.22740426 16.71167393 75.48530579 16.76699066 C63.80714808 16.81778413 52.12900966 16.87062627 40.45089966 16.93151617 C34.94506042 16.95993707 29.43922762 16.98350691 23.9333514 17.00344086 C20.51570725 17.0167872 17.09809282 17.03420151 13.68047333 17.05275154 C12.08930522 17.06053545 10.49812765 17.06659273 8.90694618 17.07084465 C6.74409584 17.07685238 4.58136249 17.088881 2.41854858 17.10247803 C1.20530128 17.10763176 -0.00794603 17.11278549 -1.25795841 17.1180954 C-3.86975588 16.94790538 -3.86975588 16.94790538 -4.95228577 18.25396729 C-5.05211142 20.57933584 -5.08671587 22.8750555 -5.07926941 25.20098877 C-5.0816094 26.3037712 -5.0816094 26.3037712 -5.08399665 27.42883205 C-5.08800932 29.91092832 -5.08481599 32.39296423 -5.0816803 34.87506104 C-5.08303422 36.64696285 -5.0848141 38.41886438 -5.08699036 40.19076538 C-5.09156576 45.01707264 -5.08977469 49.84335863 -5.08661127 54.66966629 C-5.08408822 59.70875355 -5.08642505 64.74783894 -5.08799744 69.78692627 C-5.08981929 78.25087818 -5.0874124 86.71482138 -5.08265686 95.17877197 C-5.07721421 104.9791264 -5.07897686 114.77946003 -5.08448327 124.57981396 C-5.08901394 132.97808352 -5.08966517 141.3763468 -5.0870446 149.7746172 C-5.08548157 154.79759373 -5.08528876 159.82056047 -5.08858109 164.84353638 C-5.09145914 169.56466526 -5.08948533 174.2857672 -5.08368683 179.00689316 C-5.08235887 180.74481028 -5.08275394 182.48272966 -5.08494949 184.2206459 C-5.08765962 186.58277702 -5.08428159 188.94482037 -5.07926941 191.3069458 C-5.08261549 192.3521094 -5.08261549 192.3521094 -5.08602917 193.41838741 C-5.34049971 196.61395556 -5.34049971 196.61395556 -3.95228577 199.25396729 C-0.90458512 199.36337527 2.12128307 199.40820665 5.16978455 199.41168213 C6.60636162 199.41930321 6.60636162 199.41930321 8.07196045 199.42707825 C10.15963566 199.43780823 12.24732257 199.44641802 14.33501434 199.45319748 C17.638215 199.46494881 20.94128267 199.4843926 24.24443054 199.50631714 C33.63893717 199.56805449 43.0334318 199.62197495 52.42808533 199.65533447 C58.16759821 199.67626764 63.90687167 199.71156423 69.64624786 199.75609207 C71.83588086 199.77026757 74.02555626 199.77897799 76.21523285 199.78214645 C79.27976551 199.78704919 82.34366212 199.81019246 85.4080658 199.83746338 C86.76732933 199.83295418 86.76732933 199.83295418 88.15405273 199.82835388 C92.95251206 199.89184074 96.13686743 200.1625059 100.04771423 203.25396729 C104.87119875 208.26948749 108.5997156 214.43507115 112.48521423 220.19146729 C112.93469421 220.85436768 113.38417419 221.51726807 113.84727478 222.20025635 C117.04771423 227.01363785 117.04771423 227.01363785 117.04771423 229.25396729 C117.70771423 229.25396729 118.36771423 229.25396729 119.04771423 229.25396729 C119.31793396 228.52186035 119.58815369 227.78975342 119.86656189 227.03546143 C121.00866502 224.34592423 122.30097465 222.1573767 123.94615173 219.75006104 C124.50818298 218.92699463 125.07021423 218.10392822 125.64927673 217.25592041 C126.23451111 216.40965088 126.81974548 215.56338135 127.42271423 214.69146729 C128.00021423 213.84133057 128.57771423 212.99119385 129.17271423 212.11529541 C136.21546442 201.86471722 136.21546442 201.86471722 141.04771423 200.25396729 C142.41601422 200.15675608 143.78845723 200.11221561 145.16017151 200.10247803 C145.99585159 200.09413437 146.83153168 200.08579071 147.6925354 200.07719421 C149.06258476 200.07091759 149.06258476 200.07091759 150.46031189 200.06451416 C151.9069648 200.0520742 151.9069648 200.0520742 153.38284302 200.03938293 C155.47812379 200.02197835 157.57342407 200.00681265 159.6687355 199.99360657 C162.97938921 199.97260556 166.28994441 199.94558244 169.60054016 199.91693115 C177.82073591 199.84704539 186.04100134 199.7876052 194.26127625 199.72790527 C201.20877154 199.67706907 208.15621317 199.62228223 215.10363388 199.56208801 C218.37482381 199.53541666 221.64601848 199.51466316 224.91725159 199.49407959 C226.90947206 199.47748527 228.90169025 199.46061421 230.89390564 199.44342041 C231.81132034 199.43923599 232.72873505 199.43505157 233.6739502 199.43074036 C237.68064421 199.79199995 237.68064421 199.79199995 241.04771423 198.25396729 C241.14753988 195.92859873 241.18214433 193.63287907 241.17469788 191.3069458 C241.17703786 190.20416337 241.17703786 190.20416337 241.17942512 189.07910252 C241.18343779 186.59700625 241.18024446 184.11497034 241.17710876 181.63287354 C241.17846269 179.86097172 241.18024257 178.08907019 241.18241882 176.31716919 C241.18699423 171.49086193 241.18520316 166.66457594 241.18203974 161.83826828 C241.17951669 156.79918102 241.18185352 151.76009563 241.1834259 146.7210083 C241.18524776 138.25705639 241.18284087 129.79311319 241.17808533 121.3291626 C241.17264268 111.52880817 241.17440532 101.72847454 241.17991173 91.92812061 C241.1844424 83.52985105 241.18509364 75.13158777 241.18247306 66.73331738 C241.18091004 61.71034084 241.18071722 56.6873741 241.18400955 51.66439819 C241.1868876 46.94326931 241.1849138 42.22216737 241.1791153 37.50104141 C241.17778734 35.76312429 241.17818241 34.02520491 241.18037796 32.28728867 C241.18308809 29.92515755 241.17971005 27.5631142 241.17469788 25.20098877 C241.17804396 24.15582517 241.17804396 24.15582517 241.18145764 23.08954716 C241.43592817 19.89397901 241.43592817 19.89397901 240.04771423 17.25396729 C238.50389376 17.14696666 236.955303 17.10775403 235.40782166 17.09625244 C234.41977036 17.0859903 233.43171906 17.07572815 232.41372681 17.06515503 C231.33774734 17.0578537 230.26176788 17.05055237 229.15318298 17.04302979 C226.8960143 17.01495933 224.63885293 16.98629485 222.38169861 16.95709229 C218.80674964 16.91581169 215.23193711 16.87894314 211.65684509 16.8526001 C208.21783333 16.82503287 204.77945274 16.77915552 201.34068298 16.73052979 C199.73582283 16.72565048 199.73582283 16.72565048 198.09854126 16.72067261 C197.10103348 16.70410614 196.1035257 16.68753967 195.07579041 16.67047119 C194.19944443 16.66238434 193.32309845 16.65429749 192.42019653 16.64596558 C189.51883055 16.16658139 188.15295632 15.28747973 186.04771423 13.25396729 C184.94398045 9.28052567 184.63227841 7.16396957 186.36021423 3.37896729 C188.04771423 1.25396729 188.04771423 1.25396729 190.04771423 0.25396729 C191.70017872 0.14336186 193.35698058 0.09482209 195.01304626 0.07696533 C196.04817352 0.0641301 197.08330078 0.05129486 198.14979553 0.03807068 C199.27368683 0.03068375 200.39757812 0.02329681 201.55552673 0.01568604 C202.71011383 0.00761429 203.86470093 -0.00045746 205.05427551 -0.0087738 C207.50389601 -0.02262625 209.95353591 -0.03334319 212.40318298 -0.04119873 C216.1366331 -0.0583668 219.8691876 -0.10223891 223.60240173 -0.14642334 C225.98260355 -0.15655403 228.36281291 -0.16506895 230.74302673 -0.17181396 C231.85477264 -0.18932205 232.96651855 -0.20683014 234.11195374 -0.22486877 C241.30410615 -0.20490642 247.14421247 0.62229089 252.56556702 5.66612244 C257.33349318 11.02496009 258.34584763 15.88575699 258.31513977 22.86268616 C258.31967088 23.62085449 258.324202 24.37902283 258.32887042 25.16016597 C258.34151386 27.69645952 258.33989409 30.23253832 258.33824158 32.76885986 C258.34422689 34.58910905 258.35103244 36.40935569 258.3585968 38.229599 C258.37626432 43.17184479 258.38095252 48.11402132 258.38222837 53.05629563 C258.38365017 56.14510394 258.38792032 59.23389466 258.39322281 62.32269859 C258.41172597 73.10163872 258.41989311 83.88052938 258.4183197 94.65948486 C258.41711841 104.70185002 258.4382177 114.74400021 258.46980703 124.78631097 C258.49597296 133.41237803 258.50668685 142.0383749 258.50540888 150.66448134 C258.50489932 155.81456826 258.51057943 160.96446416 258.53176498 166.11451149 C258.55115249 170.95976236 258.55126827 175.8046401 258.53673172 180.64990425 C258.53464312 182.42520443 258.53934755 184.20052798 258.55145264 185.97578812 C258.5669447 188.40572685 258.5575719 190.83438531 258.54219055 193.26429749 C258.55247768 193.96130054 258.5627648 194.65830359 258.57336366 195.37642795 C258.49165361 201.24649152 256.62764091 206.44961009 252.63582742 210.78867561 C246.57334784 216.11472483 241.42555606 216.52125287 233.73448181 216.31890869 C231.80584276 216.28646978 229.87719761 216.2543923 227.94854736 216.22262573 C226.42006888 216.19240767 226.42006888 216.19240767 224.86071205 216.16157913 C219.44622206 216.06579822 214.03123315 216.04000831 208.61607361 216.00396729 C201.73273104 215.95626441 194.85211815 215.88727378 187.97032166 215.72955322 C182.40043865 215.60374988 176.83469066 215.55668819 171.26344872 215.56162643 C169.14733279 215.54931412 167.03117514 215.50856851 164.91619301 215.43822098 C153.91117247 214.68992645 153.91117247 214.68992645 144.18924522 218.83396721 C140.99412264 222.65590266 138.83604502 226.86047682 136.87230682 231.41529274 C135.84034733 233.7163535 134.52672252 235.72743096 133.05943298 237.77349854 C132.66304626 238.3400415 132.26665955 238.90658447 131.85826111 239.49029541 C131.30235291 240.27050049 131.30235291 240.27050049 130.73521423 241.06646729 C130.34527283 241.63687744 129.95533142 242.2072876 129.55357361 242.79498291 C127.11505543 246.23309201 124.90789499 248.51203037 121.04771423 250.25396729 C118.80162048 250.57427979 118.80162048 250.57427979 116.61021423 250.37896729 C115.52933533 250.32095947 115.52933533 250.32095947 114.42662048 250.26177979 C107.45098202 247.30658319 103.25290945 238.23639409 99.36021423 232.12896729 C98.7923822 231.2485376 98.22455017 230.36810791 97.63951111 229.46099854 C93.11671493 222.43025089 93.11671493 222.43025089 92.02766418 219.64793396 C90.35249958 217.14322051 90.35249958 217.14322051 88.24978542 216.7971611 C85.79715555 216.62311673 83.38841352 216.61653657 80.92979431 216.65802002 C79.52926819 216.65193222 79.52926819 216.65193222 78.10044861 216.64572144 C76.07064621 216.64019625 74.04078733 216.64623498 72.01104164 216.66238213 C68.79472333 216.68773859 65.5796909 216.68302357 62.36331177 216.67048645 C55.52880582 216.6496984 48.69469421 216.66942599 41.86021423 216.69146729 C33.9571925 216.71258127 26.05458442 216.7170838 18.15157127 216.69096565 C14.98952546 216.68761119 11.82827283 216.7088119 8.6663208 216.73136902 C6.71508107 216.72885629 4.76384232 216.72529479 2.81260681 216.72052002 C1.93906052 216.73340561 1.06551422 216.7462912 0.16549683 216.75956726 C-6.25560848 216.70738424 -11.66257702 215.29437487 -16.48005962 210.8419714 C-21.2280462 205.4656854 -22.25044431 200.62789062 -22.2197113 193.64524841 C-22.22424242 192.88708008 -22.22877353 192.12891174 -22.23344195 191.3477686 C-22.24608539 188.81147505 -22.24446562 186.27539625 -22.24281311 183.73907471 C-22.24879842 181.91882552 -22.25560397 180.09857888 -22.26316833 178.27833557 C-22.28083585 173.33608978 -22.28552405 168.39391325 -22.28679991 163.45163894 C-22.2882217 160.36283063 -22.29249186 157.27403992 -22.29779434 154.18523598 C-22.3162975 143.40629585 -22.32446464 132.62740519 -22.32289124 121.84844971 C-22.32168994 111.80608455 -22.34278923 101.76393436 -22.37437856 91.7216236 C-22.40054449 83.09555654 -22.41125839 74.46955967 -22.40998042 65.84345323 C-22.40947085 60.69336631 -22.41515096 55.54347041 -22.43633652 50.39342308 C-22.45572402 45.54817221 -22.45583981 40.70329447 -22.44130325 35.85803032 C-22.43921466 34.08273014 -22.44391909 32.30740659 -22.45602417 30.53214645 C-22.47151623 28.10220772 -22.46214343 25.67354926 -22.44676208 23.24363708 C-22.45704921 22.54663403 -22.46733634 21.84963098 -22.47793519 21.13150662 C-22.39622514 15.26144305 -20.53221244 10.05832448 -16.54039896 5.71925896 C-11.30928847 1.12358956 -6.83966213 0.00419617 0 0 Z " fill="#000000" transform="translate(137.95228576660156,10.74603271484375)"/>
<path d="M0 0 C1.26206268 -0.0098568 1.26206268 -0.0098568 2.54962158 -0.01991272 C5.32653912 -0.03957735 8.10340268 -0.05129449 10.88037109 -0.0612793 C12.3091968 -0.06739259 12.3091968 -0.06739259 13.76688766 -0.07362938 C18.8110609 -0.09446331 23.85520716 -0.1087753 28.89941406 -0.11816406 C34.08750327 -0.12920902 39.27516132 -0.16359464 44.46309853 -0.20333576 C48.47135164 -0.22958733 52.47950343 -0.23786357 56.48783493 -0.24144554 C58.39904052 -0.24629122 60.3102422 -0.25784704 62.22136307 -0.27648354 C86.5397124 -0.49884493 86.5397124 -0.49884493 96.09130859 8.5246582 C98.69070602 11.51255253 101.52880859 15.09241346 101.52880859 19.17700195 C102.12306641 19.02030029 102.71732422 18.86359863 103.32958984 18.70214844 C106.05903552 17.99139951 108.79363411 17.30286028 111.52880859 16.61450195 C112.46337891 16.36764648 113.39794922 16.12079102 114.36083984 15.86645508 C120.65242191 14.30455883 126.59009404 13.0320094 132.58740234 16.2980957 C137.45568018 20.94571505 137.45568018 20.94571505 137.67597961 24.65496826 C137.68582382 25.69832336 137.69566803 26.74167847 137.70581055 27.81665039 C137.7250634 29.58924225 137.7250634 29.58924225 137.7447052 31.39764404 C137.75209213 32.6809259 137.75947906 33.96420776 137.76708984 35.28637695 C137.77516159 36.60107971 137.78323334 37.91578247 137.79154968 39.27032471 C137.80657893 42.05790071 137.81641505 44.84545122 137.82397461 47.63305664 C137.83502155 51.19523823 137.86939989 54.75679211 137.90914631 58.31875229 C137.94166201 61.72460164 137.94609606 65.13038439 137.95458984 68.53637695 C137.97209793 69.81156189 137.98960602 71.08674683 138.00764465 72.40057373 C137.98059181 83.44465287 137.98059181 83.44465287 133.52880859 88.17700195 C128.93009049 91.25467403 123.72886013 90.77987699 118.48388672 89.79174805 C105.05871628 86.9419558 105.05871628 86.9419558 101.52880859 85.17700195 C101.34318359 86.00200195 101.15755859 86.82700195 100.96630859 87.67700195 C97.98642677 94.93236639 92.97724543 99.68031228 85.97805786 103.0929718 C78.07773872 105.57588431 69.50810727 104.8654343 61.30615234 104.8059082 C59.23450089 104.80673804 57.16284951 104.80920173 55.09120178 104.81321716 C50.76315337 104.81606611 46.43562505 104.80146094 42.10766602 104.77392578 C36.57751743 104.73982362 31.04829679 104.74587721 25.5181036 104.76458836 C21.24480031 104.77518736 16.97171066 104.7661945 12.6984272 104.75120354 C10.66000568 104.74604401 8.62156164 104.74647626 6.58314323 104.75274849 C3.72852936 104.75823669 0.87521721 104.73771139 -1.97924805 104.71044922 C-3.22560028 104.72023804 -3.22560028 104.72023804 -4.49713135 104.73022461 C-12.41601113 104.60249014 -19.80384708 101.84434628 -25.47119141 96.17700195 C-32.1456649 87.28419033 -32.78036497 79.23535959 -32.77197266 68.3762207 C-32.77625778 67.14466751 -32.78054291 65.91311432 -32.78495789 64.64424133 C-32.79068804 62.04457207 -32.79121117 59.44488679 -32.78686523 56.84521484 C-32.78371052 52.88847176 -32.80716428 48.93248057 -32.83251953 44.97583008 C-32.83479331 42.44262789 -32.83549565 39.90942371 -32.83447266 37.3762207 C-32.8436824 36.20298752 -32.85289215 35.02975433 -32.86238098 33.82096863 C-32.80260957 23.09424754 -31.21861946 14.95672489 -23.65869141 7.09106445 C-16.57328021 0.89132966 -9.16259086 0.03128124 0 0 Z M-14.28369141 21.17700195 C-16.31821319 24.60356495 -16.6032802 27.38792468 -16.63232422 31.28759766 C-16.64193176 32.32910477 -16.65153931 33.37061188 -16.66143799 34.44367981 C-16.66568787 35.56868393 -16.66993774 36.69368805 -16.67431641 37.8527832 C-16.68001648 39.0106987 -16.68571655 40.1686142 -16.69158936 41.36161804 C-16.70104136 43.81366054 -16.70757413 46.26571575 -16.71142578 48.71777344 C-16.72112583 52.46417481 -16.75214592 56.21002637 -16.78369141 59.95629883 C-16.79022207 62.33845703 -16.79547229 64.72061915 -16.79931641 67.1027832 C-16.81166321 68.22171463 -16.82401001 69.34064606 -16.83673096 70.4934845 C-16.85629278 78.29018106 -16.85629278 78.29018106 -13.47119141 85.17700195 C-9.18508595 88.53107299 -5.16036888 88.61622773 0.0793457 88.59692383 C0.92875229 88.60539337 1.77815887 88.61386292 2.65330505 88.62258911 C5.45440746 88.64594216 8.25496005 88.64698171 11.05615234 88.64575195 C13.00761636 88.65285433 14.9590783 88.66055344 16.91053772 88.66882324 C20.99844164 88.682264 25.08615244 88.68383852 29.17407227 88.67797852 C34.40766891 88.67208151 39.64033819 88.70267603 44.87375546 88.7430954 C48.90329463 88.76896817 52.93261035 88.77185021 56.96222115 88.76820374 C58.89150893 88.76989524 60.82080701 88.77954071 62.75001335 88.79734802 C65.45026278 88.81953071 68.14863292 88.80984019 70.84887695 88.79223633 C71.64231506 88.80549957 72.43575317 88.81876282 73.25323486 88.83242798 C78.99712715 88.7455973 81.51417009 87.29765155 85.52880859 83.17700195 C86.83263023 80.56935867 86.67737107 78.62535368 86.70581055 75.70507812 C86.71864578 74.56016403 86.73148102 73.41524994 86.7447052 72.23564148 C86.75209213 70.99297012 86.75947906 69.75029877 86.76708984 68.4699707 C86.77919746 66.56094719 86.77919746 66.56094719 86.79154968 64.61335754 C86.80540086 61.91570383 86.8164142 59.21817277 86.82397461 56.52050781 C86.83503128 53.07031946 86.86942196 49.62077747 86.90914631 46.17081738 C86.94162833 42.87476596 86.94609294 39.57865778 86.95458984 36.2824707 C86.98085197 34.42757271 86.98085197 34.42757271 87.00764465 32.53520203 C87.00471909 31.38083145 87.00179352 30.22646088 86.9987793 29.03710938 C87.00757866 27.51726692 87.00757866 27.51726692 87.01655579 25.96672058 C86.38407811 22.34920154 85.12482973 20.74529786 82.52880859 18.17700195 C78.34584431 15.75652535 74.05613408 15.88694877 69.34545898 15.90234375 C68.53506668 15.89723282 67.72467438 15.89212189 66.88972473 15.88685608 C64.21856238 15.87298885 61.54765886 15.87391463 58.87646484 15.8762207 C57.01468307 15.8723323 55.15290218 15.86799733 53.29112244 15.86323547 C49.39156212 15.85577951 45.49209235 15.8560601 41.5925293 15.86132812 C36.60129407 15.86712302 31.6104299 15.85018825 26.61925602 15.82698345 C22.77503806 15.81223495 18.93090925 15.81137592 15.08666801 15.81449318 C13.24671125 15.81398057 11.40674941 15.80875409 9.56682014 15.79868126 C6.9914873 15.78631199 4.41687449 15.79311119 1.84155273 15.8046875 C0.7075 15.79322189 0.7075 15.79322189 -0.44946289 15.78152466 C-6.08003969 15.83732291 -10.42635488 16.92063061 -14.28369141 21.17700195 Z M110.90380859 33.42700195 C109.96279297 33.6590332 109.02177734 33.89106445 108.05224609 34.13012695 C105.01602313 35.38973648 104.19280078 36.36628076 102.52880859 39.17700195 C102.08517951 42.00934153 102.08517951 42.00934153 102.16552734 45.11450195 C102.16617188 46.25661133 102.16681641 47.3987207 102.16748047 48.57543945 C102.18359375 49.76395508 102.19970703 50.9524707 102.21630859 52.17700195 C102.21308594 53.36551758 102.20986328 54.5540332 102.20654297 55.77856445 C101.96588633 62.82743019 101.96588633 62.82743019 104.52880859 69.17700195 C107.73813528 70.54299561 107.73813528 70.54299561 111.46630859 71.42700195 C112.71283203 71.7621582 113.95935547 72.09731445 115.24365234 72.44262695 C118.45572555 73.28608144 118.45572555 73.28608144 121.52880859 73.17700195 C121.52880859 59.64700195 121.52880859 46.11700195 121.52880859 32.17700195 C117.47963558 32.17700195 114.72978622 32.43625293 110.90380859 33.42700195 Z " fill="#000000" transform="translate(201.47119140625,66.822998046875)"/>
<path d="M0 0 C3.4375 0.625 3.4375 0.625 5.62133789 2.62280273 C8.04862782 6.63522165 7.99879034 9.6838432 7.93359375 14.28515625 C7.93504898 15.11204453 7.93650421 15.9389328 7.93800354 16.7908783 C7.93634838 18.53322892 7.92482997 20.27559474 7.90405273 22.01782227 C7.87505512 24.68243517 7.88345945 27.34506218 7.89648438 30.00976562 C7.89024767 31.70573882 7.88185726 33.40170575 7.87109375 35.09765625 C7.87402939 35.89252945 7.87696503 36.68740265 7.87998962 37.50636292 C7.8245648 40.75886941 7.66295199 43.2011536 6.12133789 46.09936523 C3.40812988 48.55765679 1.01653894 48.56329243 -2.5625 48.625 C-5.51005732 47.27937601 -7.10527272 46.53945456 -8.5625 43.625 C-8.84724008 38.25710889 -8.87625869 32.88815738 -8.91259766 27.51342773 C-8.92915091 25.71804842 -8.9564329 23.92273484 -8.99462891 22.12768555 C-9.04946923 19.53659959 -9.07128148 16.94705732 -9.0859375 14.35546875 C-9.10860687 13.55634567 -9.13127625 12.7572226 -9.15463257 11.93388367 C-9.13864464 7.70439847 -8.91823606 6.08799826 -6.25244141 2.6184082 C-3.5625 0.625 -3.5625 0.625 0 0 Z " fill="#000000" transform="translate(261.5625,93.375)"/>
</svg>
