<?xml version="1.0" encoding="UTF-8"?>
<svg version="1.1" xmlns="http://www.w3.org/2000/svg" width="512" height="512">
<path d="M0 0 C1.6071563 -0.0099852 1.6071563 -0.0099852 3.2467804 -0.02017212 C5.50849703 -0.0302682 7.77024327 -0.03499008 10.03198242 -0.03466797 C13.45998347 -0.03902652 16.88668069 -0.07533998 20.31445312 -0.11328125 C22.52213106 -0.11915324 24.72981505 -0.12312007 26.9375 -0.125 C27.94729416 -0.13937103 28.95708832 -0.15374207 29.9974823 -0.16854858 C41.6621778 -0.09512337 51.27733029 3.33725124 59.80078125 11.3359375 C60.51234375 11.99464844 61.22390625 12.65335938 61.95703125 13.33203125 C73.70783731 25.28014563 73.96416857 40.34511852 73.8984375 56.12109375 C73.89743042 57.27186401 73.89642334 58.42263428 73.89538574 59.60827637 C73.89018768 63.87167367 73.87622662 68.13505668 73.86328125 72.3984375 C73.84265625 81.9478125 73.82203125 91.4971875 73.80078125 101.3359375 C103.50078125 101.0059375 133.20078125 100.6759375 163.80078125 100.3359375 C164.13078125 90.7659375 164.46078125 81.1959375 164.80078125 71.3359375 C160.09441406 71.37074219 155.38804687 71.40554688 150.5390625 71.44140625 C147.55402402 71.45673839 144.56903422 71.47118046 141.58398438 71.48242188 C136.84796034 71.50034192 132.11211062 71.52152097 127.3762207 71.56225586 C123.5571877 71.59489828 119.73834169 71.61280075 115.91917992 71.62056923 C114.46354416 71.62610401 113.0079184 71.63691222 111.55236244 71.65312767 C109.51035222 71.67496771 107.46911054 71.67790181 105.42700195 71.67651367 C104.2656221 71.68317551 103.10424225 71.68983734 101.90766907 71.69670105 C98.4481804 71.29499443 96.57458071 70.40653018 93.80078125 68.3359375 C92.25491249 65.24419998 92.50718604 62.74164198 92.80078125 59.3359375 C95.00429449 56.28877591 96.21757437 55.43090585 99.96136475 54.8212738 C101.20742493 54.81507523 102.45348511 54.80887665 103.73730469 54.80249023 C104.42729553 54.79387466 105.11728638 54.78525909 105.82818604 54.77638245 C108.10589293 54.7537091 110.38237002 54.76046591 112.66015625 54.76953125 C114.24953577 54.76429407 115.83891217 54.75801725 117.42828369 54.75074768 C120.760606 54.74033939 124.09250146 54.74490752 127.42480469 54.75952148 C131.67973117 54.77666045 135.93330105 54.75327853 140.18807602 54.71803188 C143.47227808 54.69598149 146.75615983 54.69751849 150.0404129 54.7057972 C151.60798881 54.70661352 153.175589 54.69981143 154.7430954 54.68502617 C169.90502435 54.56399508 169.90502435 54.56399508 175.33207703 58.81338501 C180.36115357 64.02684657 181.40261336 68.80185432 181.296875 75.90234375 C181.29833023 76.69946274 181.29978546 77.49658173 181.30128479 78.31785583 C181.29963407 79.99278441 181.28816603 81.66772947 181.26733398 83.3425293 C181.23832 85.89502805 181.24675346 88.4454531 181.25976562 90.99804688 C181.25352866 92.63282251 181.24513804 94.26759165 181.234375 95.90234375 C181.23731064 96.65874649 181.24024628 97.41514923 181.24327087 98.19447327 C181.14342984 103.84387462 179.94635944 108.00993569 176.08203125 112.19921875 C175.49421875 112.67746094 174.90640625 113.15570313 174.30078125 113.6484375 C173.71296875 114.13957031 173.12515625 114.63070312 172.51953125 115.13671875 C168.52325308 117.92503102 164.26490386 117.45125068 159.61328125 117.3984375 C158.86369141 117.39392578 158.11410156 117.38941406 157.34179688 117.38476562 C155.49475742 117.37300104 153.64775912 117.35506615 151.80078125 117.3359375 C151.80354663 118.39722933 151.80354663 118.39722933 151.80636787 119.4799614 C151.8505208 136.68915965 151.8836251 153.89834353 151.90440559 171.10758591 C151.91472178 179.42981754 151.92878864 187.75201137 151.95166016 196.07421875 C151.97158357 203.32715799 151.9844952 210.58006986 151.98895824 217.83303571 C151.9915674 221.67405157 151.99770715 225.51498913 152.01224136 229.35597992 C152.02580872 232.97071833 152.03000562 236.58534612 152.02699661 240.20010757 C152.0278098 242.16028503 152.03857589 244.12045042 152.04962158 246.08059692 C152.04687225 247.24724884 152.04412292 248.41390076 152.04129028 249.61590576 C152.04405566 251.13686419 152.04405566 251.13686419 152.04687691 252.68854904 C151.79289595 255.42076408 151.25808649 257.03120492 149.80078125 259.3359375 C147.10490322 261.43273153 145.70783725 261.33104571 142.23828125 261.1484375 C137.8048737 260.10054117 137.8048737 260.10054117 135.80078125 257.3359375 C135.43163776 254.78036213 135.43163776 254.78036213 135.4400177 251.66023254 C135.43383171 249.8870742 135.43383171 249.8870742 135.42752075 248.07809448 C135.44369949 246.13061813 135.44369949 246.13061813 135.46020508 244.14379883 C135.46105122 242.76406371 135.46057647 241.38432723 135.45887756 240.0045929 C135.45801565 236.25683819 135.47567287 232.50937063 135.49659944 228.76168275 C135.51533371 224.84591258 135.51711411 220.93013607 135.52067566 217.014328 C135.5300057 209.59826076 135.5546324 202.18232595 135.58472413 194.76631707 C135.62450306 184.74573903 135.64071527 174.72512486 135.65823078 164.7044878 C135.68645287 148.91487181 135.74621589 133.1255353 135.80078125 117.3359375 C115.34078125 117.3359375 94.88078125 117.3359375 73.80078125 117.3359375 C73.47078125 121.6259375 73.14078125 125.9159375 72.80078125 130.3359375 C72.47078125 131.3259375 72.14078125 132.3159375 71.80078125 133.3359375 C72.69410156 133.73039062 72.69410156 133.73039062 73.60546875 134.1328125 C78.04185931 136.56414398 80.98367097 140.66457556 83.17578125 145.1484375 C84.7086156 152.9658927 84.33033089 158.99661172 80.43359375 166.06640625 C77.19366876 170.56974696 73.04156102 173.58901091 67.80078125 175.3359375 C66.28170501 175.42263279 64.75909124 175.4536315 63.23754883 175.44946289 C62.3039856 175.44934204 61.37042236 175.44922119 60.40856934 175.44909668 C59.43069458 175.44398071 58.45281982 175.43886475 57.4453125 175.43359375 C56.5440564 175.43258667 55.64280029 175.43157959 54.7142334 175.43054199 C51.34723641 175.42530956 47.98025755 175.4113483 44.61328125 175.3984375 C33.32109375 175.3675 33.32109375 175.3675 21.80078125 175.3359375 C21.80078125 192.4959375 21.80078125 209.6559375 21.80078125 227.3359375 C32.34624599 227.17819642 32.34624599 227.17819642 42.89086914 226.97558594 C44.22671216 226.96388812 45.56256959 226.95369889 46.8984375 226.9453125 C47.57515503 226.92484863 48.25187256 226.90438477 48.94909668 226.88330078 C54.4254421 226.8793446 57.4012548 228.30820027 61.80078125 231.3359375 C65.96142378 236.78198178 66.45220037 241.29173696 66.36328125 248.0234375 C66.38712891 248.86455078 66.41097656 249.70566406 66.43554688 250.57226562 C66.42544903 254.81672575 66.39750514 256.66752597 63.4921875 259.921875 C59.8210664 261.85067883 57.74248931 261.43085641 53.80078125 260.3359375 C51.74139909 258.75707784 50.95506914 257.64451327 49.80078125 255.3359375 C49.80078125 251.3759375 49.80078125 247.4159375 49.80078125 243.3359375 C26.04078125 243.3359375 2.28078125 243.3359375 -22.19921875 243.3359375 C-22.19921875 247.2959375 -22.19921875 251.2559375 -22.19921875 255.3359375 C-24.19921875 259.3359375 -24.19921875 259.3359375 -25.88671875 260.6484375 C-29.27083793 261.65452699 -31.79588649 261.14036149 -35.19921875 260.3359375 C-37.24254024 258.77647501 -38.08363457 257.90051909 -38.60327148 255.36230469 C-38.63542389 252.93572772 -38.65697277 250.51273782 -38.63671875 248.0859375 C-38.65669922 247.25191406 -38.67667969 246.41789063 -38.69726562 245.55859375 C-38.69262051 239.64071779 -37.83208115 236.06984572 -34.19921875 231.3359375 C-29.1578956 227.86744479 -25.45516978 226.75908631 -19.296875 226.9453125 C-18.33436829 226.95135498 -18.33436829 226.95135498 -17.35241699 226.95751953 C-14.98855395 226.97821959 -12.62510319 227.03406309 -10.26171875 227.0859375 C-4.96109375 227.1684375 0.33953125 227.2509375 5.80078125 227.3359375 C5.80078125 210.1759375 5.80078125 193.0159375 5.80078125 175.3359375 C-8.97783725 175.49381785 -8.97783725 175.49381785 -23.75585938 175.69628906 C-25.62238648 175.70798251 -27.48892387 175.71817278 -29.35546875 175.7265625 C-30.30776367 175.74702637 -31.26005859 175.76749023 -32.24121094 175.78857422 C-39.37929997 175.79227271 -44.99404184 174.4483004 -50.22265625 169.37109375 C-55.11952103 162.22393561 -57.03075579 157.10731204 -56.19921875 148.3359375 C-54.92248184 141.85939936 -51.39302826 137.34080267 -46.19921875 133.3359375 C-45.53921875 133.3359375 -44.87921875 133.3359375 -44.19921875 133.3359375 C-44.41578125 132.48322266 -44.41578125 132.48322266 -44.63671875 131.61328125 C-44.82234375 130.84113281 -45.00796875 130.06898438 -45.19921875 129.2734375 C-45.38484375 128.51933594 -45.57046875 127.76523437 -45.76171875 126.98828125 C-46.19921875 124.3359375 -46.19921875 124.3359375 -46.19921875 117.3359375 C-66.65921875 117.3359375 -87.11921875 117.3359375 -108.19921875 117.3359375 C-108.14121094 127.39578125 -108.08320313 137.455625 -108.0234375 147.8203125 C-107.99789869 154.18229805 -107.97362298 160.54424659 -107.95507812 166.90625 C-107.92538762 177.01087096 -107.89044821 187.11528375 -107.82202148 197.21972656 C-107.77221441 204.57814253 -107.73993443 211.93638995 -107.72877628 219.2949698 C-107.72225283 223.19205479 -107.70690261 227.08865753 -107.67056847 230.98558807 C-107.63665101 234.65300671 -107.62615681 238.31974411 -107.63368034 241.98730469 C-107.63164709 243.97618289 -107.60472956 245.96498675 -107.57711792 247.95367432 C-107.58399124 249.13715454 -107.59086456 250.32063477 -107.59794617 251.53997803 C-107.5933372 252.568699 -107.58872824 253.59741997 -107.58397961 254.6573143 C-108.19921875 257.3359375 -108.19921875 257.3359375 -110.51023579 259.70209122 C-113.19921875 261.3359375 -113.19921875 261.3359375 -116.82421875 261.2734375 C-120.04761041 260.37805093 -121.29198833 259.98486865 -123.19921875 257.3359375 C-124.50957003 254.71523494 -124.32213738 252.79226319 -124.31947327 249.85641479 C-124.32084793 248.69251221 -124.3222226 247.52860962 -124.32363892 246.32943726 C-124.32004364 245.04622589 -124.31644836 243.76301453 -124.31274414 242.44091797 C-124.31246218 241.08103436 -124.31262018 239.72115061 -124.31318665 238.36126709 C-124.31347427 234.6631431 -124.3075831 230.96505135 -124.30061269 227.26693487 C-124.29437343 223.4045309 -124.2937749 219.54212625 -124.29258728 215.67971802 C-124.28947566 208.36283863 -124.28126454 201.04597413 -124.27123779 193.7291013 C-124.26007142 185.4003158 -124.25456488 177.0715296 -124.24954236 168.74273849 C-124.23908179 151.60712953 -124.22148561 134.47153509 -124.19921875 117.3359375 C-125.82730469 117.38814453 -125.82730469 117.38814453 -127.48828125 117.44140625 C-128.93357817 117.46956138 -130.37889196 117.49685969 -131.82421875 117.5234375 C-132.53707031 117.54857422 -133.24992187 117.57371094 -133.984375 117.59960938 C-139.63802653 117.67741192 -143.80989122 116.58501101 -148.0625 112.58203125 C-148.77986328 111.68677734 -148.77986328 111.68677734 -149.51171875 110.7734375 C-150.24841797 109.87431641 -150.24841797 109.87431641 -151 108.95703125 C-154.87661839 103.71665134 -153.50644073 95.6872496 -153.54931641 89.38916016 C-153.56581933 87.61428666 -153.59303417 85.83947806 -153.63134766 84.06494141 C-153.68649421 81.49607118 -153.70805125 78.9287598 -153.72265625 76.359375 C-153.74532562 75.57573578 -153.767995 74.79209656 -153.79135132 73.98471069 C-153.76932013 68.15827908 -152.30713664 63.59438235 -148.19921875 59.3359375 C-142.60212011 55.34324696 -138.45538626 54.76901433 -131.68383789 54.88183594 C-130.7562265 54.88125183 -129.82861511 54.88066772 -128.87289429 54.88006592 C-125.82633203 54.88283843 -122.78076499 54.91389121 -119.734375 54.9453125 C-117.61446161 54.95277785 -115.4945413 54.95846939 -113.37461853 54.96246338 C-107.80960864 54.97769649 -102.2450199 55.01695859 -96.68017578 55.0612793 C-90.99582617 55.10228196 -85.31140816 55.12048508 -79.62695312 55.140625 C-68.48419051 55.18345485 -57.34173973 55.25167825 -46.19921875 55.3359375 C-46.20646973 54.39637207 -46.2137207 53.45680664 -46.22119141 52.48876953 C-46.22683105 51.24466309 -46.2324707 50.00055664 -46.23828125 48.71875 C-46.24553223 47.49043457 -46.2527832 46.26211914 -46.26025391 44.99658203 C-46.04494768 32.08337581 -42.40123316 21.39939619 -33.44921875 11.8984375 C-23.63244925 2.7016745 -13.08972486 0.02856424 0 0 Z M-24.796875 27.2890625 C-29.67863558 34.4145292 -30.34733326 41.89781211 -30.36035156 50.35742188 C-30.36531647 51.13869949 -30.37028137 51.91997711 -30.37539673 52.72492981 C-30.38992725 55.29319151 -30.39680335 57.86139156 -30.40234375 60.4296875 C-30.4081006 62.22277832 -30.41385826 64.01586914 -30.4196167 65.80895996 C-30.43009926 69.5612822 -30.43596056 73.31358317 -30.43945312 77.06591797 C-30.44494675 81.86765447 -30.46900483 86.6691087 -30.49742508 91.47075653 C-30.51606606 95.17170024 -30.52125773 98.87257594 -30.522789 102.57356262 C-30.52581032 104.34375052 -30.53382124 106.11393737 -30.54697418 107.88407898 C-30.56407325 110.3610887 -30.56214576 112.83740796 -30.55566406 115.31445312 C-30.56487885 116.04086502 -30.57409363 116.76727692 -30.58358765 117.51570129 C-30.54546981 122.17762343 -29.67367199 125.38175011 -27.19921875 129.3359375 C-24.2135275 130.82878313 -21.15075781 130.50063732 -17.87548828 130.51293945 C-16.7435202 130.52279625 -16.7435202 130.52279625 -15.58868408 130.53285217 C-13.08646551 130.55259492 -10.58430695 130.56424906 -8.08203125 130.57421875 C-6.80146158 130.58033204 -6.80146158 130.58033204 -5.49502182 130.58656883 C-0.9776407 130.6074324 3.53971001 130.62173362 8.05712891 130.63110352 C12.72699002 130.64217676 17.39637577 130.67658609 22.06606865 130.71627522 C25.65370583 130.74239584 29.24122888 130.75079121 32.82895279 130.75438499 C34.55057109 130.75926172 36.27218393 130.77090655 37.99370956 130.78942299 C40.40227923 130.81372152 42.80960751 130.81286713 45.21826172 130.8059082 C45.93009613 130.81871826 46.64193054 130.83152832 47.37533569 130.84472656 C50.7397047 130.80927183 52.50520491 130.56170363 55.21218872 128.49406433 C58.19305494 124.44451277 57.94902284 120.51585366 57.94604492 115.70263672 C57.94940353 114.92661606 57.95276215 114.1505954 57.95622253 113.35105896 C57.96573407 110.78089808 57.96767616 108.2108024 57.96875 105.640625 C57.9719639 103.85043308 57.97532808 102.06024142 57.97883606 100.27005005 C57.98482887 96.51238395 57.98667595 92.75474085 57.98608398 88.99707031 C57.98598269 84.19896849 57.99960047 79.40101574 58.01685619 74.60294914 C58.02801944 70.90187921 58.03000182 67.20084472 58.02947426 63.49975967 C58.03064918 61.73206191 58.03504342 59.96436308 58.04280663 58.19668198 C58.05268812 55.71288652 58.04969597 53.22940684 58.04370117 50.74560547 C58.04932068 50.02526627 58.05494019 49.30492706 58.06072998 48.5627594 C58.00223894 38.94670616 55.88717312 30.70153465 49.1640625 23.609375 C42.14557504 17.20599094 35.66281597 15.86917369 26.40625 15.8671875 C24.92515495 15.85576721 24.92515495 15.85576721 23.41413879 15.84411621 C21.33235186 15.83334918 19.25051106 15.83044823 17.16870117 15.83496094 C14.00801999 15.83593144 10.84978335 15.79430715 7.68945312 15.75 C5.65755709 15.7447907 3.62565271 15.74210484 1.59375 15.7421875 C0.66112839 15.72579224 -0.27149323 15.70939697 -1.2323761 15.69250488 C-11.08064489 15.79460127 -18.64583552 19.58940837 -24.796875 27.2890625 Z M-137.19921875 71.3359375 C-137.19921875 80.9059375 -137.19921875 90.4759375 -137.19921875 100.3359375 C-135.36564431 102.16951194 -132.8028618 101.45593717 -130.36328125 101.46035767 C-129.52531006 101.45676239 -128.68733887 101.45316711 -127.82397461 101.44946289 C-126.50702354 101.44968193 -126.50702354 101.44968193 -125.16346741 101.4499054 C-122.2469744 101.44920594 -119.33054442 101.44141205 -116.4140625 101.43359375 C-114.39766983 101.43172968 -112.38127671 101.43030573 -110.36488342 101.42930603 C-105.04656737 101.42547994 -99.72827845 101.41564889 -94.40997314 101.40460205 C-88.98751187 101.39438988 -83.56504623 101.38980883 -78.14257812 101.38476562 C-67.49477781 101.3740267 -56.84700477 101.35642917 -46.19921875 101.3359375 C-46.19921875 91.4359375 -46.19921875 81.5359375 -46.19921875 71.3359375 C-76.22921875 71.3359375 -106.25921875 71.3359375 -137.19921875 71.3359375 Z M-38.80126953 148.14172363 C-40.5313739 150.4120017 -40.5313739 150.4120017 -40.13671875 153.9609375 C-39.52413425 157.59110674 -39.52413425 157.59110674 -36.19921875 159.3359375 C-34.23715919 159.64066006 -34.23715919 159.64066006 -32.06898499 159.60336304 C-30.80934685 159.61615799 -30.80934685 159.61615799 -29.52426147 159.62921143 C-28.60625763 159.62830505 -27.68825378 159.62739868 -26.74243164 159.62646484 C-25.28837669 159.63654068 -25.28837669 159.63654068 -23.8049469 159.64682007 C-20.5938711 159.66585055 -17.38300371 159.6697267 -14.171875 159.671875 C-11.94371961 159.67829896 -9.71556509 159.68502701 -7.4874115 159.69204712 C-2.81426029 159.70403221 1.85881692 159.70772663 6.53198242 159.70654297 C12.52569991 159.70633961 18.51894415 159.7336542 24.5125494 159.76808739 C29.11501758 159.79030252 33.71737085 159.79438218 38.31988716 159.79332352 C40.52992956 159.79568713 42.73997476 159.80455313 44.94996452 159.81998825 C48.03851551 159.83954079 51.12603268 159.83385238 54.21459961 159.82177734 C55.13057922 159.83301636 56.04655884 159.84425537 56.99029541 159.85583496 C62.02966201 159.83551518 62.02966201 159.83551518 66.3686676 157.46182251 C67.95440284 155.40243991 67.95440284 155.40243991 68.30078125 152.8359375 C67.60754875 149.36977501 66.66703594 148.43083327 63.80078125 146.3359375 C60.61543501 145.73151205 57.46456451 145.78972204 54.23046875 145.81835938 C53.26095276 145.8113501 52.29143677 145.80434082 51.2925415 145.79711914 C48.0866637 145.77950895 44.88166809 145.79117298 41.67578125 145.8046875 C39.44905426 145.80199347 37.22232842 145.79811179 34.99560547 145.79309082 C30.32833661 145.78719166 25.66137391 145.79577246 20.99414062 145.81445312 C15.00824617 145.83724258 9.02306906 145.82412178 3.03720093 145.80016327 C-1.56100887 145.78571679 -6.15904829 145.79030607 -10.75726318 145.80067444 C-12.96449874 145.80334489 -15.17174972 145.80006082 -17.37896729 145.79075623 C-20.46269776 145.78060988 -23.5452627 145.79606566 -26.62890625 145.81835938 C-27.54331482 145.81026245 -28.45772339 145.80216553 -29.39984131 145.79382324 C-34.42244859 145.85147417 -34.42244859 145.85147417 -38.80126953 148.14172363 Z " fill="#000000" transform="translate(242.19921875,237.6640625)"/>
<path d="M0 0 C0.98855612 -0.00382555 1.97711224 -0.00765109 2.9956246 -0.01159257 C6.29959219 -0.02189015 9.60338495 -0.01793655 12.90736389 -0.01396179 C15.27962403 -0.01831003 17.65188276 -0.02349355 20.0241394 -0.02944946 C25.79375847 -0.04144813 31.56332335 -0.04399241 37.33295339 -0.0416492 C42.02379876 -0.03986401 46.71463002 -0.04161998 51.40547371 -0.04587364 C52.40804252 -0.04676643 52.40804252 -0.04676643 53.43086525 -0.04767724 C54.78880266 -0.04888903 56.14674007 -0.05010317 57.50467748 -0.05131962 C70.23037208 -0.06218817 82.95604015 -0.06003583 95.68173624 -0.05393478 C107.31566774 -0.04876536 118.94951552 -0.0600229 130.58343046 -0.07903299 C142.53922982 -0.09841879 154.49498959 -0.10666615 166.45080477 -0.10290974 C173.15906718 -0.10099893 179.86724777 -0.103739 186.57549858 -0.11762428 C192.8833353 -0.13019234 199.19100431 -0.12826802 205.49883842 -0.11521339 C207.81272946 -0.11284593 210.12663225 -0.11558835 212.4405098 -0.12383652 C215.60140378 -0.13429088 218.76173366 -0.12621339 221.92260742 -0.11352539 C222.83613934 -0.12089968 223.74967126 -0.12827396 224.69088596 -0.13587171 C233.0595402 -0.06530121 240.93381802 2.22899849 247.02479553 8.26069641 C251.59258198 14.85861017 253.94428961 21.16103539 253.02479553 29.26069641 C251.18082156 37.82022422 247.36862003 43.42515 240.02479553 48.26069641 C238.70012583 48.62694641 237.36718604 48.96594802 236.02479553 49.26069641 C236.03478828 50.96292358 236.03478828 50.96292358 236.04498291 52.69953918 C236.10588009 63.41037001 236.15080952 74.12116556 236.18023205 84.83213043 C236.19586712 90.33834059 236.21706611 95.84441063 236.25111389 101.35054016 C236.2837841 106.66735201 236.30166478 111.98402934 236.30942726 117.30093384 C236.314957 119.32625444 236.32575522 121.35156794 236.3419857 123.37683105 C236.36386169 126.220441 236.3667582 129.06349981 236.3653717 131.90718079 C236.38155045 133.15443939 236.38155045 133.15443939 236.39805603 134.42689514 C236.36453728 140.80798093 235.35469353 146.52212679 231.08729553 151.53804016 C230.40667053 152.08589172 229.72604553 152.63374329 229.02479553 153.19819641 C228.34417053 153.76409485 227.66354553 154.32999329 226.96229553 154.91304016 C223.91188803 157.03479538 221.36380055 157.38534806 217.75375366 157.38095093 C216.44758087 157.38301292 216.44758087 157.38301292 215.11502075 157.38511658 C214.16268051 157.3815213 213.21034027 157.37792603 212.22914124 157.3742218 C211.22408539 157.37436783 210.21902954 157.37451385 209.18351746 157.37466431 C205.85584874 157.3739667 202.52823574 157.36618135 199.20057678 157.35835266 C196.89557933 157.35648794 194.59058148 157.35506429 192.2855835 157.35406494 C186.21434945 157.350244 180.14313928 157.3404173 174.07191467 157.32936096 C167.8784772 157.31913776 161.68503588 157.31456537 155.49159241 157.30952454 C143.33598296 157.29879468 131.18039123 157.28172331 119.02479553 157.26069641 C119.07120178 158.36929016 119.11760803 159.47788391 119.16542053 160.62007141 C119.20294655 162.08358609 119.23934583 163.54712997 119.27479553 165.01069641 C119.30831116 165.74030579 119.34182678 166.46991516 119.37635803 167.22163391 C119.44204117 170.83420648 119.35619405 172.82556468 117.13417053 175.74311829 C114.85642345 177.38183077 113.7972726 177.80401637 111.02479553 177.76069641 C110.03479553 177.77616516 110.03479553 177.77616516 109.02479553 177.79194641 C105.99799025 176.98795126 104.92239897 175.75228109 103.02479553 173.26069641 C102.73418313 170.36619692 102.64293508 167.88119706 102.77479553 165.01069641 C102.79284241 164.26561829 102.81088928 163.52054016 102.82948303 162.75288391 C102.87643905 160.9215994 102.94817901 159.09097993 103.02479553 157.26069641 C101.74772736 157.26735825 100.47065918 157.27402008 99.15489197 157.28088379 C87.118981 157.34170226 75.08310123 157.38667268 63.04707146 157.41613293 C56.85924245 157.43178788 50.67153751 157.45302339 44.48377991 157.48701477 C38.51210943 157.51961377 32.54055829 157.53755071 26.56880569 157.54532814 C24.29063666 157.55087063 22.01247415 157.56169371 19.73435593 157.57788658 C16.54310243 157.59966761 13.35234188 157.602663 10.161026 157.60127258 C9.21947159 157.61205841 8.27791718 157.62284424 7.30783081 157.63395691 C1.26076859 157.60545322 -3.10650422 156.79226308 -7.80332947 152.64741516 C-8.27254822 152.08667297 -8.74176697 151.52593079 -9.22520447 150.94819641 C-9.70473572 150.3951886 -10.18426697 149.84218079 -10.67832947 149.27241516 C-13.64369748 144.672522 -14.22786422 140.06978817 -14.24986267 134.6920929 C-14.25939468 133.40733566 -14.2689267 132.12257843 -14.27874756 130.79888916 C-14.27848616 129.40985588 -14.27754925 128.02082259 -14.27598572 126.63179016 C-14.27987679 125.19502642 -14.2842123 123.75826382 -14.28897095 122.32150269 C-14.2964117 119.31820435 -14.2961567 116.31502363 -14.2908783 113.3117218 C-14.28507419 109.46940224 -14.30204726 105.62756324 -14.32522297 101.78532314 C-14.33997309 98.82128095 -14.34083051 95.85735433 -14.33771324 92.89328194 C-14.33822541 91.47674161 -14.34344356 90.06019465 -14.35352516 88.64369011 C-14.36590113 86.66246618 -14.35714804 84.68114458 -14.34751892 82.6999054 C-14.34814835 81.57438766 -14.34877777 80.44886993 -14.34942627 79.28924561 C-13.92874863 75.88473275 -13.0066502 74.00024819 -10.97520447 71.26069641 C-7.88346695 69.71482765 -5.38090894 69.9671012 -1.97520447 70.26069641 C0.93460668 72.40874912 1.91120077 73.60830564 2.53704834 77.20263672 C2.54291458 78.34545609 2.54878082 79.48827545 2.55482483 80.66572571 C2.57131577 81.96354477 2.5878067 83.26136383 2.60479736 84.59851074 C2.60314315 86.0106459 2.60120885 87.42278074 2.59901428 88.83491516 C2.61145968 90.28413584 2.62579398 91.73334143 2.64193726 93.18252563 C2.67994486 96.99124778 2.69514908 100.79970986 2.70472717 104.6085968 C2.72448328 110.71578155 2.78119025 116.82276823 2.83349037 122.92974281 C2.84888106 125.06641999 2.85603498 127.20299876 2.8616333 129.33972168 C2.86866776 130.62808426 2.87570221 131.91644684 2.88294983 133.24385071 C2.88642929 134.38428329 2.88990875 135.52471588 2.89349365 136.69970703 C2.73465222 139.19387759 2.73465222 139.19387759 4.02479553 140.26069641 C6.77888944 140.36079494 9.50797782 140.39509171 12.2625885 140.38768005 C13.5736321 140.39002004 13.5736321 140.39002004 14.91116142 140.3924073 C17.86311871 140.39642117 20.81502529 140.39322616 23.76698303 140.39009094 C25.8738559 140.39144481 27.98072853 140.39322466 30.08760071 140.395401 C35.82710088 140.39997704 41.56658317 140.39818507 47.30608368 140.39502192 C53.29809621 140.39249919 59.29010716 140.39483561 65.28211975 140.39640808 C75.34673845 140.39823003 85.41134982 140.39582279 95.47596741 140.3910675 C107.13039423 140.38562484 118.78480356 140.38738748 130.43922997 140.39289391 C140.42559649 140.39742431 150.41195774 140.39807595 160.39832497 140.39545524 C166.37145398 140.39389206 172.34457476 140.39369981 178.31770325 140.39699173 C183.93183465 140.39986938 189.54594339 140.39789671 195.16007233 140.39209747 C197.22695122 140.3907693 199.29383199 140.39116494 201.36071014 140.39336014 C204.1695005 140.39606942 206.97821699 140.39269325 209.78700256 140.38768005 C211.03060452 140.39102614 211.03060452 140.39102614 212.29932976 140.39443982 C215.9623657 140.72988686 215.9623657 140.72988686 219.02479553 139.26069641 C219.14998376 136.49212774 219.21087758 133.74728515 219.2301178 130.97724915 C219.2400174 130.10903534 219.24991699 129.24082153 219.26011658 128.34629822 C219.29182922 125.46232374 219.31652741 122.57833276 219.34120178 119.69429016 C219.36176289 117.7003129 219.38275913 115.70634009 219.4041748 113.71237183 C219.4594826 108.45328865 219.50885334 103.19416558 219.55702209 97.93501282 C219.60717371 92.57283459 219.66289279 87.2107146 219.71815491 81.84858704 C219.82584292 71.31933986 219.92726409 60.79004222 220.02479553 50.26069641 C218.83135025 50.26438358 217.63790497 50.26807076 216.40829468 50.27186966 C188.06717948 50.35853378 159.72606773 50.42447484 131.38484919 50.46495773 C127.89520217 50.46996045 124.40555542 50.47513775 120.91590881 50.48042297 C119.87383668 50.48199684 119.87383668 50.48199684 118.81071258 50.48360249 C107.56755081 50.50099942 96.32447101 50.53253315 85.08135784 50.5693076 C73.5416332 50.60673692 62.00196619 50.62863713 50.46218204 50.63705039 C43.9818016 50.64226615 37.50160693 50.65452924 31.02128601 50.68361664 C24.92118594 50.71077543 18.82134811 50.71914031 12.72119331 50.71312714 C10.48308449 50.71422715 8.24496685 50.72217802 6.00691032 50.73751831 C2.94842327 50.75745296 -0.10907684 50.75262237 -3.16758728 50.74171448 C-4.0508755 50.75336584 -4.93416372 50.76501721 -5.84421825 50.77702165 C-12.73388794 50.71071746 -17.8560407 48.83883708 -23.18223572 44.43647766 C-28.52633856 38.23419772 -31.68350921 31.77092842 -31.33067322 23.37007141 C-30.00970319 15.53134818 -26.42492339 8.94381113 -20.16270447 4.07319641 C-13.50406175 0.28690938 -7.49282046 -0.03092264 0 0 Z M-13.78770447 20.44819641 C-15.38409079 24.22911137 -15.11530217 26.34161055 -13.97520447 30.26069641 C-11.09860482 33.4687112 -8.81919309 34.5136281 -4.62576294 34.76406097 C-2.84939379 34.7860441 -1.07267025 34.78593813 0.70375061 34.76863098 C1.68454747 34.77487094 2.66534433 34.78111091 3.67586231 34.78753996 C6.96559429 34.8035073 10.25458918 34.79085068 13.54432678 34.77827454 C15.90145806 34.78369397 18.25858594 34.79081562 20.6157074 34.79951477 C27.0205857 34.8177721 33.42520668 34.81067046 39.83008957 34.79799843 C43.82945481 34.79089127 47.8288024 34.79222688 51.82817078 34.79595947 C52.49213641 34.7965724 53.15610204 34.79718534 53.84018785 34.79781684 C55.18903154 34.79909575 56.53787521 34.8003926 57.88671887 34.80170721 C70.53413993 34.81311274 83.18144501 34.79999977 95.82884705 34.77850574 C106.68035411 34.76063474 117.53169 34.76373886 128.38319397 34.78218079 C140.98542315 34.80358802 153.58755068 34.81201411 166.18979549 34.79973173 C167.53367041 34.79845754 168.87754534 34.79720006 170.22142029 34.79595947 C171.21323224 34.79503382 171.21323224 34.79503382 172.22508079 34.79408947 C176.88407477 34.7906361 181.54296883 34.79665991 186.20195007 34.80587769 C192.47287885 34.81741766 198.74348386 34.80944392 205.01437759 34.78630066 C207.3182331 34.78100372 209.62211578 34.78254408 211.92596054 34.79135132 C215.06629055 34.80225105 218.20557727 34.78860976 221.34584045 34.76863098 C222.26169324 34.77755387 223.17754602 34.78647676 224.12115192 34.79567003 C228.2282787 34.74484304 230.47191875 34.59242887 234.05941772 32.439888 C236.84313779 29.35332656 237.16722883 27.39126197 237.02479553 23.26069641 C235.30102344 20.23226545 233.1843225 17.8404599 230.02479553 16.26069641 C226.9344624 16.16010488 223.86650885 16.12176695 220.77580261 16.12698364 C219.80503056 16.12471809 218.83425852 16.12245253 217.83406913 16.12011832 C214.5605559 16.11375618 211.28708382 16.1146091 208.01356506 16.11543274 C205.67496181 16.11244262 203.33635906 16.10904044 200.99775696 16.10525513 C194.63003866 16.0963958 188.26233379 16.0940762 181.89460993 16.09343934 C177.25446331 16.09261107 172.61431972 16.08971424 167.97417416 16.08660286 C155.50168764 16.07829323 143.02920827 16.07456117 130.55671908 16.0752726 C129.84799583 16.07531255 129.13927259 16.07535251 128.40907288 16.07539368 C127.34469377 16.075455 127.34469377 16.075455 126.25881205 16.07551756 C114.75767683 16.07592405 103.25657435 16.06635456 91.75544859 16.05225531 C79.95351411 16.03790118 68.15159561 16.0309846 56.34965217 16.03184909 C49.72082736 16.03218141 43.09203271 16.0292257 36.46321487 16.01867104 C30.23018089 16.00901811 23.99721953 16.00889154 17.76418304 16.01618767 C15.47280395 16.01723702 13.1814204 16.01484998 10.89004898 16.00882721 C7.76919805 16.00115374 4.64860088 16.00572124 1.52775574 16.01345825 C0.61472565 16.00831469 -0.29830444 16.00317113 -1.23900211 15.9978717 C-2.07478105 16.00247049 -2.91056 16.00706929 -3.77166557 16.01180744 C-4.49205006 16.01159007 -5.21243454 16.01137271 -5.95464885 16.01114875 C-9.52212466 16.45174798 -11.51295266 17.7028063 -13.78770447 20.44819641 Z " fill="#000000" transform="translate(144.97520446777344,12.739303588867188)"/>
<path d="M0 0 C5.91984417 3.5773682 10.35830892 8.97778783 12.5625 15.5 C12.82256222 18.32617664 12.82256222 18.32617664 12.83665466 21.47627258 C12.84662979 22.67480865 12.85660492 23.87334473 12.86688232 25.10820007 C12.867547 26.41481094 12.86821167 27.72142181 12.86889648 29.06762695 C12.87652206 30.46423789 12.88495025 31.86084464 12.89411926 33.25744629 C12.91603236 37.04476482 12.92485888 40.83200262 12.92994571 44.61937737 C12.93359316 46.98789627 12.93983524 49.35639415 12.9469471 51.72490501 C12.97143084 59.99459127 12.98449109 68.2642149 12.98803711 76.53393555 C12.99167122 84.23152686 13.02156017 91.92871918 13.06344169 99.62618858 C13.09818004 106.24378325 13.11358616 112.86124592 13.11428314 119.47893113 C13.11507478 123.42744411 13.12376055 127.37555046 13.15228081 131.32396889 C13.17852266 135.03994271 13.1806334 138.75517457 13.16462517 142.47119904 C13.16195613 144.47591833 13.18395272 146.48062356 13.20681763 148.48521423 C13.13973675 156.7778501 11.93157862 162.03256469 6.08437252 168.01140308 C0.69584173 172.83952362 -4.10020015 173.80023598 -11.14453125 173.6953125 C-12.1100592 173.69229126 -12.1100592 173.69229126 -13.09509277 173.68920898 C-15.48013522 173.67881174 -17.86507541 173.65088947 -20.25 173.625 C-25.591875 173.58375 -30.93375 173.5425 -36.4375 173.5 C-36.4375 190.66 -36.4375 207.82 -36.4375 225.5 C-25.8471777 225.38161158 -25.8471777 225.38161158 -15.25732422 225.22973633 C-13.91895265 225.22096556 -12.58057302 225.21332302 -11.2421875 225.20703125 C-10.560354 225.19168335 -9.87852051 225.17633545 -9.17602539 225.16052246 C-3.84326254 225.15763364 0.191638 226.38818705 4.20703125 229.96484375 C8.50810281 235.38793397 8.73095887 239.08124962 8.8125 245.9375 C8.83828125 247.23558594 8.8640625 248.53367187 8.890625 249.87109375 C8.54512097 253.69220379 7.98638424 255.55514517 5.5625 258.5 C2.90106885 259.75833356 0.46954609 259.8393439 -2.4375 259.5 C-5.4375 257.875 -5.4375 257.875 -7.4375 254.5 C-7.4375 250.21 -7.4375 245.92 -7.4375 241.5 C-31.5275 241.5 -55.6175 241.5 -80.4375 241.5 C-80.4375 245.79 -80.4375 250.08 -80.4375 254.5 C-82.4375 257.875 -82.4375 257.875 -85.4375 259.5 C-88.34454609 259.8393439 -90.77606885 259.75833356 -93.4375 258.5 C-98.09701489 252.78150445 -96.97829811 245.44024239 -96.4375 238.5 C-95.30077031 232.77846054 -92.04232779 229.76175302 -87.4375 226.5 C-83.93157236 225.33135745 -80.78975979 225.37473991 -77.14453125 225.40234375 C-75.85264893 225.40484131 -74.5607666 225.40733887 -73.22973633 225.40991211 C-71.58642334 225.41901611 -69.94311035 225.42812012 -68.25 225.4375 C-60.4228125 225.4684375 -60.4228125 225.4684375 -52.4375 225.5 C-52.4375 208.34 -52.4375 191.18 -52.4375 173.5 C-60.96341931 173.65742289 -60.96341931 173.65742289 -69.48828125 173.86035156 C-77.82132301 173.93769417 -83.28308216 173.01026595 -89.6796875 167.60546875 C-94.16939182 162.33167732 -96.02407322 158.15193651 -96.8125 151.1875 C-95.97045881 142.90742833 -92.97986094 137.2198829 -86.6328125 131.875 C-80.72165081 128.17263538 -74.96708737 128.22998954 -68.2265625 128.3046875 C-67.25842621 128.3075174 -66.29028992 128.31034729 -65.29281616 128.31326294 C-62.21591572 128.32441304 -59.13931172 128.3495082 -56.0625 128.375 C-53.9700563 128.38503648 -51.87760802 128.39416116 -49.78515625 128.40234375 C-44.66915749 128.42433547 -39.55337892 128.45882975 -34.4375 128.5 C-34.7675 127.84 -35.0975 127.18 -35.4375 126.5 C-35.53791288 125.03573039 -35.57689228 123.56702261 -35.58467102 122.09933472 C-35.59182632 121.17417557 -35.59898163 120.24901642 -35.60635376 119.29582214 C-35.60904266 118.27764908 -35.61173157 117.25947601 -35.61450195 116.21044922 C-35.62435875 114.60531715 -35.62435875 114.60531715 -35.63441467 112.96775818 C-35.65418362 109.41340063 -35.66581965 105.85908544 -35.67578125 102.3046875 C-35.67985678 101.09189243 -35.6839323 99.87909737 -35.68813133 98.62955093 C-35.70900959 92.20778828 -35.72330248 85.78604709 -35.73266602 79.36425781 C-35.74372082 72.73309854 -35.77810547 66.10227573 -35.81783772 59.47123528 C-35.84399857 54.37193177 -35.85235753 49.27270837 -35.85594749 44.17334366 C-35.86081651 41.7293585 -35.87243935 39.285377 -35.89098549 36.84145737 C-35.91535959 33.41600785 -35.91441427 29.99142785 -35.9074707 26.56591797 C-35.92028076 25.55989029 -35.93309082 24.55386261 -35.94628906 23.51734924 C-35.89223187 16.18332821 -34.35215939 10.82607255 -29.47265625 5.2578125 C-28.82167969 4.71898437 -28.17070312 4.18015625 -27.5 3.625 C-26.85160156 3.07070312 -26.20320313 2.51640625 -25.53515625 1.9453125 C-18.47077988 -2.92213491 -7.84396301 -3.47595223 0 0 Z M-19.4375 19.5 C-20.16910764 22.84994758 -20.11074979 26.13303877 -20.06860352 29.55102539 C-20.07575882 30.55970169 -20.08291412 31.56837799 -20.09028625 32.60762024 C-20.10718001 35.93809444 -20.08776701 39.26722404 -20.06640625 42.59765625 C-20.06723481 44.91263439 -20.06969372 47.22761248 -20.07371521 49.54258728 C-20.07657361 54.39225998 -20.06186603 59.24147094 -20.03442383 64.09106445 C-20.00032258 70.3112336 -20.00636553 76.53057802 -20.0250864 82.75078678 C-20.03564758 87.53001292 -20.02672679 92.30904668 -20.01170158 97.08825493 C-20.00651415 99.38200751 -20.00700834 101.67578014 -20.01324654 103.96953011 C-20.01868863 107.17291709 -19.99835533 110.37511733 -19.97094727 113.57836914 C-19.97747314 114.52860962 -19.98399902 115.4788501 -19.99072266 116.45788574 C-19.96792552 121.62825047 -19.96792552 121.62825047 -17.52915955 126.05760193 C-14.04051117 128.46335658 -12.03451771 128.61159323 -7.8125 128.5625 C-6.80960938 128.55347656 -5.80671875 128.54445313 -4.7734375 128.53515625 C-4.00257813 128.52355469 -3.23171875 128.51195312 -2.4375 128.5 C-2.3911803 114.76568436 -2.3556326 101.03138728 -2.33387566 87.29700947 C-2.32343397 80.91973933 -2.30926761 74.5425226 -2.28662109 68.1652832 C-2.26490664 62.01207643 -2.25293427 55.85892106 -2.24774551 49.70567894 C-2.24404726 47.3569171 -2.23682562 45.0081581 -2.22603989 42.65941811 C-2.21154373 39.37224856 -2.2095213 36.08529202 -2.21044922 32.7980957 C-2.20325867 31.8248938 -2.19606812 30.85169189 -2.18865967 29.84899902 C-2.19364328 22.10421343 -2.19364328 22.10421343 -6.1875 15.6875 C-12.06829491 12.58374713 -15.64080945 14.49236351 -19.4375 19.5 Z M-80.4375 149.5 C-80.4375 152.37259078 -79.93532182 153.79234574 -78.29492188 156.12417603 C-75.4938613 158.19896923 -73.17191271 157.881471 -69.71875 157.88818359 C-69.04038086 157.89344055 -68.36201172 157.89869751 -67.66308594 157.90411377 C-65.42098965 157.91731635 -63.17960349 157.90857538 -60.9375 157.8984375 C-59.3795559 157.90045818 -57.82161273 157.90336956 -56.26367188 157.90713501 C-52.99860631 157.91155869 -49.73378695 157.90512609 -46.46875 157.89111328 C-42.28198651 157.87402113 -38.09579993 157.88386211 -33.90905762 157.90183067 C-30.69201301 157.91266746 -27.47510535 157.90922271 -24.25805664 157.9014473 C-22.7142734 157.89944499 -21.17047775 157.90190566 -19.62670898 157.90888596 C-17.46955396 157.91649901 -15.31333522 157.90489972 -13.15625 157.88818359 C-11.92841797 157.88579681 -10.70058594 157.88341003 -9.43554688 157.88095093 C-6.49353244 157.72452021 -6.49353244 157.72452021 -4.56054688 156.29995728 C-3.08534901 153.93559192 -2.92985421 152.08225483 -2.75 149.3125 C-2.68425781 148.41144531 -2.61851562 147.51039063 -2.55078125 146.58203125 C-2.51339844 145.89496094 -2.47601563 145.20789063 -2.4375 144.5 C-11.86906061 144.38408925 -21.30037562 144.2952766 -30.7324934 144.24093914 C-35.11236436 144.21485812 -39.49174762 144.1794882 -43.87133789 144.12280273 C-48.09888302 144.06842837 -52.32595943 144.03856821 -56.55382729 144.02561378 C-58.16580903 144.01638352 -59.77776545 143.99835841 -61.38954735 143.97134972 C-63.64982664 143.93498453 -65.90817585 143.93005736 -68.16870117 143.93237305 C-69.45443527 143.92126999 -70.74016937 143.91016693 -72.06486511 143.89872742 C-76.31936198 144.65721815 -77.81606199 146.13162999 -80.4375 149.5 Z " fill="#000000" transform="translate(499.4375,239.5)"/>
<path d="M0 0 C6.3599582 3.85700691 10.68914347 9.34062606 12.5625 16.5 C12.84600779 20.08342613 12.82553324 23.65403213 12.80541992 27.24707031 C12.80731827 28.31762665 12.80921661 29.38818298 12.81117249 30.49118042 C12.81486929 34.02023706 12.80419367 37.54908674 12.79296875 41.078125 C12.79177649 43.53098527 12.79132388 45.983846 12.7915802 48.43670654 C12.79001737 53.57111478 12.78174101 58.70545309 12.76831055 63.83984375 C12.75128522 70.4332326 12.74749734 77.02654489 12.74825573 83.61995316 C12.74798438 88.68126155 12.74250945 93.74255309 12.73525429 98.8038559 C12.73206481 101.23602928 12.73009956 103.66820458 12.72936058 106.10037994 C12.72720201 109.490456 12.71846925 112.8804494 12.70776367 116.27050781 C12.70821686 117.28247223 12.70867004 118.29443665 12.70913696 119.33706665 C12.70487198 120.25670197 12.70060699 121.17633728 12.69621277 122.12384033 C12.69453692 122.92538166 12.69286108 123.72692299 12.69113445 124.55275345 C12.5625 126.5 12.5625 126.5 11.5625 128.5 C13.50684937 128.47643433 13.50684937 128.47643433 15.49047852 128.45239258 C20.31919086 128.39791776 25.14787624 128.36358607 29.97680664 128.33520508 C32.0631162 128.32015841 34.14939433 128.29971618 36.2355957 128.27368164 C39.24177831 128.23711705 42.24754112 128.2202321 45.25390625 128.20703125 C46.18022354 128.19154739 47.10654083 128.17606354 48.06092834 128.16011047 C56.06703343 128.15804987 61.96837453 130.18589316 67.984375 135.6328125 C71.73822095 140.0742441 73.301505 145.37475499 74 151.0625 C73.04768278 158.54499242 71.0909166 163.65056078 65.671875 168.9921875 C58.28086288 174.27539246 51.4605982 173.86680367 42.625 173.6875 C38.314375 173.625625 34.00375 173.56375 29.5625 173.5 C29.5625 190.66 29.5625 207.82 29.5625 225.5 C39.8237285 225.38162731 39.8237285 225.38162731 50.08447266 225.22973633 C52.01105713 225.21849731 52.01105713 225.21849731 53.9765625 225.20703125 C55.94036865 225.18346558 55.94036865 225.18346558 57.94384766 225.15942383 C62.46727335 225.58515442 65.80290327 226.93266325 69.20703125 229.96484375 C73.50810281 235.38793397 73.73095887 239.08124962 73.8125 245.9375 C73.83828125 247.23558594 73.8640625 248.53367187 73.890625 249.87109375 C73.54512097 253.69220379 72.98638424 255.55514517 70.5625 258.5 C67.90106885 259.75833356 65.46954609 259.8393439 62.5625 259.5 C59.5625 257.875 59.5625 257.875 57.5625 254.5 C57.5625 250.21 57.5625 245.92 57.5625 241.5 C33.4725 241.5 9.3825 241.5 -15.4375 241.5 C-15.4375 245.79 -15.4375 250.08 -15.4375 254.5 C-17.4375 257.875 -17.4375 257.875 -20.4375 259.5 C-23.34454609 259.8393439 -25.77606885 259.75833356 -28.4375 258.5 C-33.09701489 252.78150445 -31.97829811 245.44024239 -31.4375 238.5 C-30.30077031 232.77846054 -27.04232779 229.76175302 -22.4375 226.5 C-18.86853644 225.31034548 -15.63806533 225.37510274 -11.92578125 225.40234375 C-11.28008179 225.40335083 -10.63438232 225.40435791 -9.96911621 225.40539551 C-7.56272601 225.41061789 -5.15636118 225.42457917 -2.75 225.4375 C2.633125 225.458125 8.01625 225.47875 13.5625 225.5 C13.5625 208.34 13.5625 191.18 13.5625 173.5 C3.06207499 173.657626 3.06207499 173.657626 -7.4375 173.86035156 C-16.12220345 173.97355203 -22.63154725 173.73072288 -29.4609375 167.71875 C-29.90695313 167.1515625 -30.35296875 166.584375 -30.8125 166 C-31.27398438 165.4328125 -31.73546875 164.865625 -32.2109375 164.28125 C-34.94512494 160.31058289 -35.68927439 157.50251472 -35.70492554 152.64398193 C-35.71345551 151.44682053 -35.72198547 150.24965912 -35.73077393 149.01622009 C-35.72986755 147.70601395 -35.72896118 146.3958078 -35.72802734 145.04589844 C-35.73401307 143.64943584 -35.74081871 142.25297655 -35.74838257 140.85652161 C-35.76604866 137.06500222 -35.77073829 133.27357312 -35.77201414 129.48201656 C-35.77343633 127.11132559 -35.77770728 124.74065751 -35.78300858 122.36997223 C-35.80151316 114.09380132 -35.80967894 105.81769482 -35.80810547 97.54150391 C-35.806905 89.83660544 -35.8279875 82.13198753 -35.8595928 74.42716002 C-35.88578392 67.80533973 -35.89647153 61.18361088 -35.89519465 54.56173921 C-35.8946857 50.60992462 -35.90033078 46.6583592 -35.92155075 42.70659637 C-35.94098035 38.98660638 -35.94102586 35.26710192 -35.92651749 31.54709435 C-35.92344445 29.54000358 -35.9400741 27.53291253 -35.95739746 25.52589417 C-35.90008166 17.26949385 -35.06778226 11.64270778 -29.47265625 5.2578125 C-28.82167969 4.71898437 -28.17070312 4.18015625 -27.5 3.625 C-26.85160156 3.07070312 -26.20320313 2.51640625 -25.53515625 1.9453125 C-18.47077988 -2.92213491 -7.84396301 -3.47595223 0 0 Z M-19.4375 18.5 C-20.4068051 21.36392122 -20.56131929 23.99652194 -20.55775452 27.00518799 C-20.55912918 27.90258698 -20.56050385 28.79998596 -20.56192017 29.72457886 C-20.55832489 30.70137604 -20.55472961 31.67817322 -20.55102539 32.68457031 C-20.55117142 33.7190329 -20.55131744 34.75349548 -20.5514679 35.81930542 C-20.55077117 39.23893327 -20.54298994 42.65850666 -20.53515625 46.078125 C-20.53329122 48.44895396 -20.53186772 50.81978331 -20.53086853 53.19061279 C-20.52705006 59.43116316 -20.51722545 65.67169027 -20.50616455 71.91223145 C-20.49593606 78.2800261 -20.49136782 84.6478245 -20.48632812 91.015625 C-20.47560262 103.51042689 -20.45853419 116.00521151 -20.4375 128.5 C-18.68784642 128.55429959 -16.93770213 128.59292823 -15.1875 128.625 C-14.21296875 128.64820313 -13.2384375 128.67140625 -12.234375 128.6953125 C-9.35579909 128.49429463 -7.81965418 128.09161629 -5.4375 126.5 C-3.37296343 123.40319515 -3.18487279 122.73194629 -3.16334534 119.22463989 C-3.15337021 118.35266968 -3.14339508 117.48069946 -3.13311768 116.58230591 C-3.13212067 115.15155228 -3.13212067 115.15155228 -3.13110352 113.69189453 C-3.12278 112.68511658 -3.11445648 111.67833862 -3.10588074 110.64105225 C-3.08173792 107.30493327 -3.07300347 103.96900963 -3.06640625 100.6328125 C-3.05744342 98.31737203 -3.04832165 96.00193217 -3.03904724 93.68649292 C-3.0225432 88.82922964 -3.0148545 83.97203541 -3.01196289 79.11474609 C-3.00657668 72.88787669 -2.96889204 66.66165526 -2.92321873 60.43496895 C-2.89349068 55.65145492 -2.88624026 50.86809775 -2.88523674 46.08449936 C-2.88102626 43.7887462 -2.86855905 41.49299291 -2.84771919 39.19733047 C-2.82089319 35.98669908 -2.82560478 32.7775804 -2.83813477 29.56689453 C-2.82330048 28.61710724 -2.80846619 27.66731995 -2.79318237 26.68875122 C-2.84388044 22.13172936 -2.95584371 20.13416238 -5.78746033 16.40597534 C-8.31576332 14.30322851 -8.31576332 14.30322851 -11.4375 13.9375 C-15.14612953 14.63286804 -16.81983677 15.80754639 -19.4375 18.5 Z M-20.4375 144.5 C-20.35016424 146.10517097 -20.24197776 147.70921662 -20.125 149.3125 C-20.06699219 150.20582031 -20.00898438 151.09914063 -19.94921875 152.01953125 C-19.58986213 154.48818727 -19.58986213 154.48818727 -18.3134613 156.29797363 C-15.47490664 158.11678383 -13.08372883 157.89690063 -9.73461914 157.91992188 C-9.05785629 157.92839142 -8.38109344 157.93686096 -7.68382263 157.94558716 C-5.44657603 157.96898713 -3.21001597 157.96997867 -0.97265625 157.96875 C0.58289364 157.97584992 2.13844089 157.98354867 3.69398499 157.99182129 C6.95483682 158.00527301 10.21544653 158.00683191 13.47631836 158.00097656 C17.65427817 157.99508023 21.83107598 158.02566435 26.008811 158.06609344 C29.22162632 158.09194928 32.43416109 158.09484985 35.64706612 158.09120178 C37.18726077 158.09289511 38.72746809 158.10255821 40.26756096 158.12034607 C42.42257186 158.1424964 44.57522147 158.13285835 46.73022461 158.11523438 C47.95583603 158.11728882 49.18144745 158.11934326 50.44419861 158.12145996 C53.73866434 157.75999021 53.73866434 157.75999021 55.98951721 155.12561035 C57.78734134 152.63481929 57.78734134 152.63481929 57.5625 149.875 C56.31335361 146.90827732 55.35002482 146.10474774 52.5625 144.5 C49.20897463 144.064701 49.20897463 144.064701 45.40722656 144.15942383 C44.69463181 144.15898575 43.98203705 144.15854767 43.24784851 144.15809631 C40.89932579 144.16018149 38.55152255 144.1834988 36.203125 144.20703125 C34.57216787 144.21262819 32.94120568 144.21689783 31.3102417 144.21989441 C27.02262386 144.23133551 22.73531207 144.26079622 18.44781494 144.29400635 C14.07072082 144.32472315 9.69357714 144.33840318 5.31640625 144.35351562 C-3.26836943 144.38566676 -11.85289662 144.43685405 -20.4375 144.5 Z " fill="#000000" transform="translate(35.4375,239.5)"/>
</svg>
