<svg width="200" height="200" viewBox="0 0 200 200" fill="none" xmlns="http://www.w3.org/2000/svg">
<path d="M100 125C113.807 125 125 113.807 125 100C125 86.1929 113.807 75 100 75C86.1929 75 75 86.1929 75 100C75 113.807 86.1929 125 100 125Z" stroke="black" stroke-width="8"/>
<path d="M114.708 17.9337C111.65 16.667 107.767 16.667 99.9999 16.667C92.2332 16.667 88.3499 16.667 85.2915 17.9337C83.268 18.7713 81.4295 19.9995 79.8809 21.548C78.3323 23.0966 77.1041 24.9352 76.2665 26.9587C75.4999 28.817 75.1915 30.992 75.0749 34.1503C75.0206 36.4331 74.3882 38.6647 73.2369 40.6366C72.0855 42.6085 70.4528 44.2561 68.4915 45.4253C66.4982 46.5401 64.2547 47.1309 61.9709 47.1426C59.6872 47.1543 57.4377 46.5863 55.4332 45.492C52.6332 44.0087 50.6082 43.192 48.5998 42.9253C44.2192 42.3492 39.789 43.5362 36.2832 46.2253C33.6665 48.2503 31.7165 51.6087 27.8332 58.3337C23.9498 65.0587 21.9998 68.417 21.5748 71.7087C21.2885 73.8791 21.4325 76.0847 21.9987 78.1995C22.565 80.3142 23.5423 82.2967 24.8748 84.0337C26.1082 85.6337 27.8332 86.9753 30.5082 88.6587C34.4498 91.1337 36.9832 95.3503 36.9832 100C36.9832 104.65 34.4498 108.867 30.5082 111.334C27.8332 113.025 26.0998 114.367 24.8748 115.967C23.5423 117.704 22.565 119.686 21.9987 121.801C21.4325 123.916 21.2885 126.122 21.5748 128.292C22.0082 131.575 23.9498 134.942 27.8248 141.667C31.7165 148.392 33.6582 151.75 36.2832 153.775C38.0202 155.108 40.0026 156.085 42.1174 156.651C44.2322 157.218 46.4377 157.362 48.6082 157.075C50.6082 156.809 52.6332 155.992 55.4332 154.509C57.4377 153.414 59.6872 152.846 61.9709 152.858C64.2547 152.87 66.4982 153.461 68.4915 154.575C72.5165 156.909 74.9082 161.2 75.0749 165.85C75.1915 169.017 75.4915 171.184 76.2665 173.042C77.1041 175.065 78.3323 176.904 79.8809 178.453C81.4295 180.001 83.268 181.229 85.2915 182.067C88.3499 183.334 92.2332 183.334 99.9999 183.334C107.767 183.334 111.65 183.334 114.708 182.067C116.732 181.229 118.57 180.001 120.119 178.453C121.667 176.904 122.896 175.065 123.733 173.042C124.5 171.184 124.808 169.017 124.925 165.85C125.092 161.2 127.483 156.9 131.508 154.575C133.501 153.461 135.745 152.87 138.029 152.858C140.313 152.846 142.562 153.414 144.567 154.509C147.367 155.992 149.392 156.809 151.392 157.075C153.562 157.362 155.768 157.218 157.882 156.651C159.997 156.085 161.98 155.108 163.717 153.775C166.342 151.759 168.283 148.392 172.167 141.667C176.05 134.942 178 131.584 178.425 128.292C178.711 126.122 178.567 123.916 178.001 121.801C177.435 119.686 176.457 117.704 175.125 115.967C173.892 114.367 172.167 113.025 169.492 111.342C167.541 110.154 165.924 108.49 164.791 106.506C163.659 104.523 163.048 102.284 163.017 100C163.017 95.3503 165.55 91.1337 169.492 88.667C172.167 86.9753 173.9 85.6337 175.125 84.0337C176.457 82.2967 177.435 80.3142 178.001 78.1995C178.567 76.0847 178.711 73.8791 178.425 71.7087C177.992 68.4253 176.05 65.0587 172.175 58.3337C168.283 51.6087 166.342 48.2503 163.717 46.2253C161.98 44.8928 159.997 43.9154 157.882 43.3492C155.768 42.783 153.562 42.639 151.392 42.9253C149.392 43.192 147.367 44.0087 144.558 45.492C142.555 46.5849 140.307 47.152 138.025 47.1403C135.742 47.1286 133.5 46.5386 131.508 45.4253C129.547 44.2561 127.914 42.6085 126.763 40.6366C125.611 38.6647 124.979 36.4331 124.925 34.1503C124.808 30.9837 124.508 28.817 123.733 26.9587C122.896 24.9352 121.667 23.0966 120.119 21.548C118.57 19.9995 116.732 18.7713 114.708 17.9337Z" stroke="black" stroke-width="8"/>
</svg>
