<svg width="200" height="200" viewBox="0 0 200 200" fill="none" xmlns="http://www.w3.org/2000/svg">
<path d="M99.9999 158.334C102.041 158.334 104.011 159.083 105.536 160.44C107.062 161.796 108.036 163.665 108.275 165.692L108.333 166.667V175C108.331 177.124 107.518 179.167 106.059 180.712C104.601 182.256 102.609 183.186 100.488 183.31C98.3679 183.435 96.28 182.745 94.6513 181.381C93.0225 180.018 91.9757 178.084 91.7249 175.975L91.6665 175V166.667C91.6665 164.457 92.5445 162.337 94.1073 160.774C95.6701 159.212 97.7897 158.334 99.9999 158.334ZM152.608 140.917L153.392 141.609L159.225 147.442C160.719 148.942 161.587 150.954 161.652 153.07C161.716 155.186 160.973 157.248 159.573 158.836C158.173 160.424 156.22 161.42 154.113 161.62C152.005 161.821 149.9 161.212 148.225 159.917L147.442 159.225L141.608 153.392C140.17 151.956 139.306 150.045 139.179 148.017C139.051 145.989 139.669 143.984 140.916 142.38C142.163 140.776 143.953 139.682 145.95 139.306C147.947 138.929 150.012 139.294 151.758 140.334L152.608 140.917ZM58.3915 141.609C59.8264 143.044 60.6883 144.953 60.8156 146.978C60.943 149.003 60.327 151.005 59.0832 152.609L58.3915 153.392L52.5582 159.225C51.0586 160.72 49.0463 161.588 46.93 161.652C44.8138 161.717 42.7523 160.974 41.1642 159.573C39.5762 158.173 38.5807 156.221 38.3799 154.113C38.1791 152.005 38.7881 149.9 40.0832 148.225L40.7749 147.442L46.6082 141.609C48.1709 140.046 50.2902 139.169 52.4999 139.169C54.7096 139.169 56.8288 140.046 58.3915 141.609ZM33.3332 91.667C35.4572 91.6693 37.5002 92.4826 39.0446 93.9407C40.5891 95.3988 41.5185 97.3916 41.643 99.5119C41.7675 101.632 41.0776 103.72 39.7143 105.349C38.3511 106.978 36.4173 108.024 34.3082 108.275L33.3332 108.334H24.9999C22.8759 108.331 20.8329 107.518 19.2885 106.06C17.744 104.602 16.8146 102.609 16.6901 100.489C16.5656 98.3684 17.2555 96.2805 18.6188 94.6517C19.982 93.0229 21.9157 91.9762 24.0249 91.7253L24.9999 91.667H33.3332ZM175 91.667C177.124 91.6693 179.167 92.4826 180.711 93.9407C182.256 95.3988 183.185 97.3916 183.31 99.5119C183.434 101.632 182.744 103.72 181.381 105.349C180.018 106.978 178.084 108.024 175.975 108.275L175 108.334H166.667C164.543 108.331 162.5 107.518 160.955 106.06C159.411 104.602 158.481 102.609 158.357 100.489C158.232 98.3684 158.922 96.2805 160.285 94.6517C161.649 93.0229 163.582 91.9762 165.692 91.7253L166.667 91.667H175ZM51.7749 40.0837L52.5582 40.7753L58.3915 46.6087C59.8861 48.1083 60.7538 50.1206 60.8185 52.2369C60.8831 54.3531 60.1398 56.4146 58.7395 58.0026C57.3392 59.5907 55.387 60.5862 53.2793 60.787C51.1716 60.9878 49.0665 60.3788 47.3915 59.0837L46.6082 58.392L40.7749 52.5587C39.3423 51.1227 38.4826 49.2134 38.3571 47.1889C38.2315 45.1644 38.8487 43.1636 40.0929 41.5616C41.3371 39.9596 43.1229 38.8664 45.1155 38.4869C47.108 38.1074 49.1706 38.4678 50.9166 39.5003L51.7749 40.0837ZM159.225 40.7753C160.66 42.2103 161.522 44.1194 161.649 46.1446C161.776 48.1699 161.16 50.172 159.917 51.7753L159.225 52.5587L153.392 58.392C151.892 59.8866 149.88 60.7543 147.763 60.8189C145.647 60.8835 143.586 60.1402 141.998 58.7399C140.41 57.3396 139.414 55.3874 139.213 53.2797C139.012 51.172 139.621 49.0669 140.917 47.392L141.608 46.6087L147.442 40.7753C149.004 39.2131 151.124 38.3354 153.333 38.3354C155.543 38.3354 157.662 39.2131 159.225 40.7753ZM99.9999 16.667C102.041 16.6673 104.011 17.4166 105.536 18.773C107.062 20.1293 108.036 21.9982 108.275 24.0253L108.333 25.0003V33.3337C108.331 35.4577 107.518 37.5006 106.059 39.0451C104.601 40.5895 102.609 41.5189 100.488 41.6434C98.3679 41.7679 96.28 41.078 94.6513 39.7148C93.0225 38.3515 91.9757 36.4178 91.7249 34.3087L91.6665 33.3337V25.0003C91.6665 22.7902 92.5445 20.6706 94.1073 19.1078C95.6701 17.545 97.7897 16.667 99.9999 16.667ZM99.9999 58.3337C108.164 58.3332 116.148 60.7311 122.961 65.2295C129.774 69.7279 135.115 76.1286 138.321 83.6367C141.527 91.1447 142.457 99.4292 140.996 107.461C139.534 115.493 135.744 122.919 130.098 128.816C124.452 134.713 117.199 138.821 109.238 140.631C101.277 142.44 92.9596 141.871 85.3193 138.994C77.6791 136.117 71.0523 131.059 66.262 124.448C61.4718 117.837 58.7292 109.965 58.3749 101.809L58.3332 100L58.3749 98.192C58.8409 87.4649 63.4299 77.3318 71.1851 69.9058C78.9402 62.4798 89.2627 58.3343 99.9999 58.3337Z" fill="black"/>
</svg>
