<svg width="200" height="200" viewBox="0 0 200 200" fill="none" xmlns="http://www.w3.org/2000/svg">
<g clip-path="url(#clip0_309_229)">
<path d="M22.2655 0.351715C16.2108 2.22672 12.2655 8.51578 13.6717 14.0627C13.9061 15.0392 14.2186 16.172 14.2967 16.6017C14.453 17.2267 14.1014 17.5783 12.6951 18.3205C8.08577 20.7423 5.58577 26.758 7.18733 31.6017C7.5389 32.6564 7.81233 33.633 7.81233 33.7111C7.81233 33.8283 6.87483 34.4533 5.70296 35.0783C-0.820479 38.7892 -1.87517 47.8908 3.63265 53.2033L5.3514 54.883L4.4139 56.8361C2.2264 61.5627 3.82796 67.6564 8.12483 70.8595L10.1951 72.383L10.078 89.0627L9.96077 105.703L5.39046 113.32C2.89046 117.539 0.624834 121.719 0.390459 122.695C0.117021 123.867 -0.000166014 132.656 0.077959 151.172L0.195146 177.93L1.13265 179.688C3.7889 184.766 9.21858 187.578 14.0623 186.328C15.0389 186.094 16.1717 185.781 16.6014 185.703C17.2264 185.547 17.578 185.899 18.3201 187.305C20.742 191.914 26.7576 194.414 31.6014 192.813C32.6561 192.461 33.6326 192.188 33.7108 192.188C33.828 192.188 34.453 193.125 35.078 194.297C38.0467 199.492 44.6092 201.367 50.2342 198.633C51.4061 198.047 52.8905 196.914 53.5545 196.094L54.7655 194.61L56.7576 195.547C59.0233 196.602 62.9686 196.836 65.2733 196.016C67.3826 195.313 69.8045 193.477 71.0936 191.602L72.3045 189.844H88.7108C104.062 189.844 105.195 189.883 106.562 190.586C107.344 190.977 110.976 193.086 114.609 195.274C118.242 197.461 121.875 199.414 122.695 199.61C123.672 199.883 133.633 200 151.055 199.922L177.93 199.805L179.883 198.75C184.844 196.133 187.539 190.703 186.328 185.938C186.094 184.961 185.781 183.828 185.703 183.399C185.547 182.774 185.898 182.422 187.305 181.68C191.914 179.258 194.414 173.242 192.812 168.399C192.461 167.344 192.187 166.367 192.187 166.289C192.187 166.172 193.125 165.547 194.297 164.922C200.82 161.211 201.875 152.11 196.367 146.797L194.648 145.117L195.586 143.164C196.836 140.43 196.836 136.485 195.547 133.711C194.57 131.641 191.914 128.711 190.586 128.32C189.883 128.086 189.844 127.5 189.844 111.485C189.844 95.9377 189.883 94.8049 190.586 93.4377C190.976 92.6564 193.086 89.0236 195.273 85.3908C197.461 81.758 199.414 78.1252 199.609 77.3049C199.883 76.3283 200 66.3674 199.922 48.9455L199.805 22.0705L198.75 20.1173C196.133 15.1564 190.703 12.4611 185.937 13.672C184.961 13.9064 183.828 14.2189 183.398 14.297C182.773 14.4533 182.422 14.1017 181.68 12.6955C179.258 8.08609 173.242 5.58609 168.398 7.18765C167.344 7.53922 166.367 7.81265 166.289 7.81265C166.172 7.81265 165.547 6.87515 164.922 5.70328C161.211 -0.82016 152.109 -1.87485 146.797 3.63297L145.117 5.35172L143.164 4.41422C140.976 3.39859 136.992 3.20328 134.726 3.98453C132.539 4.72672 130.039 6.64078 128.945 8.43765L127.93 10.1173H111.523C92.4998 10.1564 95.4295 10.7423 85.3905 4.72672C81.7576 2.57828 78.1639 0.625153 77.3826 0.390778C75.742 -0.0779724 23.7889 -0.0779724 22.2655 0.351715ZM83.4764 11.3283C87.8514 13.9064 92.0701 16.172 93.0076 16.3673C94.0233 16.6017 101.406 16.797 110.664 16.797H126.562V31.4845V46.172L125.078 44.9611C124.258 44.3361 122.734 43.0861 121.68 42.2267C116.875 38.2814 110.078 38.5549 106.211 42.8517C104.14 45.1174 103.398 47.422 103.594 50.7424L103.75 53.5158H97.0701C88.4764 53.5158 88.242 53.633 81.8358 60.1564C79.2576 62.7736 71.4061 70.508 64.3748 77.383C52.1092 89.4142 51.5623 89.8439 50.117 89.8439C49.2967 89.8439 48.203 89.5705 47.6951 89.2189C46.5233 88.3986 45.703 86.4455 45.9764 85.0783C46.0936 84.4924 48.242 81.5236 50.742 78.4377C53.242 75.3517 55.5858 72.422 55.9764 71.8752C56.9139 70.508 56.7967 68.9064 55.6639 67.7736L54.7264 66.797H34.6873C15.8592 66.797 14.5311 66.7189 13.0076 66.0549C9.21858 64.297 9.14046 59.1799 12.8905 57.2267C13.828 56.758 15.9764 56.6408 24.2186 56.6408H34.453L35.5858 55.508C36.992 54.1017 37.0311 52.7736 35.7811 51.2892L34.8436 50.1955L22.3826 50.0002C10.742 49.8049 9.88265 49.7658 8.90608 49.0236C5.46858 46.4845 6.40608 41.3674 10.5076 40.2345C11.2889 40.0392 16.953 39.8439 23.1248 39.8439C29.2576 39.8439 34.6092 39.7267 34.9608 39.6095C35.9373 39.2189 36.7967 37.1877 36.5233 35.9377C35.9764 33.5158 35.6248 33.3986 25.3123 33.2033L15.9373 33.008L14.8436 31.758C13.3201 30.0783 13.0076 28.2033 13.9061 26.3673C15.2733 23.4767 15.5076 23.4377 28.7108 23.4377C37.3045 23.4377 40.703 23.2814 41.4061 22.9298C43.5155 21.8752 43.867 19.258 42.1873 17.5783C41.4451 16.8361 40.8592 16.797 33.0076 16.797C23.828 16.797 22.6951 16.6017 21.1717 14.6486C19.2576 12.2267 19.8436 9.41422 22.6561 7.53922L23.9451 6.64078H49.8045H75.6639L83.4764 11.3283ZM158.242 8.04703C158.867 8.63297 159.57 9.76578 159.765 10.508C159.961 11.2892 160.156 16.9533 160.156 23.1252C160.156 29.258 160.273 34.6095 160.39 34.9611C160.781 35.9377 162.812 36.797 164.062 36.5236C166.484 35.9767 166.601 35.6252 166.797 25.3127L166.992 15.9377L168.242 14.8439C169.922 13.3205 171.797 13.008 173.633 13.9064C176.523 15.2736 176.562 15.508 176.562 28.7111C176.562 37.3048 176.719 40.7033 177.07 41.4064C178.125 43.5158 180.742 43.8674 182.422 42.1877C183.164 41.4455 183.203 40.8595 183.203 33.008C183.203 23.8673 183.398 22.6955 185.312 21.172C187.656 19.3361 190.703 19.9611 192.461 22.6173L193.359 23.9455V49.8049V75.6642L188.672 83.4767C186.094 87.8517 183.828 92.0705 183.633 93.008C183.398 94.0236 183.203 101.406 183.203 110.625V126.563H168.515H153.828L155.312 124.727C156.133 123.672 157.305 122.227 157.93 121.524C161.875 116.914 161.523 110.117 157.148 106.25C154.844 104.219 152.187 103.36 148.984 103.633L146.484 103.828V97.1095C146.484 90.8986 146.406 90.3127 145.547 88.4767C145.039 87.383 143.555 85.4689 142.187 84.1799C140.859 82.8908 133.125 75.0392 124.961 66.7189C110.273 51.758 110.156 51.6408 110.156 50.0002C110.156 47.6564 111.758 46.0939 114.18 46.0939C115.82 46.0939 116.25 46.3283 121.523 50.7033C124.609 53.2424 127.578 55.5861 128.125 55.9767C129.492 56.9142 131.094 56.797 132.226 55.6642L133.203 54.7267V34.6877C133.203 15.8595 133.281 14.5314 133.945 13.008C135.703 9.2189 140.82 9.14078 142.773 12.8908C143.242 13.8283 143.359 15.9767 143.359 24.2189V34.4533L144.492 35.5861C145.195 36.2502 146.055 36.7189 146.68 36.7189C147.305 36.7189 148.164 36.2502 148.867 35.5861L150 34.4533V22.5783C150 11.8361 150.078 10.5861 150.703 9.41422C152.265 6.52359 155.976 5.85953 158.242 8.04703ZM124.531 75.7814L139.844 91.3283L139.805 100.235L139.765 109.18L124.219 124.492L108.711 139.844L99.7655 139.805L90.8201 139.766L75.5076 124.219L60.1561 108.711L60.1951 99.7658L60.2342 90.8205L75.7811 75.4689L91.328 60.1564L100.234 60.1955H109.18L124.531 75.7814ZM44.6873 75.2736C43.867 76.3283 42.6951 77.7345 42.1092 78.4377C40.078 80.8205 39.2967 82.7736 39.2967 85.7424C39.2576 90.3517 41.7186 94.1799 45.8983 95.9377C46.8748 96.3283 48.3592 96.4845 50.3514 96.4455L53.3201 96.3674L53.5155 103.36C53.6717 109.57 53.7889 110.508 54.5701 111.914C55.0389 112.774 57.7342 115.742 60.5467 118.555C63.3592 121.328 71.1326 129.18 77.7733 136.016C89.492 148.008 89.8436 148.399 89.8436 149.922C89.8436 152.539 87.4998 154.492 84.8826 153.985C84.4139 153.906 81.7967 151.992 79.0233 149.727C72.1092 144.024 71.1326 143.36 69.8436 143.36C69.1795 143.36 68.3201 143.75 67.7733 144.336L66.7967 145.274V165.195C66.7967 187.383 66.7967 187.5 64.2576 189.063C62.578 190.078 60.1951 190.078 58.828 189.024C56.7186 187.383 56.6405 186.836 56.6405 175.781V165.547L55.5076 164.414C54.1014 163.008 52.7733 162.969 51.2889 164.219L50.1951 165.156L49.9998 177.695L49.8045 190.235L48.3201 191.68C47.0311 193.008 46.6405 193.164 44.9217 193.164C43.3592 193.164 42.8123 192.969 41.8358 192.031C41.1717 191.367 40.4295 190.235 40.2342 189.492C40.0389 188.711 39.8436 183.047 39.8436 176.875C39.8436 170.742 39.7264 165.391 39.6092 165.039C39.2186 164.063 37.1873 163.203 35.9373 163.477C33.5155 164.024 33.3983 164.375 33.203 174.688L33.0076 184.063L31.7576 185.156C30.078 186.68 28.203 186.992 26.367 186.094C23.4764 184.727 23.4373 184.492 23.4373 171.289C23.4373 162.695 23.2811 159.297 22.9295 158.594C21.8748 156.485 19.2576 156.133 17.578 157.813C16.8358 158.555 16.7967 159.141 16.7967 166.992C16.7967 176.133 16.6014 177.305 14.6873 178.828C12.3436 180.664 9.29671 180.039 7.5389 177.383L6.64046 176.055V150.195V124.336L11.328 116.524C13.9061 112.149 16.1717 107.93 16.367 106.992C16.6014 105.977 16.7967 98.5939 16.7967 89.3361V73.4377H31.4842H46.1717L44.6873 75.2736ZM152.305 110.781C153.594 111.719 154.336 113.711 153.945 115.156C153.75 115.82 151.601 118.75 149.14 121.758C146.68 124.727 144.375 127.578 144.023 128.125C143.086 129.492 143.203 131.133 144.336 132.227L145.273 133.203H165.312C184.14 133.203 185.469 133.281 186.992 133.945C190.781 135.703 190.859 140.82 187.109 142.774C186.172 143.242 184.023 143.36 175.781 143.36H165.547L164.414 144.492C163.008 145.899 162.969 147.227 164.219 148.711L165.156 149.805L177.617 150C189.258 150.195 190.117 150.235 191.094 150.977C194.531 153.516 193.594 158.633 189.492 159.766C188.711 159.961 183.047 160.156 176.875 160.156C170.742 160.156 165.39 160.274 165.039 160.391C164.062 160.781 163.203 162.813 163.476 164.063C164.023 166.485 164.375 166.602 174.687 166.797L184.062 166.992L185.156 168.242C186.68 169.922 186.992 171.797 186.094 173.633C184.726 176.524 184.492 176.563 171.289 176.563C162.695 176.563 159.297 176.719 158.594 177.07C156.484 178.125 156.133 180.742 157.812 182.422C158.555 183.164 159.14 183.203 166.992 183.203C176.133 183.203 177.305 183.399 178.828 185.313C180.664 187.656 180.039 190.703 177.383 192.461L176.055 193.36H150.195H124.336L116.523 188.672C112.148 186.094 107.93 183.828 106.992 183.633C105.976 183.399 98.5936 183.203 89.3748 183.203H73.4373V168.516V153.828L74.9217 155.039C75.742 155.664 77.2655 156.914 78.3201 157.774C84.2576 162.695 92.7342 160.938 95.703 154.18C96.328 152.735 96.5233 151.641 96.4451 149.492L96.367 146.68L103.359 146.485C111.914 146.25 111.797 146.289 117.773 140.235C120.156 137.852 127.969 130.078 135.234 123.008C147.89 110.625 148.398 110.156 149.883 110.156C150.703 110.156 151.797 110.43 152.305 110.781Z" fill="black"/>
</g>
<defs>
<clipPath id="clip0_309_229">
<rect width="200" height="200" fill="black"/>
</clipPath>
</defs>
</svg>
